G75*
G70*
%OFA0B0*%
%FSLAX24Y24*%
%IPPOS*%
%LPD*%
%AMOC8*
5,1,8,0,0,1.08239X$1,22.5*
%
%ADD10C,0.0000*%
D10*
X000996Y001587D02*
X025799Y001587D01*
X025799Y001586D02*
X025838Y001588D01*
X025876Y001594D01*
X025913Y001603D01*
X025950Y001616D01*
X025985Y001633D01*
X026018Y001652D01*
X026049Y001675D01*
X026078Y001701D01*
X026104Y001730D01*
X026127Y001761D01*
X026146Y001794D01*
X026163Y001829D01*
X026176Y001866D01*
X026185Y001903D01*
X026191Y001941D01*
X026193Y001980D01*
X026192Y001980D02*
X026192Y013595D01*
X026190Y013661D01*
X026185Y013727D01*
X026175Y013793D01*
X026162Y013858D01*
X026146Y013922D01*
X026126Y013985D01*
X026102Y014047D01*
X026075Y014107D01*
X026045Y014166D01*
X026011Y014223D01*
X025974Y014278D01*
X025934Y014331D01*
X025892Y014382D01*
X025846Y014430D01*
X025798Y014476D01*
X025747Y014518D01*
X025694Y014558D01*
X025639Y014595D01*
X025582Y014629D01*
X025523Y014659D01*
X025463Y014686D01*
X025401Y014710D01*
X025338Y014730D01*
X025274Y014746D01*
X025209Y014759D01*
X025143Y014769D01*
X025077Y014774D01*
X025011Y014776D01*
X001783Y014776D01*
X001717Y014774D01*
X001651Y014769D01*
X001585Y014759D01*
X001520Y014746D01*
X001456Y014730D01*
X001393Y014710D01*
X001331Y014686D01*
X001271Y014659D01*
X001212Y014629D01*
X001155Y014595D01*
X001100Y014558D01*
X001047Y014518D01*
X000996Y014476D01*
X000948Y014430D01*
X000902Y014382D01*
X000860Y014331D01*
X000820Y014278D01*
X000783Y014223D01*
X000749Y014166D01*
X000719Y014107D01*
X000692Y014047D01*
X000668Y013985D01*
X000648Y013922D01*
X000632Y013858D01*
X000619Y013793D01*
X000609Y013727D01*
X000604Y013661D01*
X000602Y013595D01*
X000602Y001980D01*
X000604Y001941D01*
X000610Y001903D01*
X000619Y001866D01*
X000632Y001829D01*
X000649Y001794D01*
X000668Y001761D01*
X000691Y001730D01*
X000717Y001701D01*
X000746Y001675D01*
X000777Y001652D01*
X000810Y001633D01*
X000845Y001616D01*
X000882Y001603D01*
X000919Y001594D01*
X000957Y001588D01*
X000996Y001586D01*
M02*
