G75*
G70*
%OFA0B0*%
%FSLAX24Y24*%
%IPPOS*%
%LPD*%
%AMOC8*
5,1,8,0,0,1.08239X$1,22.5*
%
%ADD10C,0.0000*%
%ADD11R,0.0600X0.0600*%
%ADD12C,0.0600*%
%ADD13R,0.0394X0.0433*%
%ADD14R,0.0591X0.0512*%
%ADD15R,0.0531X0.0531*%
%ADD16C,0.0531*%
%ADD17R,0.0236X0.0610*%
%ADD18R,0.0787X0.0236*%
%ADD19R,0.0610X0.0236*%
%ADD20R,0.0512X0.0591*%
%ADD21R,0.0333X0.0011*%
%ADD22R,0.0511X0.0011*%
%ADD23R,0.0644X0.0011*%
%ADD24R,0.0756X0.0011*%
%ADD25R,0.0867X0.0011*%
%ADD26R,0.0933X0.0011*%
%ADD27R,0.1022X0.0011*%
%ADD28R,0.1089X0.0011*%
%ADD29R,0.0478X0.0011*%
%ADD30R,0.0389X0.0011*%
%ADD31R,0.0389X0.0011*%
%ADD32R,0.0356X0.0011*%
%ADD33R,0.0355X0.0011*%
%ADD34R,0.0311X0.0011*%
%ADD35R,0.0300X0.0011*%
%ADD36R,0.0277X0.0011*%
%ADD37R,0.0278X0.0011*%
%ADD38R,0.0267X0.0011*%
%ADD39R,0.0266X0.0011*%
%ADD40R,0.0245X0.0011*%
%ADD41R,0.0244X0.0011*%
%ADD42R,0.0233X0.0011*%
%ADD43R,0.0234X0.0011*%
%ADD44R,0.0178X0.0011*%
%ADD45R,0.0177X0.0011*%
%ADD46R,0.0233X0.0011*%
%ADD47R,0.0223X0.0011*%
%ADD48R,0.0144X0.0011*%
%ADD49R,0.0145X0.0011*%
%ADD50R,0.0222X0.0011*%
%ADD51R,0.0211X0.0011*%
%ADD52R,0.0134X0.0011*%
%ADD53R,0.0133X0.0011*%
%ADD54R,0.0111X0.0011*%
%ADD55R,0.0111X0.0011*%
%ADD56R,0.0212X0.0011*%
%ADD57R,0.0211X0.0011*%
%ADD58R,0.0100X0.0011*%
%ADD59R,0.0211X0.0011*%
%ADD60R,0.0200X0.0011*%
%ADD61R,0.0100X0.0011*%
%ADD62R,0.0189X0.0011*%
%ADD63R,0.0189X0.0011*%
%ADD64R,0.0089X0.0011*%
%ADD65R,0.0089X0.0011*%
%ADD66R,0.0178X0.0011*%
%ADD67R,0.0188X0.0011*%
%ADD68R,0.0078X0.0011*%
%ADD69R,0.0077X0.0011*%
%ADD70R,0.0078X0.0011*%
%ADD71R,0.0167X0.0011*%
%ADD72R,0.0067X0.0011*%
%ADD73R,0.0167X0.0011*%
%ADD74R,0.0067X0.0011*%
%ADD75R,0.0066X0.0011*%
%ADD76R,0.0166X0.0011*%
%ADD77R,0.0167X0.0011*%
%ADD78R,0.0067X0.0011*%
%ADD79R,0.0166X0.0011*%
%ADD80R,0.0066X0.0011*%
%ADD81R,0.0155X0.0011*%
%ADD82R,0.0156X0.0011*%
%ADD83R,0.0056X0.0011*%
%ADD84R,0.0055X0.0011*%
%ADD85R,0.0066X0.0011*%
%ADD86R,0.0156X0.0011*%
%ADD87R,0.0056X0.0011*%
%ADD88R,0.0144X0.0011*%
%ADD89R,0.0156X0.0011*%
%ADD90R,0.0055X0.0011*%
%ADD91R,0.0056X0.0011*%
%ADD92R,0.0045X0.0011*%
%ADD93R,0.0044X0.0011*%
%ADD94R,0.0134X0.0011*%
%ADD95R,0.0044X0.0011*%
%ADD96R,0.0133X0.0011*%
%ADD97R,0.0133X0.0011*%
%ADD98R,0.0134X0.0011*%
%ADD99R,0.0122X0.0011*%
%ADD100R,0.0122X0.0011*%
%ADD101R,0.0045X0.0011*%
%ADD102R,0.0044X0.0011*%
%ADD103R,0.0123X0.0011*%
%ADD104R,0.0122X0.0011*%
%ADD105R,0.0033X0.0011*%
%ADD106R,0.0034X0.0011*%
%ADD107R,0.0034X0.0011*%
%ADD108R,0.0111X0.0011*%
%ADD109R,0.0044X0.0011*%
%ADD110R,0.0033X0.0011*%
%ADD111R,0.0112X0.0011*%
%ADD112R,0.0111X0.0011*%
%ADD113R,0.0378X0.0011*%
%ADD114R,0.0178X0.0011*%
%ADD115R,0.0112X0.0011*%
%ADD116R,0.0466X0.0011*%
%ADD117R,0.0222X0.0011*%
%ADD118R,0.0534X0.0011*%
%ADD119R,0.0255X0.0011*%
%ADD120R,0.0589X0.0011*%
%ADD121R,0.0289X0.0011*%
%ADD122R,0.0633X0.0011*%
%ADD123R,0.0311X0.0011*%
%ADD124R,0.0677X0.0011*%
%ADD125R,0.0345X0.0011*%
%ADD126R,0.0723X0.0011*%
%ADD127R,0.0367X0.0011*%
%ADD128R,0.0756X0.0011*%
%ADD129R,0.0789X0.0011*%
%ADD130R,0.0411X0.0011*%
%ADD131R,0.0822X0.0011*%
%ADD132R,0.0433X0.0011*%
%ADD133R,0.0855X0.0011*%
%ADD134R,0.0433X0.0011*%
%ADD135R,0.0877X0.0011*%
%ADD136R,0.0455X0.0011*%
%ADD137R,0.0900X0.0011*%
%ADD138R,0.0934X0.0011*%
%ADD139R,0.0489X0.0011*%
%ADD140R,0.0956X0.0011*%
%ADD141R,0.0511X0.0011*%
%ADD142R,0.0978X0.0011*%
%ADD143R,0.0989X0.0011*%
%ADD144R,0.0523X0.0011*%
%ADD145R,0.1011X0.0011*%
%ADD146R,0.0534X0.0011*%
%ADD147R,0.0033X0.0011*%
%ADD148R,0.1033X0.0011*%
%ADD149R,0.0523X0.0011*%
%ADD150R,0.0034X0.0011*%
%ADD151R,0.1044X0.0011*%
%ADD152R,0.0500X0.0011*%
%ADD153R,0.0567X0.0011*%
%ADD154R,0.0378X0.0011*%
%ADD155R,0.0478X0.0011*%
%ADD156R,0.0334X0.0011*%
%ADD157R,0.0456X0.0011*%
%ADD158R,0.0489X0.0011*%
%ADD159R,0.0444X0.0011*%
%ADD160R,0.0722X0.0011*%
%ADD161R,0.0689X0.0011*%
%ADD162R,0.0656X0.0011*%
%ADD163R,0.0433X0.0011*%
%ADD164R,0.0622X0.0011*%
%ADD165R,0.0034X0.0011*%
%ADD166R,0.0411X0.0011*%
%ADD167R,0.0589X0.0011*%
%ADD168R,0.0022X0.0011*%
%ADD169R,0.0400X0.0011*%
%ADD170R,0.0567X0.0011*%
%ADD171R,0.0545X0.0011*%
%ADD172R,0.0477X0.0011*%
%ADD173R,0.0466X0.0011*%
%ADD174R,0.0088X0.0011*%
%ADD175R,0.0367X0.0011*%
%ADD176R,0.0033X0.0011*%
%ADD177R,0.0422X0.0011*%
%ADD178R,0.0411X0.0011*%
%ADD179R,0.0022X0.0011*%
%ADD180R,0.0023X0.0011*%
%ADD181R,0.0356X0.0011*%
%ADD182R,0.0356X0.0011*%
%ADD183R,0.0344X0.0011*%
%ADD184R,0.0344X0.0011*%
%ADD185R,0.0333X0.0011*%
%ADD186R,0.0089X0.0011*%
%ADD187R,0.0355X0.0011*%
%ADD188R,0.0333X0.0011*%
%ADD189R,0.0088X0.0011*%
%ADD190R,0.0366X0.0011*%
%ADD191R,0.0366X0.0011*%
%ADD192R,0.0022X0.0011*%
%ADD193R,0.0089X0.0011*%
%ADD194R,0.0412X0.0011*%
%ADD195R,0.0422X0.0011*%
%ADD196R,0.0444X0.0011*%
%ADD197R,0.0456X0.0011*%
%ADD198R,0.0467X0.0011*%
%ADD199R,0.0544X0.0011*%
%ADD200R,0.0556X0.0011*%
%ADD201R,0.0589X0.0011*%
%ADD202R,0.0623X0.0011*%
%ADD203R,0.1111X0.0011*%
%ADD204R,0.1056X0.0011*%
%ADD205R,0.1033X0.0011*%
%ADD206R,0.1000X0.0011*%
%ADD207R,0.0967X0.0011*%
%ADD208R,0.0933X0.0011*%
%ADD209R,0.0900X0.0011*%
%ADD210R,0.0867X0.0011*%
%ADD211R,0.0822X0.0011*%
%ADD212R,0.0778X0.0011*%
%ADD213R,0.0678X0.0011*%
%ADD214R,0.0444X0.0011*%
%ADD215R,0.0023X0.0011*%
%ADD216R,0.0166X0.0011*%
%ADD217R,0.0223X0.0011*%
%ADD218R,0.0345X0.0011*%
%ADD219R,0.0234X0.0011*%
%ADD220R,0.0244X0.0011*%
%ADD221R,0.0289X0.0011*%
%ADD222R,0.0311X0.0011*%
%ADD223R,0.0500X0.0011*%
%ADD224R,0.0578X0.0011*%
%ADD225R,0.1100X0.0011*%
%ADD226R,0.1078X0.0011*%
%ADD227R,0.1056X0.0011*%
%ADD228R,0.1045X0.0011*%
%ADD229R,0.1033X0.0011*%
%ADD230R,0.1011X0.0011*%
%ADD231R,0.1000X0.0011*%
%ADD232R,0.0934X0.0011*%
%ADD233R,0.0911X0.0011*%
%ADD234R,0.0889X0.0011*%
%ADD235R,0.0856X0.0011*%
%ADD236R,0.0823X0.0011*%
%ADD237R,0.0777X0.0011*%
%ADD238R,0.0689X0.0011*%
%ADD239R,0.0566X0.0011*%
%ADD240R,0.0377X0.0011*%
%ADD241R,0.0123X0.0011*%
%ADD242R,0.0145X0.0011*%
%ADD243R,0.0056X0.0011*%
%ADD244R,0.0144X0.0011*%
%ADD245R,0.0167X0.0011*%
%ADD246R,0.0078X0.0011*%
%ADD247R,0.0200X0.0011*%
%ADD248R,0.0256X0.0011*%
%ADD249R,0.0312X0.0011*%
%ADD250R,0.0344X0.0011*%
%ADD251R,0.0434X0.0011*%
%ADD252R,0.0800X0.0011*%
%ADD253R,0.0689X0.0011*%
%ADD254C,0.3000*%
%ADD255C,0.0197*%
%ADD256C,0.0278*%
%ADD257C,0.0079*%
%ADD258C,0.0098*%
D10*
X000996Y001587D02*
X025799Y001587D01*
X025799Y001586D02*
X025838Y001588D01*
X025876Y001594D01*
X025913Y001603D01*
X025950Y001616D01*
X025985Y001633D01*
X026018Y001652D01*
X026049Y001675D01*
X026078Y001701D01*
X026104Y001730D01*
X026127Y001761D01*
X026146Y001794D01*
X026163Y001829D01*
X026176Y001866D01*
X026185Y001903D01*
X026191Y001941D01*
X026193Y001980D01*
X026192Y001980D02*
X026192Y013595D01*
X026190Y013661D01*
X026185Y013727D01*
X026175Y013793D01*
X026162Y013858D01*
X026146Y013922D01*
X026126Y013985D01*
X026102Y014047D01*
X026075Y014107D01*
X026045Y014166D01*
X026011Y014223D01*
X025974Y014278D01*
X025934Y014331D01*
X025892Y014382D01*
X025846Y014430D01*
X025798Y014476D01*
X025747Y014518D01*
X025694Y014558D01*
X025639Y014595D01*
X025582Y014629D01*
X025523Y014659D01*
X025463Y014686D01*
X025401Y014710D01*
X025338Y014730D01*
X025274Y014746D01*
X025209Y014759D01*
X025143Y014769D01*
X025077Y014774D01*
X025011Y014776D01*
X001783Y014776D01*
X001717Y014774D01*
X001651Y014769D01*
X001585Y014759D01*
X001520Y014746D01*
X001456Y014730D01*
X001393Y014710D01*
X001331Y014686D01*
X001271Y014659D01*
X001212Y014629D01*
X001155Y014595D01*
X001100Y014558D01*
X001047Y014518D01*
X000996Y014476D01*
X000948Y014430D01*
X000902Y014382D01*
X000860Y014331D01*
X000820Y014278D01*
X000783Y014223D01*
X000749Y014166D01*
X000719Y014107D01*
X000692Y014047D01*
X000668Y013985D01*
X000648Y013922D01*
X000632Y013858D01*
X000619Y013793D01*
X000609Y013727D01*
X000604Y013661D01*
X000602Y013595D01*
X000602Y001980D01*
X000604Y001941D01*
X000610Y001903D01*
X000619Y001866D01*
X000632Y001829D01*
X000649Y001794D01*
X000668Y001761D01*
X000691Y001730D01*
X000717Y001701D01*
X000746Y001675D01*
X000777Y001652D01*
X000810Y001633D01*
X000845Y001616D01*
X000882Y001603D01*
X000919Y001594D01*
X000957Y001588D01*
X000996Y001586D01*
D11*
X006799Y007902D03*
D12*
X007799Y007902D03*
X008799Y007902D03*
X009799Y007902D03*
X010799Y007902D03*
X011799Y007902D03*
X012799Y007902D03*
X013799Y007902D03*
X014799Y007902D03*
X015799Y007902D03*
X016799Y007902D03*
X017799Y007902D03*
X018799Y007902D03*
X019799Y007902D03*
X019799Y008902D03*
X019799Y009902D03*
X019799Y010902D03*
X019799Y012902D03*
X019799Y013902D03*
X018799Y013902D03*
X017799Y013902D03*
X016799Y013902D03*
X015799Y013902D03*
X014799Y013902D03*
X013799Y013902D03*
X012799Y013902D03*
X011799Y013902D03*
X010799Y013902D03*
X009799Y013902D03*
X008799Y013902D03*
X007799Y013902D03*
X006799Y013902D03*
D13*
X015129Y009697D03*
X015799Y009697D03*
X015799Y009126D03*
X015129Y009126D03*
X014578Y006843D03*
X014578Y006173D03*
X014578Y005268D03*
X014578Y004599D03*
X012216Y004599D03*
X012216Y005268D03*
X009559Y006173D03*
X009559Y006843D03*
X019106Y010209D03*
X019106Y010878D03*
X025602Y008417D03*
X025602Y007748D03*
D14*
X018417Y010268D03*
X018417Y011016D03*
X024547Y012067D03*
X024547Y012815D03*
D15*
X023240Y003752D03*
X014480Y003752D03*
X009362Y003752D03*
X001685Y003752D03*
D16*
X002669Y003752D03*
X010346Y003752D03*
X011330Y003752D03*
X012314Y003752D03*
X015464Y003752D03*
X016448Y003752D03*
X017433Y003752D03*
X024224Y003752D03*
X025208Y003752D03*
D17*
X016706Y004756D03*
X016206Y004756D03*
X015706Y004756D03*
X015206Y004756D03*
X015206Y006882D03*
X015706Y006882D03*
X016206Y006882D03*
X016706Y006882D03*
X011588Y006784D03*
X011088Y006784D03*
X010588Y006784D03*
X010088Y006784D03*
X010088Y004658D03*
X010588Y004658D03*
X011088Y004658D03*
X011588Y004658D03*
D18*
X020996Y007362D03*
X020996Y007862D03*
X020996Y008362D03*
X020996Y008862D03*
X020996Y009362D03*
X020996Y009862D03*
X020996Y010362D03*
X020996Y010862D03*
X024696Y010862D03*
X024696Y010362D03*
X024696Y009862D03*
X024696Y009362D03*
X024696Y008862D03*
X024696Y008362D03*
X024696Y007862D03*
X024696Y007362D03*
D19*
X023417Y011664D03*
X023417Y012164D03*
X023417Y012664D03*
X023417Y013164D03*
X021291Y013164D03*
X021291Y012664D03*
X021291Y012164D03*
X021291Y011664D03*
D20*
X022078Y013890D03*
X022826Y013890D03*
D21*
X006156Y008896D03*
X006156Y008740D03*
D22*
X006156Y008751D03*
X006156Y008907D03*
X006689Y009907D03*
X006511Y010529D03*
X005789Y010762D03*
D23*
X006156Y008918D03*
X006156Y008762D03*
D24*
X006156Y008773D03*
D25*
X006156Y008785D03*
D26*
X006156Y008796D03*
D27*
X006156Y008807D03*
D28*
X006156Y008818D03*
X006078Y010607D03*
X006189Y011307D03*
D29*
X006562Y010507D03*
X005517Y009807D03*
X005817Y008829D03*
X006495Y008829D03*
D30*
X006572Y008840D03*
X005517Y009751D03*
X005717Y010107D03*
X005717Y010118D03*
X006717Y010396D03*
X006795Y010029D03*
X006795Y010018D03*
X005772Y011196D03*
D31*
X006728Y010385D03*
X005739Y008840D03*
D32*
X006623Y008851D03*
X006823Y010140D03*
X006823Y010151D03*
X006823Y010162D03*
X006823Y010185D03*
X006823Y010196D03*
X005723Y011085D03*
X005723Y011096D03*
D33*
X006778Y010318D03*
X006789Y010296D03*
X006800Y010262D03*
X005689Y008851D03*
D34*
X005645Y008862D03*
X006667Y008862D03*
D35*
X006706Y008873D03*
X005606Y008873D03*
D36*
X006739Y008885D03*
D37*
X005573Y008885D03*
X006451Y009662D03*
X006617Y011240D03*
X006606Y011251D03*
X006751Y012151D03*
X006717Y012162D03*
X005595Y012162D03*
X005562Y012151D03*
D38*
X006767Y008896D03*
D39*
X005545Y008896D03*
X006623Y011218D03*
X006623Y011229D03*
D40*
X005500Y012129D03*
X006800Y008907D03*
D41*
X005512Y008907D03*
X006656Y011140D03*
X006656Y011151D03*
X006812Y012129D03*
D42*
X006839Y012118D03*
X005450Y012107D03*
X006850Y008929D03*
X006828Y008918D03*
D43*
X005484Y008918D03*
D44*
X006434Y008929D03*
X005234Y011996D03*
D45*
X007078Y011996D03*
X007089Y009051D03*
X005878Y008929D03*
D46*
X005461Y008929D03*
X006661Y011118D03*
X006661Y011129D03*
X006861Y012107D03*
D47*
X006889Y012096D03*
X006378Y012118D03*
X006678Y011085D03*
X006878Y008940D03*
D48*
X006495Y008940D03*
X007273Y009185D03*
X007295Y009207D03*
X005073Y009162D03*
X004973Y011796D03*
X005795Y012096D03*
X007273Y011851D03*
D49*
X007339Y011796D03*
X007350Y011785D03*
X006517Y012096D03*
X005050Y011862D03*
X005039Y011851D03*
X005028Y011840D03*
X005017Y009207D03*
X005028Y009196D03*
X005039Y009185D03*
X005817Y008940D03*
X007228Y009151D03*
X007239Y009162D03*
D50*
X005434Y008940D03*
X005934Y012118D03*
D51*
X005406Y008951D03*
X006906Y008951D03*
X006928Y008962D03*
D52*
X006545Y008951D03*
X007323Y009229D03*
X007345Y009251D03*
X007423Y009329D03*
X007445Y009351D03*
X004923Y009296D03*
X007323Y011807D03*
D53*
X007300Y011829D03*
X005000Y011818D03*
X004989Y011807D03*
X004867Y009351D03*
X004878Y009340D03*
X004889Y009329D03*
X004900Y009318D03*
X004967Y009251D03*
X004978Y009240D03*
X004989Y009229D03*
X005767Y008951D03*
X007378Y009285D03*
X007389Y009296D03*
X007400Y009307D03*
D54*
X007511Y009429D03*
X007556Y009485D03*
X007578Y009518D03*
X007589Y009529D03*
X007589Y009540D03*
X007611Y009562D03*
X007656Y009640D03*
X007689Y009696D03*
X007711Y009740D03*
X006589Y008962D03*
X004756Y009485D03*
X004711Y009551D03*
X004689Y009585D03*
X004678Y009596D03*
X004678Y009607D03*
X004656Y009640D03*
X004611Y009718D03*
X004589Y009762D03*
X004578Y009785D03*
X006678Y011007D03*
X007578Y011518D03*
X007589Y011507D03*
X007556Y011551D03*
X007656Y011407D03*
X007678Y011362D03*
X007689Y011340D03*
X007756Y011207D03*
X004789Y011596D03*
X004778Y011585D03*
X004756Y011551D03*
X004711Y011496D03*
X004711Y011485D03*
X004689Y011462D03*
X004689Y011451D03*
X004678Y011440D03*
X004656Y011407D03*
X004611Y011318D03*
X004556Y011207D03*
D55*
X004567Y011229D03*
X004622Y011340D03*
X004645Y011385D03*
X004667Y011418D03*
X004722Y011507D03*
X004745Y011540D03*
X007522Y011596D03*
X007567Y011540D03*
X007600Y011496D03*
X007600Y011485D03*
X007622Y011462D03*
X007622Y011451D03*
X007645Y011418D03*
X007667Y011385D03*
X007700Y011318D03*
X007745Y011229D03*
X007722Y009762D03*
X007700Y009718D03*
X007667Y009662D03*
X007667Y009651D03*
X007645Y009618D03*
X007622Y009585D03*
X007600Y009551D03*
X007567Y009507D03*
X005722Y008962D03*
X004800Y009429D03*
X004745Y009507D03*
X004722Y009529D03*
X004722Y009540D03*
X004700Y009562D03*
X004667Y009618D03*
X004645Y009651D03*
X004645Y009662D03*
X004622Y009696D03*
X004600Y009740D03*
D56*
X005384Y008962D03*
X006684Y011062D03*
D57*
X006950Y008973D03*
D58*
X006628Y008973D03*
X005684Y008973D03*
X004584Y009773D03*
X004540Y009873D03*
X004506Y009973D03*
X004473Y010073D03*
X004451Y010173D03*
X004417Y010473D03*
X004417Y010573D03*
X004451Y010873D03*
X004473Y010973D03*
X004506Y011073D03*
X004540Y011173D03*
X004584Y011273D03*
X004640Y011373D03*
X007673Y011373D03*
X007728Y011273D03*
X007773Y011173D03*
X007806Y011073D03*
X007840Y010973D03*
X007862Y010873D03*
X007895Y010573D03*
X007895Y010473D03*
X007862Y010173D03*
X007840Y010073D03*
X007806Y009973D03*
X007773Y009873D03*
X007728Y009773D03*
D59*
X005361Y008973D03*
D60*
X005345Y008985D03*
X006967Y008985D03*
X006678Y011051D03*
X007001Y012040D03*
X006978Y012051D03*
X006956Y012062D03*
X005356Y012062D03*
X005334Y012051D03*
X005312Y012040D03*
D61*
X005606Y012040D03*
X005640Y012051D03*
X005673Y012062D03*
X006640Y012062D03*
X006673Y012051D03*
X006706Y012040D03*
X007640Y011429D03*
X007662Y011396D03*
X007684Y011351D03*
X007695Y011329D03*
X007706Y011307D03*
X007717Y011296D03*
X007717Y011285D03*
X007728Y011262D03*
X007740Y011251D03*
X007740Y011240D03*
X007751Y011218D03*
X007762Y011196D03*
X007762Y011185D03*
X007773Y011162D03*
X007773Y011151D03*
X007784Y011140D03*
X007784Y011129D03*
X007795Y011118D03*
X007795Y011107D03*
X007795Y011096D03*
X007806Y011085D03*
X007806Y011062D03*
X007817Y011051D03*
X007817Y011040D03*
X007817Y011029D03*
X007828Y011007D03*
X007828Y010996D03*
X007840Y010962D03*
X007840Y010951D03*
X007851Y010929D03*
X007851Y010918D03*
X007851Y010907D03*
X007862Y010885D03*
X007862Y010862D03*
X007873Y010818D03*
X007873Y010807D03*
X007873Y010796D03*
X007884Y010751D03*
X007884Y010740D03*
X007884Y010729D03*
X007884Y010718D03*
X007895Y010640D03*
X007895Y010629D03*
X007895Y010618D03*
X007895Y010607D03*
X007895Y010596D03*
X007895Y010585D03*
X007895Y010562D03*
X007895Y010551D03*
X007895Y010540D03*
X007895Y010529D03*
X007895Y010518D03*
X007895Y010507D03*
X007895Y010496D03*
X007895Y010485D03*
X007895Y010462D03*
X007895Y010451D03*
X007895Y010440D03*
X007895Y010429D03*
X007895Y010418D03*
X007895Y010407D03*
X007884Y010318D03*
X007884Y010307D03*
X007884Y010296D03*
X007873Y010240D03*
X007873Y010229D03*
X007873Y010218D03*
X007862Y010185D03*
X007862Y010162D03*
X007851Y010129D03*
X007851Y010118D03*
X007840Y010085D03*
X007840Y010062D03*
X007828Y010040D03*
X007828Y010029D03*
X007817Y010007D03*
X007817Y009996D03*
X007806Y009962D03*
X007795Y009940D03*
X007795Y009929D03*
X007784Y009907D03*
X007784Y009896D03*
X007773Y009885D03*
X007773Y009862D03*
X007762Y009851D03*
X007762Y009840D03*
X007751Y009829D03*
X007751Y009818D03*
X007740Y009807D03*
X007740Y009796D03*
X007717Y009751D03*
X007706Y009729D03*
X007695Y009707D03*
X007684Y009685D03*
X007651Y009629D03*
X006695Y008996D03*
X006662Y008985D03*
X005651Y008985D03*
X005617Y008996D03*
X004662Y009629D03*
X004628Y009685D03*
X004617Y009707D03*
X004606Y009729D03*
X004595Y009751D03*
X004573Y009796D03*
X004573Y009807D03*
X004562Y009818D03*
X004562Y009829D03*
X004551Y009840D03*
X004551Y009851D03*
X004540Y009862D03*
X004540Y009885D03*
X004528Y009896D03*
X004528Y009907D03*
X004517Y009929D03*
X004517Y009940D03*
X004506Y009962D03*
X004495Y009996D03*
X004495Y010007D03*
X004484Y010029D03*
X004484Y010040D03*
X004473Y010062D03*
X004473Y010085D03*
X004462Y010118D03*
X004462Y010129D03*
X004451Y010162D03*
X004451Y010185D03*
X004440Y010218D03*
X004440Y010229D03*
X004440Y010240D03*
X004428Y010296D03*
X004428Y010307D03*
X004428Y010318D03*
X004417Y010407D03*
X004417Y010418D03*
X004417Y010429D03*
X004417Y010440D03*
X004417Y010451D03*
X004417Y010462D03*
X004417Y010485D03*
X004417Y010496D03*
X004417Y010507D03*
X004417Y010518D03*
X004417Y010529D03*
X004417Y010540D03*
X004417Y010551D03*
X004417Y010562D03*
X004417Y010585D03*
X004417Y010596D03*
X004417Y010607D03*
X004417Y010618D03*
X004417Y010629D03*
X004417Y010640D03*
X004428Y010718D03*
X004428Y010729D03*
X004428Y010740D03*
X004428Y010751D03*
X004440Y010796D03*
X004440Y010807D03*
X004440Y010818D03*
X004451Y010862D03*
X004451Y010885D03*
X004462Y010907D03*
X004462Y010918D03*
X004462Y010929D03*
X004473Y010951D03*
X004473Y010962D03*
X004484Y010996D03*
X004484Y011007D03*
X004495Y011029D03*
X004495Y011040D03*
X004495Y011051D03*
X004506Y011062D03*
X004506Y011085D03*
X004517Y011096D03*
X004517Y011107D03*
X004517Y011118D03*
X004528Y011129D03*
X004528Y011140D03*
X004540Y011151D03*
X004540Y011162D03*
X004551Y011185D03*
X004551Y011196D03*
X004562Y011218D03*
X004573Y011240D03*
X004573Y011251D03*
X004584Y011262D03*
X004595Y011285D03*
X004595Y011296D03*
X004606Y011307D03*
X004617Y011329D03*
X004628Y011351D03*
X004651Y011396D03*
X004673Y011429D03*
D62*
X005272Y012018D03*
X005295Y012029D03*
X007017Y012029D03*
X007050Y009029D03*
X006995Y008996D03*
X005317Y008996D03*
D63*
X005261Y009029D03*
X007006Y009007D03*
X007028Y009018D03*
X007039Y012018D03*
D64*
X005545Y012018D03*
X004467Y010940D03*
X004445Y010851D03*
X004445Y010840D03*
X004445Y010829D03*
X004422Y010707D03*
X004422Y010696D03*
X004422Y010685D03*
X004422Y010662D03*
X004422Y010651D03*
X004422Y010396D03*
X004422Y010385D03*
X004422Y010362D03*
X004422Y010351D03*
X004422Y010340D03*
X004422Y010329D03*
X004445Y010207D03*
X004445Y010196D03*
X004467Y010107D03*
X004467Y010096D03*
X004500Y009985D03*
X004522Y009918D03*
X006722Y009007D03*
X007800Y009951D03*
X007822Y010018D03*
X007845Y010096D03*
X007845Y010107D03*
X007867Y010196D03*
X007867Y010207D03*
X007867Y010829D03*
X007867Y010840D03*
X007867Y010851D03*
X007845Y010940D03*
X007822Y011018D03*
D65*
X007856Y010896D03*
X007878Y010785D03*
X007878Y010762D03*
X007889Y010707D03*
X007889Y010696D03*
X007889Y010685D03*
X007889Y010662D03*
X007889Y010651D03*
X007889Y010396D03*
X007889Y010385D03*
X007889Y010362D03*
X007889Y010351D03*
X007889Y010340D03*
X007889Y010329D03*
X007878Y010285D03*
X007878Y010262D03*
X007878Y010251D03*
X007856Y010151D03*
X007856Y010140D03*
X007811Y009985D03*
X007789Y009918D03*
X006756Y009018D03*
X005589Y009007D03*
X005556Y009018D03*
X004511Y009951D03*
X004489Y010018D03*
X004478Y010051D03*
X004456Y010140D03*
X004456Y010151D03*
X004456Y010896D03*
X004478Y010985D03*
X004489Y011018D03*
X005578Y012029D03*
X006156Y012307D03*
D66*
X005856Y012107D03*
X005256Y012007D03*
X007056Y012007D03*
X007067Y009040D03*
X005301Y009007D03*
X005245Y009040D03*
X005223Y009051D03*
D67*
X005284Y009018D03*
X006684Y011040D03*
D68*
X006784Y009029D03*
X005484Y009051D03*
D69*
X005528Y009029D03*
X006828Y009051D03*
X006839Y011985D03*
D70*
X006817Y011996D03*
X006795Y012007D03*
X006762Y012018D03*
X005517Y012007D03*
X005495Y011996D03*
X005473Y011985D03*
X005506Y009040D03*
X006806Y009040D03*
D71*
X007106Y009062D03*
X005206Y009062D03*
X005161Y009096D03*
X007161Y011940D03*
X006461Y012107D03*
D72*
X006911Y011951D03*
X005411Y009085D03*
X005456Y009062D03*
X006856Y009062D03*
D73*
X007117Y009073D03*
D74*
X006878Y009073D03*
D75*
X005434Y009073D03*
D76*
X005195Y009073D03*
D77*
X007139Y009085D03*
X007150Y009096D03*
X007139Y011951D03*
X007128Y011962D03*
X005217Y011985D03*
X005150Y011940D03*
D78*
X005289Y011885D03*
X005400Y011951D03*
X006889Y011962D03*
X006967Y011918D03*
X006989Y011907D03*
X006978Y009129D03*
X006900Y009085D03*
X005389Y009096D03*
X005367Y009107D03*
X005278Y009162D03*
D79*
X005173Y009085D03*
X005173Y011951D03*
X007095Y011985D03*
D80*
X007023Y011885D03*
X005423Y011962D03*
X005345Y011918D03*
X005323Y011907D03*
X006923Y009096D03*
X006945Y009107D03*
D81*
X007167Y009107D03*
X007189Y009118D03*
X007200Y009129D03*
X005100Y009140D03*
X005078Y011885D03*
X005089Y011896D03*
X007178Y011929D03*
X007189Y011918D03*
X007200Y011907D03*
D82*
X007223Y011896D03*
X005123Y011918D03*
X005123Y009118D03*
X005145Y009107D03*
D83*
X005184Y009229D03*
X006962Y009118D03*
X007084Y009196D03*
X007284Y009362D03*
X007162Y011785D03*
X007106Y011829D03*
X007062Y011862D03*
X007006Y011896D03*
X005384Y011940D03*
X005362Y011929D03*
X005306Y011896D03*
X005206Y011829D03*
X005162Y011796D03*
X005084Y011729D03*
D84*
X005150Y011785D03*
X005239Y011851D03*
X005250Y011862D03*
X006928Y011940D03*
X006950Y011929D03*
X007117Y011818D03*
X007150Y011796D03*
X007217Y011740D03*
X007228Y011729D03*
X007128Y009229D03*
X007117Y009218D03*
X007017Y009151D03*
X005350Y009118D03*
X005317Y009140D03*
X005228Y009196D03*
X005217Y009207D03*
X005139Y009262D03*
X005039Y009351D03*
X005028Y009362D03*
D85*
X005334Y009129D03*
X007034Y009162D03*
D86*
X007212Y009140D03*
X005112Y009129D03*
X005112Y011907D03*
X005134Y011929D03*
X006156Y012151D03*
X007234Y011885D03*
D87*
X007073Y011851D03*
X005195Y011818D03*
X005095Y011740D03*
X007273Y009351D03*
X007173Y009262D03*
X007095Y009207D03*
X006995Y009140D03*
X005295Y009151D03*
X005195Y009218D03*
D88*
X005084Y009151D03*
X005006Y009218D03*
X007284Y009196D03*
X007306Y009218D03*
X006684Y011018D03*
X007284Y011840D03*
X007262Y011862D03*
X004962Y011785D03*
D89*
X005056Y009173D03*
X007256Y009173D03*
D90*
X007050Y009173D03*
X005128Y009273D03*
X007039Y011873D03*
D91*
X007184Y009273D03*
X005262Y009173D03*
D92*
X005167Y009240D03*
X005100Y009296D03*
X005089Y009307D03*
X005078Y009318D03*
X005067Y009329D03*
X005000Y009385D03*
X004978Y009418D03*
X004967Y009429D03*
X004889Y009518D03*
X004878Y009529D03*
X004867Y009540D03*
X004800Y009640D03*
X004689Y009840D03*
X004678Y009862D03*
X004667Y011151D03*
X004789Y011385D03*
X004867Y011496D03*
X004878Y011507D03*
X004900Y011540D03*
X004967Y011618D03*
X004978Y011629D03*
X004989Y011640D03*
X005000Y011651D03*
X005067Y011718D03*
X005178Y011807D03*
X007089Y011840D03*
X007189Y011762D03*
X007200Y011751D03*
X007267Y011696D03*
X007278Y011685D03*
X007300Y011662D03*
X007389Y011562D03*
X007400Y011551D03*
X007467Y011462D03*
X007478Y011451D03*
X007500Y011418D03*
X007667Y011096D03*
X007578Y009751D03*
X007567Y009729D03*
X007489Y009607D03*
X007400Y009485D03*
X007378Y009462D03*
X007367Y009451D03*
X007200Y009285D03*
X007067Y009185D03*
D93*
X007145Y009240D03*
X007223Y009307D03*
X007245Y009329D03*
X007345Y009429D03*
X007423Y009518D03*
X007445Y009540D03*
X007623Y009840D03*
X007645Y011151D03*
X007523Y011385D03*
X007445Y011496D03*
X007345Y011618D03*
X007323Y011640D03*
X007245Y011718D03*
X005223Y011840D03*
X005123Y011762D03*
X005045Y011696D03*
X004923Y011562D03*
X004845Y011462D03*
X004645Y011096D03*
X004745Y009729D03*
X004823Y009607D03*
X004945Y009451D03*
X005245Y009185D03*
D94*
X004934Y009285D03*
X007334Y009240D03*
X007434Y009340D03*
X004934Y011762D03*
D95*
X005034Y011685D03*
X005056Y011707D03*
X005012Y011662D03*
X004956Y011607D03*
X004912Y011551D03*
X004856Y011485D03*
X004834Y011451D03*
X004812Y011418D03*
X004756Y011329D03*
X005112Y011751D03*
X007134Y011807D03*
X007256Y011707D03*
X007312Y011651D03*
X007334Y011629D03*
X007356Y011607D03*
X007412Y011540D03*
X007434Y011507D03*
X007456Y011485D03*
X007556Y011329D03*
X007634Y009862D03*
X007512Y009640D03*
X007456Y009562D03*
X007434Y009529D03*
X007356Y009440D03*
X007334Y009418D03*
X007312Y009385D03*
X007256Y009340D03*
X007234Y009318D03*
X007212Y009296D03*
X007156Y009251D03*
X005156Y009251D03*
X005112Y009285D03*
X005056Y009340D03*
X004956Y009440D03*
X004934Y009462D03*
X004912Y009485D03*
X004856Y009562D03*
X004734Y009751D03*
D96*
X005511Y009662D03*
X004956Y009262D03*
X004911Y009307D03*
X007356Y009262D03*
X007411Y009318D03*
X007311Y011818D03*
X005011Y011829D03*
D97*
X007367Y011773D03*
X007367Y009273D03*
D98*
X004945Y009273D03*
D99*
X004862Y009362D03*
X004817Y009407D03*
X004806Y009418D03*
X004795Y009440D03*
X004773Y009462D03*
X004751Y009496D03*
X007451Y009362D03*
X007473Y009385D03*
X007495Y009407D03*
X007506Y009418D03*
X007517Y009440D03*
X007562Y009496D03*
X007573Y011529D03*
X007551Y011562D03*
X007517Y011607D03*
X007506Y011618D03*
X007495Y011629D03*
X007473Y011651D03*
X007473Y011662D03*
X007451Y011685D03*
X007417Y011718D03*
X007406Y011729D03*
X007395Y011740D03*
X007373Y011762D03*
X006562Y012085D03*
X005751Y012085D03*
X004917Y011740D03*
X004906Y011729D03*
X004895Y011718D03*
X004873Y011696D03*
X004862Y011685D03*
X004817Y011629D03*
X004806Y011618D03*
X004795Y011607D03*
X004762Y011562D03*
D100*
X004773Y011573D03*
X004851Y011673D03*
X007462Y011673D03*
X007462Y009373D03*
X004851Y009373D03*
D101*
X004778Y009673D03*
X007300Y009373D03*
X007389Y009473D03*
X007467Y009573D03*
X007589Y009773D03*
X007378Y011573D03*
X007289Y011673D03*
X007178Y011773D03*
D102*
X005134Y011773D03*
X004934Y011573D03*
X007534Y009673D03*
X005012Y009373D03*
D103*
X004839Y009385D03*
X004828Y009396D03*
X007528Y009451D03*
X007539Y009462D03*
X004839Y011651D03*
X004839Y011662D03*
X004828Y011640D03*
X004739Y011529D03*
X004928Y011751D03*
X007428Y011707D03*
X007439Y011696D03*
D104*
X007484Y011640D03*
X007384Y011751D03*
X004884Y011707D03*
X004784Y009451D03*
X007484Y009396D03*
D105*
X007417Y009507D03*
X007450Y009551D03*
X007517Y009651D03*
X007528Y009662D03*
X007539Y009685D03*
X007550Y009696D03*
X007550Y009707D03*
X007617Y009818D03*
X007617Y009829D03*
X007628Y009851D03*
X007639Y009885D03*
X007650Y009896D03*
X007650Y009907D03*
X007717Y010085D03*
X007717Y010096D03*
X007717Y010107D03*
X007728Y010129D03*
X007728Y010140D03*
X007728Y010151D03*
X007728Y010162D03*
X007739Y010185D03*
X007739Y010196D03*
X007739Y010207D03*
X007750Y010229D03*
X007750Y010240D03*
X007750Y010251D03*
X007750Y010262D03*
X007750Y010785D03*
X007750Y010796D03*
X007750Y010807D03*
X007739Y010829D03*
X007739Y010840D03*
X007739Y010851D03*
X007739Y010862D03*
X007728Y010885D03*
X007728Y010896D03*
X007728Y010907D03*
X007728Y010918D03*
X007717Y010929D03*
X007717Y010940D03*
X007717Y010951D03*
X007650Y011129D03*
X007650Y011140D03*
X007639Y011162D03*
X007628Y011185D03*
X007628Y011196D03*
X007617Y011207D03*
X007617Y011218D03*
X007550Y011340D03*
X007539Y011351D03*
X007539Y011362D03*
X007517Y011396D03*
X007428Y011518D03*
X007417Y011529D03*
X004950Y011596D03*
X004939Y011585D03*
X004828Y011440D03*
X004817Y011429D03*
X004750Y011318D03*
X004739Y011307D03*
X004739Y011296D03*
X004728Y011285D03*
X004717Y011262D03*
X004717Y011251D03*
X004650Y011118D03*
X004650Y011107D03*
X004639Y011085D03*
X004628Y011062D03*
X004628Y011051D03*
X004628Y011040D03*
X004617Y011029D03*
X004617Y011018D03*
X004617Y011007D03*
X004550Y010740D03*
X004550Y010729D03*
X004550Y010718D03*
X004550Y010707D03*
X004550Y010696D03*
X004550Y010685D03*
X004539Y010640D03*
X004539Y010629D03*
X004539Y010618D03*
X004539Y010607D03*
X004539Y010596D03*
X004539Y010585D03*
X004539Y010562D03*
X004539Y010551D03*
X004539Y010540D03*
X004539Y010529D03*
X004539Y010518D03*
X004539Y010507D03*
X004539Y010496D03*
X004539Y010485D03*
X004539Y010462D03*
X004539Y010451D03*
X004539Y010440D03*
X004539Y010429D03*
X004539Y010418D03*
X004539Y010407D03*
X004539Y010396D03*
X004550Y010362D03*
X004550Y010351D03*
X004550Y010340D03*
X004550Y010329D03*
X004550Y010318D03*
X004550Y010307D03*
X004550Y010296D03*
X004617Y010029D03*
X004617Y010018D03*
X004617Y010007D03*
X004628Y009996D03*
X004628Y009985D03*
X004639Y009962D03*
X004639Y009951D03*
X004650Y009940D03*
X004650Y009929D03*
X004650Y009918D03*
X004717Y009785D03*
X004728Y009762D03*
X004739Y009740D03*
X004750Y009718D03*
X004817Y009618D03*
X004828Y009596D03*
X004839Y009585D03*
X007317Y009396D03*
X007328Y009407D03*
D106*
X007473Y009585D03*
X007495Y009618D03*
X007573Y009740D03*
X007595Y009785D03*
X007673Y009951D03*
X007673Y009962D03*
X007695Y010007D03*
X007695Y010018D03*
X007695Y010029D03*
X007773Y010396D03*
X007773Y010407D03*
X007773Y010418D03*
X007773Y010429D03*
X007773Y010440D03*
X007773Y010451D03*
X007773Y010462D03*
X007773Y010485D03*
X007773Y010496D03*
X007773Y010507D03*
X007773Y010518D03*
X007773Y010529D03*
X007773Y010540D03*
X007773Y010551D03*
X007773Y010562D03*
X007773Y010585D03*
X007773Y010596D03*
X007773Y010607D03*
X007773Y010618D03*
X007773Y010629D03*
X007773Y010640D03*
X007695Y011007D03*
X007695Y011018D03*
X007695Y011029D03*
X007673Y011085D03*
X007595Y011251D03*
X007595Y011262D03*
X007573Y011296D03*
X007573Y011307D03*
X007495Y011429D03*
X007373Y011585D03*
X004895Y011529D03*
X004795Y011396D03*
X004773Y011362D03*
X004773Y011351D03*
X004695Y011218D03*
X004695Y011207D03*
X004673Y011162D03*
X004595Y010951D03*
X004595Y010940D03*
X004595Y010929D03*
X004573Y010862D03*
X004573Y010851D03*
X004573Y010840D03*
X004573Y010829D03*
X004573Y010207D03*
X004573Y010196D03*
X004573Y010185D03*
X004595Y010107D03*
X004595Y010096D03*
X004595Y010085D03*
X004673Y009885D03*
X004695Y009829D03*
X004695Y009818D03*
X004773Y009685D03*
X004795Y009651D03*
X004895Y009507D03*
X004995Y009396D03*
D107*
X004984Y009407D03*
X004784Y009662D03*
X004684Y009851D03*
X004584Y010129D03*
X004584Y010140D03*
X004584Y010151D03*
X004584Y010162D03*
X004584Y010885D03*
X004584Y010896D03*
X004584Y010907D03*
X004584Y010918D03*
X004684Y011185D03*
X004684Y011196D03*
X004884Y011518D03*
X007484Y011440D03*
X007584Y011285D03*
X007684Y011062D03*
X007684Y011051D03*
X007684Y011040D03*
X007684Y009996D03*
X007684Y009985D03*
X007584Y009762D03*
X007484Y009596D03*
D108*
X007545Y009473D03*
X004767Y009473D03*
X004700Y009573D03*
X004700Y011473D03*
X006600Y012073D03*
D109*
X005023Y011673D03*
X004723Y009773D03*
X004845Y009573D03*
X004923Y009473D03*
D110*
X004906Y009496D03*
X004861Y009551D03*
X004806Y009629D03*
X004761Y009696D03*
X004761Y009707D03*
X004706Y009796D03*
X004706Y009807D03*
X004661Y009896D03*
X004661Y009907D03*
X004606Y010040D03*
X004606Y010051D03*
X004606Y010062D03*
X004561Y010229D03*
X004561Y010240D03*
X004561Y010251D03*
X004561Y010262D03*
X004561Y010785D03*
X004561Y010796D03*
X004561Y010807D03*
X004606Y010985D03*
X004606Y010996D03*
X004661Y011129D03*
X004661Y011140D03*
X004706Y011229D03*
X004706Y011240D03*
X004761Y011340D03*
X004806Y011407D03*
X007361Y011596D03*
X007506Y011407D03*
X007561Y011318D03*
X007606Y011240D03*
X007606Y011229D03*
X007661Y011118D03*
X007661Y011107D03*
X007706Y010996D03*
X007706Y010985D03*
X007761Y010740D03*
X007761Y010729D03*
X007761Y010718D03*
X007761Y010707D03*
X007761Y010696D03*
X007761Y010685D03*
X007761Y010362D03*
X007761Y010351D03*
X007761Y010340D03*
X007761Y010329D03*
X007761Y010318D03*
X007761Y010307D03*
X007761Y010296D03*
X007706Y010062D03*
X007706Y010051D03*
X007706Y010040D03*
X007661Y009940D03*
X007661Y009929D03*
X007661Y009918D03*
X007606Y009807D03*
X007606Y009796D03*
X007561Y009718D03*
X007506Y009629D03*
X007406Y009496D03*
D111*
X007634Y009596D03*
X007634Y009607D03*
X007734Y009785D03*
X007634Y011440D03*
X007534Y011585D03*
X004734Y011518D03*
X004634Y011362D03*
X004734Y009518D03*
D112*
X007611Y009573D03*
X007678Y009673D03*
X007611Y011473D03*
X005711Y012073D03*
D113*
X005756Y011173D03*
X006745Y010373D03*
X006812Y010073D03*
X006445Y009673D03*
D114*
X005512Y009673D03*
D115*
X004634Y009673D03*
D116*
X006445Y009685D03*
X005845Y011262D03*
D117*
X005423Y012096D03*
X005401Y012085D03*
X006912Y012085D03*
X005512Y009685D03*
D118*
X006445Y009696D03*
D119*
X005517Y009696D03*
X006650Y011162D03*
X006639Y011185D03*
X006639Y011196D03*
X006628Y011207D03*
X005528Y012140D03*
D120*
X006439Y009707D03*
D121*
X005511Y009707D03*
D122*
X006439Y009718D03*
D123*
X006011Y009918D03*
X005511Y009718D03*
D124*
X006439Y009729D03*
X006328Y010585D03*
D125*
X005717Y011051D03*
X005717Y011062D03*
X005728Y011107D03*
X006639Y012185D03*
X005517Y009729D03*
D126*
X006439Y009740D03*
D127*
X006817Y010085D03*
X006817Y010096D03*
X006817Y010107D03*
X006817Y010118D03*
X006817Y010129D03*
X006750Y010362D03*
X005750Y011151D03*
X005750Y011162D03*
X005739Y011140D03*
X006550Y011285D03*
X005717Y012196D03*
X005517Y009740D03*
D128*
X006434Y009751D03*
D129*
X006428Y009762D03*
D130*
X006672Y010440D03*
X005517Y009762D03*
D131*
X006434Y009773D03*
D132*
X005517Y009773D03*
D133*
X006428Y009785D03*
D134*
X006750Y009951D03*
X006639Y010462D03*
X005728Y010062D03*
X005517Y009785D03*
X005817Y011240D03*
X006528Y012207D03*
D135*
X006428Y009796D03*
D136*
X006728Y009929D03*
X006739Y009940D03*
X005517Y009796D03*
X005828Y011251D03*
D137*
X006428Y009807D03*
D138*
X006423Y009818D03*
D139*
X005522Y009818D03*
D140*
X006423Y009829D03*
X006223Y011396D03*
D141*
X005745Y010007D03*
X005522Y009840D03*
X005522Y009829D03*
D142*
X006423Y009840D03*
X006223Y011385D03*
X006156Y012240D03*
D143*
X006417Y009851D03*
D144*
X005528Y009851D03*
D145*
X006417Y009862D03*
D146*
X005534Y009862D03*
D147*
X004539Y010473D03*
X004539Y010573D03*
X004550Y010673D03*
X004639Y011073D03*
X004728Y011273D03*
X004850Y011473D03*
X007528Y011373D03*
X007639Y011173D03*
X007750Y010773D03*
X007750Y010273D03*
X007739Y010173D03*
X007639Y009873D03*
D148*
X006417Y009873D03*
D149*
X005539Y009873D03*
D150*
X004673Y009873D03*
X004573Y010173D03*
X004673Y011173D03*
X007673Y011073D03*
X007773Y010573D03*
X007773Y010473D03*
D151*
X006412Y009885D03*
X006156Y012229D03*
D152*
X006540Y010518D03*
X005740Y010018D03*
X005562Y009885D03*
D153*
X006661Y009896D03*
D154*
X006801Y010040D03*
X006812Y010062D03*
X006756Y010351D03*
X006067Y009896D03*
X005712Y010129D03*
X005712Y010140D03*
X005723Y010785D03*
X005767Y011185D03*
D155*
X005584Y009896D03*
D156*
X006034Y009907D03*
D157*
X005595Y009907D03*
D158*
X006711Y009918D03*
D159*
X005734Y010051D03*
X005612Y009918D03*
D160*
X005773Y009929D03*
X005895Y010718D03*
D161*
X005767Y009940D03*
D162*
X005762Y009951D03*
D163*
X006761Y009962D03*
D164*
X005756Y009962D03*
X005845Y010740D03*
D165*
X004784Y011373D03*
X007584Y011273D03*
X007684Y009973D03*
D166*
X006772Y009973D03*
D167*
X005750Y009973D03*
D168*
X004634Y009973D03*
X007734Y010873D03*
D169*
X006712Y010407D03*
X006701Y010418D03*
X006790Y010007D03*
X006778Y009996D03*
X006778Y009985D03*
X005723Y010096D03*
X005778Y011207D03*
X005790Y011218D03*
X006156Y012140D03*
X006156Y012296D03*
D170*
X005817Y010751D03*
X005750Y009985D03*
D171*
X005750Y009996D03*
D172*
X005739Y010029D03*
D173*
X005734Y010040D03*
D174*
X004434Y010251D03*
X004434Y010262D03*
X004434Y010285D03*
X004434Y010762D03*
X004434Y010785D03*
X006734Y012029D03*
X007834Y010985D03*
X007834Y010051D03*
D175*
X006806Y010051D03*
X006761Y010340D03*
D176*
X007706Y010073D03*
X007761Y010673D03*
X007706Y010973D03*
X007461Y011473D03*
X004606Y010973D03*
X004561Y010773D03*
X004561Y010273D03*
X004606Y010073D03*
D177*
X005723Y010073D03*
D178*
X005728Y010085D03*
D179*
X004567Y010218D03*
X004556Y010285D03*
X004545Y010385D03*
X004545Y010651D03*
X004545Y010662D03*
X004556Y010751D03*
X004556Y010762D03*
X004567Y010818D03*
X004601Y010962D03*
X007712Y010962D03*
X007745Y010818D03*
X007756Y010762D03*
X007756Y010751D03*
X007767Y010662D03*
X007767Y010651D03*
X007767Y010385D03*
X007756Y010285D03*
X007745Y010218D03*
X007723Y010118D03*
D180*
X004589Y010118D03*
D181*
X005712Y010151D03*
X005712Y010162D03*
X005712Y010585D03*
X005734Y011118D03*
X005734Y011129D03*
X006812Y010251D03*
X006812Y010240D03*
X006812Y010229D03*
X006812Y010218D03*
X006812Y010207D03*
D182*
X006823Y010173D03*
D183*
X005706Y010173D03*
D184*
X005706Y010185D03*
X005706Y010196D03*
X005706Y010207D03*
X005706Y010996D03*
X005706Y011007D03*
X005706Y011018D03*
X005706Y011029D03*
X005706Y011040D03*
D185*
X005700Y010985D03*
X005700Y010962D03*
X005700Y010951D03*
X005700Y010940D03*
X005700Y010929D03*
X005700Y010918D03*
X005700Y010907D03*
X005700Y010896D03*
X005700Y010885D03*
X005700Y010862D03*
X005700Y010851D03*
X005700Y010840D03*
X005700Y010829D03*
X005700Y010818D03*
X005700Y010807D03*
X005700Y010796D03*
X005700Y010562D03*
X005700Y010551D03*
X005700Y010540D03*
X005700Y010529D03*
X005700Y010518D03*
X005700Y010507D03*
X005700Y010496D03*
X005700Y010485D03*
X005700Y010462D03*
X005700Y010451D03*
X005700Y010440D03*
X005700Y010429D03*
X005700Y010418D03*
X005700Y010407D03*
X005700Y010396D03*
X005700Y010385D03*
X005700Y010362D03*
X005700Y010351D03*
X005700Y010340D03*
X005700Y010329D03*
X005700Y010318D03*
X005700Y010307D03*
X005700Y010296D03*
X005700Y010285D03*
X005700Y010262D03*
X005700Y010251D03*
X005700Y010240D03*
X005700Y010229D03*
X005700Y010218D03*
D186*
X007878Y010273D03*
X007889Y010373D03*
X007889Y010673D03*
X007878Y010773D03*
D187*
X006800Y010273D03*
D188*
X005700Y010273D03*
X005700Y010373D03*
X005700Y010473D03*
X005700Y010573D03*
X005700Y010873D03*
X005700Y010973D03*
D189*
X004434Y010773D03*
X004434Y010273D03*
D190*
X006773Y010329D03*
X006795Y010285D03*
X006595Y012196D03*
D191*
X006784Y010307D03*
D192*
X007767Y010373D03*
X004545Y010373D03*
D193*
X004422Y010373D03*
X004422Y010673D03*
D194*
X006684Y010429D03*
D195*
X006656Y010451D03*
X005801Y011229D03*
D196*
X006623Y010473D03*
D197*
X006606Y010485D03*
D198*
X006578Y010496D03*
D199*
X006484Y010540D03*
D200*
X006456Y010551D03*
X006156Y012129D03*
D201*
X006417Y010562D03*
D202*
X006378Y010573D03*
D203*
X006089Y010596D03*
X006156Y012218D03*
D204*
X006062Y010618D03*
D205*
X006050Y010629D03*
D206*
X006034Y010640D03*
D207*
X006017Y010651D03*
D208*
X006000Y010662D03*
D209*
X005984Y010673D03*
D210*
X005967Y010685D03*
D211*
X005945Y010696D03*
D212*
X005923Y010707D03*
D213*
X005873Y010729D03*
D214*
X005756Y010773D03*
D215*
X004578Y010873D03*
D216*
X005184Y011962D03*
X006684Y011029D03*
D217*
X006678Y011073D03*
D218*
X005717Y011073D03*
D219*
X006673Y011096D03*
X006673Y011107D03*
X005473Y012118D03*
D220*
X006645Y011173D03*
D221*
X006600Y011262D03*
D222*
X006589Y011273D03*
X006678Y012173D03*
D223*
X005873Y011273D03*
D224*
X005912Y011285D03*
X006156Y012285D03*
D225*
X006184Y011296D03*
D226*
X006195Y011318D03*
D227*
X006195Y011329D03*
D228*
X006200Y011340D03*
D229*
X006206Y011351D03*
D230*
X006206Y011362D03*
D231*
X006212Y011373D03*
D232*
X006234Y011407D03*
D233*
X006245Y011418D03*
D234*
X006256Y011429D03*
X006156Y012251D03*
D235*
X006262Y011440D03*
D236*
X006278Y011451D03*
D237*
X006289Y011462D03*
D238*
X006300Y011473D03*
D239*
X006295Y011485D03*
D240*
X006278Y011496D03*
D241*
X007539Y011573D03*
D242*
X007250Y011873D03*
X004950Y011773D03*
D243*
X005273Y011873D03*
D244*
X005062Y011873D03*
D245*
X005206Y011973D03*
X007106Y011973D03*
D246*
X006862Y011973D03*
X005451Y011973D03*
D247*
X005378Y012073D03*
X006934Y012073D03*
D248*
X006784Y012140D03*
D249*
X005634Y012173D03*
D250*
X005673Y012185D03*
D251*
X005784Y012207D03*
D252*
X006156Y012262D03*
D253*
X006156Y012273D03*
D254*
X005523Y005130D03*
X020523Y005130D03*
D255*
X019059Y004349D02*
X018712Y004349D01*
X018712Y004544D02*
X018963Y004544D01*
X018978Y004490D02*
X019196Y004112D01*
X019505Y003803D01*
X019883Y003585D01*
X020305Y003472D01*
X020741Y003472D01*
X021163Y003585D01*
X021541Y003803D01*
X021850Y004112D01*
X022059Y004473D01*
X022059Y001835D01*
X018742Y001835D01*
X018712Y001865D01*
X018712Y004621D01*
X018597Y004736D01*
X017416Y005917D01*
X017253Y005917D01*
X014970Y005917D01*
X014974Y005931D01*
X014974Y006173D01*
X014579Y006173D01*
X014579Y006174D01*
X014974Y006174D01*
X014974Y006409D01*
X015349Y006409D01*
X015359Y006419D01*
X015390Y006419D01*
X015456Y006485D01*
X015522Y006419D01*
X015890Y006419D01*
X015956Y006485D01*
X016022Y006419D01*
X016390Y006419D01*
X016428Y006457D01*
X016429Y006455D01*
X016466Y006418D01*
X016511Y006392D01*
X016562Y006379D01*
X016706Y006379D01*
X016706Y006882D01*
X016706Y006882D01*
X016706Y007386D01*
X016562Y007386D01*
X016511Y007372D01*
X016466Y007346D01*
X016429Y007309D01*
X016428Y007307D01*
X016414Y007322D01*
X016414Y007408D01*
X016414Y007580D01*
X016267Y007727D01*
X016236Y007758D01*
X016257Y007811D01*
X016257Y007993D01*
X016187Y008161D01*
X016058Y008290D01*
X015890Y008360D01*
X015708Y008360D01*
X015539Y008290D01*
X015410Y008161D01*
X015340Y007993D01*
X015340Y007811D01*
X015410Y007642D01*
X015539Y007513D01*
X015563Y007503D01*
X015491Y007503D01*
X015236Y007758D01*
X015257Y007811D01*
X015257Y007993D01*
X015187Y008161D01*
X015058Y008290D01*
X014890Y008360D01*
X014708Y008360D01*
X014539Y008290D01*
X014410Y008161D01*
X014340Y007993D01*
X014340Y007811D01*
X014410Y007642D01*
X014477Y007575D01*
X014410Y007547D01*
X014326Y007464D01*
X014281Y007355D01*
X014281Y007236D01*
X014297Y007198D01*
X014223Y007125D01*
X014223Y007102D01*
X014223Y006938D01*
X014223Y006561D01*
X014247Y006536D01*
X014223Y006512D01*
X014196Y006466D01*
X014183Y006416D01*
X014183Y006174D01*
X014578Y006174D01*
X014578Y006173D01*
X014183Y006173D01*
X014183Y005931D01*
X014187Y005917D01*
X013316Y005917D01*
X009950Y005917D01*
X009954Y005931D01*
X009954Y006173D01*
X009559Y006173D01*
X009559Y006174D01*
X009954Y006174D01*
X009954Y006300D01*
X010083Y006300D01*
X010255Y006300D01*
X010339Y006385D01*
X010404Y006320D01*
X010772Y006320D01*
X010838Y006386D01*
X010904Y006320D01*
X011272Y006320D01*
X011310Y006358D01*
X011311Y006357D01*
X011348Y006320D01*
X011393Y006294D01*
X011444Y006280D01*
X011588Y006280D01*
X011588Y006783D01*
X011588Y006783D01*
X011588Y006280D01*
X011732Y006280D01*
X011783Y006294D01*
X011828Y006320D01*
X011865Y006357D01*
X011891Y006402D01*
X011905Y006452D01*
X011905Y006783D01*
X011589Y006783D01*
X011589Y006784D01*
X011905Y006784D01*
X011905Y007115D01*
X011891Y007165D01*
X011865Y007211D01*
X011828Y007247D01*
X011783Y007274D01*
X011732Y007287D01*
X011588Y007287D01*
X011444Y007287D01*
X011393Y007274D01*
X011348Y007247D01*
X011311Y007211D01*
X011310Y007209D01*
X011296Y007223D01*
X011296Y007230D01*
X011046Y007480D01*
X011026Y007500D01*
X011058Y007513D01*
X011187Y007642D01*
X011257Y007811D01*
X011257Y007993D01*
X011236Y008045D01*
X011361Y008170D01*
X011419Y008170D01*
X011410Y008161D01*
X011340Y007993D01*
X011340Y007811D01*
X011410Y007642D01*
X011539Y007513D01*
X011708Y007443D01*
X011890Y007443D01*
X012058Y007513D01*
X012187Y007642D01*
X012257Y007811D01*
X012257Y007993D01*
X012218Y008087D01*
X013050Y008919D01*
X014774Y008919D01*
X014774Y008844D01*
X014867Y008751D01*
X015392Y008751D01*
X015464Y008823D01*
X015536Y008751D01*
X016061Y008751D01*
X016154Y008844D01*
X016154Y008958D01*
X018725Y008958D01*
X019453Y008230D01*
X019478Y008230D01*
X019410Y008161D01*
X019340Y007993D01*
X019340Y007811D01*
X019410Y007642D01*
X019539Y007513D01*
X019708Y007443D01*
X019890Y007443D01*
X020058Y007513D01*
X020187Y007642D01*
X020257Y007811D01*
X020257Y007993D01*
X020187Y008161D01*
X020119Y008230D01*
X020137Y008230D01*
X020258Y008351D01*
X020403Y008496D01*
X020403Y008363D01*
X020995Y008363D01*
X020995Y008362D01*
X020403Y008362D01*
X020403Y008218D01*
X020417Y008168D01*
X020443Y008122D01*
X020453Y008112D01*
X020443Y008102D01*
X020417Y008057D01*
X020403Y008007D01*
X020403Y007863D01*
X020995Y007863D01*
X020995Y008046D01*
X020995Y008362D01*
X020996Y008362D01*
X020996Y008363D01*
X021588Y008363D01*
X021588Y008507D01*
X021574Y008557D01*
X021548Y008602D01*
X021511Y008639D01*
X021509Y008640D01*
X021548Y008679D01*
X021548Y009046D01*
X021481Y009112D01*
X021548Y009179D01*
X021548Y009215D01*
X021999Y008764D01*
X021999Y008010D01*
X021994Y007985D01*
X021999Y007959D01*
X021999Y007933D01*
X022008Y007910D01*
X022013Y007884D01*
X022028Y007863D01*
X022038Y007839D01*
X022056Y007821D01*
X022059Y007817D01*
X022059Y005787D01*
X021850Y006148D01*
X021541Y006457D01*
X021163Y006675D01*
X020741Y006788D01*
X020305Y006788D01*
X019883Y006675D01*
X019505Y006457D01*
X019196Y006148D01*
X018978Y005770D01*
X018865Y005348D01*
X018865Y004912D01*
X018978Y004490D01*
X018911Y004739D02*
X018594Y004739D01*
X018398Y004935D02*
X018865Y004935D01*
X018865Y005130D02*
X018203Y005130D01*
X018008Y005325D02*
X018865Y005325D01*
X018911Y005521D02*
X017812Y005521D01*
X017617Y005716D02*
X018963Y005716D01*
X019059Y005912D02*
X017421Y005912D01*
X016946Y006418D02*
X016983Y006455D01*
X017009Y006500D01*
X017023Y006551D01*
X017023Y006882D01*
X017023Y007213D01*
X017009Y007264D01*
X016983Y007309D01*
X016946Y007346D01*
X016901Y007372D01*
X016850Y007386D01*
X016706Y007386D01*
X016706Y006882D01*
X016706Y006882D01*
X016706Y006379D01*
X016850Y006379D01*
X016901Y006392D01*
X016946Y006418D01*
X017008Y006498D02*
X019575Y006498D01*
X019350Y006302D02*
X014974Y006302D01*
X014974Y006107D02*
X019172Y006107D01*
X019949Y006693D02*
X017023Y006693D01*
X017023Y006882D02*
X016707Y006882D01*
X017023Y006882D01*
X017023Y006889D02*
X022059Y006889D01*
X022059Y006693D02*
X021097Y006693D01*
X021471Y006498D02*
X022059Y006498D01*
X022059Y006302D02*
X021696Y006302D01*
X021874Y006107D02*
X022059Y006107D01*
X022059Y005912D02*
X021987Y005912D01*
X022452Y005912D02*
X025944Y005912D01*
X025944Y006107D02*
X022452Y006107D01*
X022452Y006302D02*
X025944Y006302D01*
X025944Y006498D02*
X022452Y006498D01*
X022452Y006693D02*
X025944Y006693D01*
X025944Y006889D02*
X022452Y006889D01*
X022452Y007084D02*
X025944Y007084D01*
X025944Y007279D02*
X022452Y007279D01*
X022452Y007475D02*
X025944Y007475D01*
X025944Y007670D02*
X025240Y007670D01*
X025248Y007679D02*
X025248Y008046D01*
X025182Y008112D01*
X025247Y008177D01*
X025247Y008135D01*
X025339Y008043D01*
X025864Y008043D01*
X025944Y008122D01*
X025944Y002079D01*
X022452Y002079D01*
X022452Y007689D01*
X022452Y008789D01*
X022452Y008952D01*
X021862Y009542D01*
X021862Y012332D01*
X022928Y013398D01*
X023043Y013513D01*
X023043Y014527D01*
X025011Y014527D01*
X025133Y014519D01*
X025368Y014456D01*
X025579Y014335D01*
X025751Y014162D01*
X025873Y013952D01*
X025936Y013716D01*
X025944Y013595D01*
X025944Y008713D01*
X025864Y008792D01*
X025612Y008792D01*
X025747Y008928D01*
X025820Y009000D01*
X025859Y009095D01*
X025859Y009599D01*
X025899Y009697D01*
X025899Y009815D01*
X025859Y009913D01*
X025859Y010091D01*
X025899Y010189D01*
X025899Y010307D01*
X025854Y010417D01*
X025770Y010500D01*
X025661Y010545D01*
X025543Y010545D01*
X025433Y010500D01*
X025350Y010417D01*
X025305Y010307D01*
X025305Y010189D01*
X025345Y010091D01*
X025345Y009913D01*
X025305Y009815D01*
X025305Y009697D01*
X025345Y009599D01*
X025345Y009252D01*
X025220Y009127D01*
X025197Y009127D01*
X025248Y009179D01*
X025248Y009546D01*
X025182Y009612D01*
X025248Y009679D01*
X025248Y010046D01*
X025182Y010112D01*
X025248Y010179D01*
X025248Y010546D01*
X025156Y010639D01*
X024237Y010639D01*
X024144Y010546D01*
X024144Y010228D01*
X023841Y010531D01*
X023841Y010724D01*
X023885Y010769D01*
X023931Y010878D01*
X023931Y010996D01*
X023885Y011106D01*
X023802Y011189D01*
X023693Y011234D01*
X023574Y011234D01*
X023465Y011189D01*
X023381Y011106D01*
X023336Y010996D01*
X023336Y010878D01*
X023381Y010769D01*
X023426Y010724D01*
X023426Y010359D01*
X023547Y010237D01*
X024027Y009758D01*
X023968Y009758D01*
X023859Y009713D01*
X023775Y009629D01*
X023730Y009520D01*
X023730Y009402D01*
X023775Y009292D01*
X023859Y009209D01*
X023968Y009163D01*
X024031Y009163D01*
X024039Y009155D01*
X024168Y009155D01*
X024211Y009112D01*
X024144Y009046D01*
X024144Y008679D01*
X024211Y008612D01*
X024144Y008546D01*
X024144Y008179D01*
X024211Y008112D01*
X024144Y008046D01*
X024144Y007679D01*
X024237Y007586D01*
X025156Y007586D01*
X025248Y007679D01*
X025248Y007866D02*
X025944Y007866D01*
X025944Y008061D02*
X025883Y008061D01*
X025602Y008417D02*
X025157Y008862D01*
X024696Y008862D01*
X024704Y008870D01*
X025326Y008870D01*
X025602Y009146D01*
X025602Y010248D01*
X025899Y010210D02*
X025944Y010210D01*
X025944Y010015D02*
X025859Y010015D01*
X025897Y009820D02*
X025944Y009820D01*
X025944Y009624D02*
X025869Y009624D01*
X025859Y009429D02*
X025944Y009429D01*
X025944Y009233D02*
X025859Y009233D01*
X025835Y009038D02*
X025944Y009038D01*
X025944Y008843D02*
X025662Y008843D01*
X025326Y009233D02*
X025248Y009233D01*
X025248Y009429D02*
X025345Y009429D01*
X025335Y009624D02*
X025194Y009624D01*
X025248Y009820D02*
X025306Y009820D01*
X025345Y010015D02*
X025248Y010015D01*
X025248Y010210D02*
X025305Y010210D01*
X025345Y010406D02*
X025248Y010406D01*
X025193Y010601D02*
X025944Y010601D01*
X025944Y010406D02*
X025858Y010406D01*
X025944Y010796D02*
X023897Y010796D01*
X023931Y010992D02*
X025944Y010992D01*
X025944Y011187D02*
X023804Y011187D01*
X023463Y011187D02*
X021862Y011187D01*
X021862Y010992D02*
X023336Y010992D01*
X023370Y010796D02*
X021862Y010796D01*
X021862Y010601D02*
X023426Y010601D01*
X023426Y010406D02*
X021862Y010406D01*
X021862Y010210D02*
X023574Y010210D01*
X023770Y010015D02*
X021862Y010015D01*
X021862Y009820D02*
X023965Y009820D01*
X023773Y009624D02*
X021862Y009624D01*
X021975Y009429D02*
X023730Y009429D01*
X023834Y009233D02*
X022171Y009233D01*
X022366Y009038D02*
X024144Y009038D01*
X024144Y008843D02*
X022452Y008843D01*
X022452Y008647D02*
X024176Y008647D01*
X024144Y008452D02*
X022452Y008452D01*
X022452Y008256D02*
X024144Y008256D01*
X024159Y008061D02*
X022452Y008061D01*
X022452Y007866D02*
X024144Y007866D01*
X024153Y007670D02*
X022452Y007670D01*
X022452Y007689D02*
X022452Y007689D01*
X022059Y007670D02*
X021575Y007670D01*
X021574Y007668D02*
X021588Y007718D01*
X021588Y007862D01*
X020996Y007862D01*
X020996Y007863D01*
X020995Y007863D01*
X020995Y007862D01*
X020403Y007862D01*
X020403Y007718D01*
X020417Y007668D01*
X020443Y007622D01*
X020480Y007585D01*
X020482Y007584D01*
X020443Y007546D01*
X020443Y007179D01*
X020536Y007086D01*
X021455Y007086D01*
X021548Y007179D01*
X021548Y007546D01*
X021509Y007584D01*
X021511Y007585D01*
X021548Y007622D01*
X021574Y007668D01*
X021548Y007475D02*
X022059Y007475D01*
X022059Y007279D02*
X021548Y007279D01*
X022059Y007084D02*
X017023Y007084D01*
X017000Y007279D02*
X020443Y007279D01*
X020443Y007475D02*
X019966Y007475D01*
X020199Y007670D02*
X020416Y007670D01*
X020403Y007866D02*
X020257Y007866D01*
X020229Y008061D02*
X020419Y008061D01*
X020403Y008256D02*
X020164Y008256D01*
X020359Y008452D02*
X020403Y008452D01*
X020996Y008362D02*
X020996Y008046D01*
X020996Y007863D01*
X021588Y007863D01*
X021588Y008007D01*
X021574Y008057D01*
X021548Y008102D01*
X021538Y008112D01*
X021548Y008122D01*
X021574Y008168D01*
X021588Y008218D01*
X021588Y008362D01*
X020996Y008362D01*
X020995Y008256D02*
X020996Y008256D01*
X020995Y008061D02*
X020996Y008061D01*
X020995Y007866D02*
X020996Y007866D01*
X021588Y007866D02*
X022026Y007866D01*
X021999Y008061D02*
X021572Y008061D01*
X021588Y008256D02*
X021999Y008256D01*
X021999Y008452D02*
X021588Y008452D01*
X021516Y008647D02*
X021999Y008647D01*
X021920Y008843D02*
X021548Y008843D01*
X021548Y009038D02*
X021724Y009038D01*
X019426Y008256D02*
X019092Y008256D01*
X019058Y008290D02*
X018890Y008360D01*
X018708Y008360D01*
X018539Y008290D01*
X018410Y008161D01*
X018340Y007993D01*
X018340Y007811D01*
X018410Y007642D01*
X018539Y007513D01*
X018708Y007443D01*
X018890Y007443D01*
X019058Y007513D01*
X019187Y007642D01*
X019257Y007811D01*
X019257Y007993D01*
X019187Y008161D01*
X019058Y008290D01*
X019231Y008452D02*
X012583Y008452D01*
X012708Y008360D02*
X012539Y008290D01*
X012410Y008161D01*
X012340Y007993D01*
X012340Y007811D01*
X012410Y007642D01*
X012539Y007513D01*
X012708Y007443D01*
X012890Y007443D01*
X013058Y007513D01*
X013187Y007642D01*
X013257Y007811D01*
X013257Y007993D01*
X013187Y008161D01*
X013058Y008290D01*
X012890Y008360D01*
X012708Y008360D01*
X012505Y008256D02*
X012388Y008256D01*
X012369Y008061D02*
X012229Y008061D01*
X012257Y007866D02*
X012340Y007866D01*
X012398Y007670D02*
X012199Y007670D01*
X011966Y007475D02*
X012631Y007475D01*
X012966Y007475D02*
X013631Y007475D01*
X013708Y007443D02*
X013890Y007443D01*
X014058Y007513D01*
X014187Y007642D01*
X014257Y007811D01*
X014257Y007993D01*
X014187Y008161D01*
X014058Y008290D01*
X013890Y008360D01*
X013708Y008360D01*
X013539Y008290D01*
X013410Y008161D01*
X013340Y007993D01*
X013340Y007811D01*
X013410Y007642D01*
X013539Y007513D01*
X013708Y007443D01*
X013966Y007475D02*
X014337Y007475D01*
X014281Y007279D02*
X011761Y007279D01*
X011588Y007279D02*
X011588Y007279D01*
X011588Y007287D02*
X011588Y006784D01*
X011588Y006784D01*
X011588Y007287D01*
X011415Y007279D02*
X011246Y007279D01*
X011051Y007475D02*
X011631Y007475D01*
X011398Y007670D02*
X011199Y007670D01*
X011257Y007866D02*
X011340Y007866D01*
X011369Y008061D02*
X011252Y008061D01*
X010942Y008339D02*
X010890Y008360D01*
X010708Y008360D01*
X010539Y008290D01*
X010410Y008161D01*
X010340Y007993D01*
X010340Y007811D01*
X010410Y007642D01*
X010451Y007601D01*
X010147Y007601D01*
X010187Y007642D01*
X010257Y007811D01*
X010257Y007993D01*
X010187Y008161D01*
X010058Y008290D01*
X009890Y008360D01*
X009708Y008360D01*
X009539Y008290D01*
X009410Y008161D01*
X009340Y007993D01*
X009340Y007811D01*
X009410Y007642D01*
X009451Y007601D01*
X009393Y007601D01*
X009236Y007758D01*
X009257Y007811D01*
X009257Y007993D01*
X009187Y008161D01*
X009058Y008290D01*
X008890Y008360D01*
X008708Y008360D01*
X008539Y008290D01*
X008410Y008161D01*
X008340Y007993D01*
X008340Y007811D01*
X008410Y007642D01*
X008539Y007513D01*
X008708Y007443D01*
X008890Y007443D01*
X008942Y007465D01*
X008983Y007424D01*
X008570Y007424D01*
X008236Y007758D01*
X008257Y007811D01*
X008257Y007993D01*
X008187Y008161D01*
X008058Y008290D01*
X007890Y008360D01*
X007708Y008360D01*
X007539Y008290D01*
X007410Y008161D01*
X007340Y007993D01*
X007340Y007811D01*
X007410Y007642D01*
X007539Y007513D01*
X007708Y007443D01*
X007890Y007443D01*
X007942Y007465D01*
X008398Y007009D01*
X008570Y007009D01*
X008801Y007009D01*
X008741Y006948D01*
X008741Y006830D01*
X008741Y006658D01*
X008819Y006579D01*
X008941Y006458D01*
X009175Y006458D01*
X009163Y006416D01*
X009163Y006174D01*
X009558Y006174D01*
X009558Y006173D01*
X009163Y006173D01*
X009163Y005931D01*
X009167Y005917D01*
X008985Y005917D01*
X008870Y005802D01*
X008001Y004933D01*
X008001Y004933D01*
X007885Y004818D01*
X007885Y001835D01*
X000996Y001835D01*
X000967Y001838D01*
X000915Y001860D01*
X000875Y001900D01*
X000853Y001952D01*
X000850Y001980D01*
X000850Y002019D01*
X000850Y002030D01*
X000850Y013595D01*
X000858Y013716D01*
X000921Y013952D01*
X001043Y014162D01*
X001215Y014335D01*
X001426Y014456D01*
X001661Y014519D01*
X001783Y014527D01*
X001811Y014527D01*
X001832Y014527D01*
X022222Y014527D01*
X022272Y014393D01*
X021480Y014393D01*
X021359Y014271D01*
X021151Y014064D01*
X021103Y014044D01*
X021019Y013960D01*
X020999Y013911D01*
X020768Y013681D01*
X020768Y013509D01*
X020768Y012918D01*
X020833Y012853D01*
X020827Y012847D01*
X020827Y012480D01*
X020894Y012414D01*
X020827Y012347D01*
X020827Y011980D01*
X020894Y011914D01*
X020827Y011847D01*
X020827Y011480D01*
X020920Y011387D01*
X021408Y011387D01*
X021408Y011179D01*
X020996Y011179D01*
X020996Y010863D01*
X020995Y010863D01*
X020995Y011179D01*
X020576Y011179D01*
X020525Y011165D01*
X020480Y011139D01*
X020443Y011102D01*
X020417Y011057D01*
X020403Y011007D01*
X020403Y010863D01*
X020995Y010863D01*
X020995Y010862D01*
X020403Y010862D01*
X020403Y010741D01*
X020369Y010741D01*
X020271Y010741D01*
X020285Y010785D01*
X020297Y010862D01*
X020297Y010900D01*
X019801Y010900D01*
X019801Y010903D01*
X020297Y010903D01*
X020297Y010941D01*
X020285Y011018D01*
X020261Y011093D01*
X020225Y011163D01*
X020179Y011226D01*
X020123Y011282D01*
X020060Y011328D01*
X019990Y011364D01*
X019915Y011388D01*
X019838Y011400D01*
X019800Y011400D01*
X019800Y010904D01*
X019797Y010904D01*
X019797Y011400D01*
X019759Y011400D01*
X019682Y011388D01*
X019607Y011364D01*
X019537Y011328D01*
X019474Y011282D01*
X019435Y011243D01*
X019424Y011253D01*
X019379Y011280D01*
X019329Y011293D01*
X019106Y011293D01*
X019106Y010879D01*
X019106Y010879D01*
X019106Y011293D01*
X018911Y011293D01*
X018911Y011298D01*
X018897Y011348D01*
X018871Y011394D01*
X018834Y011431D01*
X018789Y011457D01*
X018738Y011470D01*
X018446Y011470D01*
X018446Y011046D01*
X018387Y011046D01*
X018387Y011470D01*
X018095Y011470D01*
X018045Y011457D01*
X018000Y011431D01*
X017963Y011394D01*
X017937Y011348D01*
X017923Y011298D01*
X017923Y011045D01*
X018387Y011045D01*
X018387Y010986D01*
X017923Y010986D01*
X017923Y010734D01*
X017926Y010723D01*
X016727Y011922D01*
X016563Y011922D01*
X015843Y011922D01*
X015859Y011938D01*
X015859Y012102D01*
X015859Y012922D01*
X015859Y013086D01*
X015743Y013202D01*
X013099Y013202D01*
X013089Y013212D01*
X012858Y013443D01*
X012890Y013443D01*
X013058Y013513D01*
X013187Y013642D01*
X013257Y013811D01*
X013257Y013993D01*
X013187Y014161D01*
X013058Y014290D01*
X012890Y014360D01*
X012708Y014360D01*
X012539Y014290D01*
X012410Y014161D01*
X012340Y013993D01*
X012340Y013811D01*
X012410Y013642D01*
X012447Y013605D01*
X012151Y013605D01*
X012187Y013642D01*
X012257Y013811D01*
X012257Y013993D01*
X012187Y014161D01*
X012058Y014290D01*
X011890Y014360D01*
X011708Y014360D01*
X011539Y014290D01*
X011410Y014161D01*
X011340Y013993D01*
X011340Y013811D01*
X011410Y013642D01*
X011447Y013605D01*
X011151Y013605D01*
X011187Y013642D01*
X011257Y013811D01*
X011257Y013993D01*
X011187Y014161D01*
X011058Y014290D01*
X010890Y014360D01*
X010708Y014360D01*
X010539Y014290D01*
X010410Y014161D01*
X010340Y013993D01*
X010340Y013811D01*
X010410Y013642D01*
X010447Y013605D01*
X010151Y013605D01*
X010187Y013642D01*
X010257Y013811D01*
X010257Y013993D01*
X010187Y014161D01*
X010058Y014290D01*
X009890Y014360D01*
X009708Y014360D01*
X009539Y014290D01*
X009410Y014161D01*
X009340Y013993D01*
X009340Y013811D01*
X009410Y013642D01*
X009447Y013605D01*
X009151Y013605D01*
X009187Y013642D01*
X009257Y013811D01*
X009257Y013993D01*
X009187Y014161D01*
X009058Y014290D01*
X008890Y014360D01*
X008708Y014360D01*
X008539Y014290D01*
X008410Y014161D01*
X008340Y013993D01*
X008340Y013811D01*
X008410Y013642D01*
X008447Y013605D01*
X008151Y013605D01*
X008187Y013642D01*
X008257Y013811D01*
X008257Y013993D01*
X008187Y014161D01*
X008058Y014290D01*
X007890Y014360D01*
X007708Y014360D01*
X007539Y014290D01*
X007410Y014161D01*
X007383Y014095D01*
X007207Y014271D01*
X007086Y014393D01*
X006520Y014393D01*
X006398Y014271D01*
X006323Y014196D01*
X001377Y014196D01*
X001205Y014196D01*
X001083Y014074D01*
X001083Y012992D01*
X001083Y012820D01*
X001205Y012698D01*
X004059Y012698D01*
X004231Y012698D01*
X004526Y012993D01*
X006618Y012993D01*
X006815Y012796D01*
X006987Y012796D01*
X008291Y012796D01*
X008685Y012403D01*
X008857Y012403D01*
X011539Y012403D01*
X012130Y011812D01*
X012302Y011812D01*
X012319Y011812D01*
X012314Y011806D01*
X012314Y011643D01*
X012314Y010921D01*
X012314Y010757D01*
X012429Y010641D01*
X015185Y010641D01*
X015349Y010641D01*
X016465Y010641D01*
X017437Y009668D01*
X016830Y009668D01*
X016715Y009783D01*
X016593Y009905D01*
X016154Y009905D01*
X016154Y009979D01*
X016061Y010072D01*
X015536Y010072D01*
X015464Y010000D01*
X015392Y010072D01*
X014867Y010072D01*
X014774Y009979D01*
X014774Y009905D01*
X013326Y009905D01*
X013154Y009905D01*
X011835Y008586D01*
X011361Y008586D01*
X011189Y008586D01*
X010942Y008339D01*
X011055Y008452D02*
X000850Y008452D01*
X000850Y008256D02*
X006308Y008256D01*
X006314Y008278D02*
X006300Y008228D01*
X006300Y007903D01*
X006797Y007903D01*
X006797Y007900D01*
X006800Y007900D01*
X006800Y007403D01*
X007125Y007403D01*
X007175Y007417D01*
X007221Y007443D01*
X007257Y007480D01*
X007284Y007525D01*
X007297Y007576D01*
X007297Y007900D01*
X006801Y007900D01*
X006801Y007903D01*
X007297Y007903D01*
X007297Y008228D01*
X007284Y008278D01*
X007257Y008324D01*
X007221Y008360D01*
X007175Y008387D01*
X007125Y008400D01*
X006800Y008400D01*
X006800Y007904D01*
X006797Y007904D01*
X006797Y008400D01*
X006473Y008400D01*
X006422Y008387D01*
X006377Y008360D01*
X006340Y008324D01*
X006314Y008278D01*
X006300Y008061D02*
X000850Y008061D01*
X000850Y007866D02*
X006300Y007866D01*
X006300Y007900D02*
X006300Y007576D01*
X006314Y007525D01*
X006340Y007480D01*
X006377Y007443D01*
X006422Y007417D01*
X006473Y007403D01*
X006797Y007403D01*
X006797Y007900D01*
X006300Y007900D01*
X006300Y007670D02*
X000850Y007670D01*
X000850Y007475D02*
X006345Y007475D01*
X006797Y007475D02*
X006800Y007475D01*
X006797Y007670D02*
X006800Y007670D01*
X006797Y007866D02*
X006800Y007866D01*
X006797Y008061D02*
X006800Y008061D01*
X006797Y008256D02*
X006800Y008256D01*
X006543Y008598D02*
X006554Y008609D01*
X006599Y008609D01*
X006611Y008621D01*
X006655Y008621D01*
X006666Y008632D01*
X006688Y008632D01*
X006699Y008643D01*
X006732Y008643D01*
X006743Y008654D01*
X006766Y008654D01*
X006777Y008665D01*
X006799Y008665D01*
X006810Y008676D01*
X006832Y008676D01*
X006843Y008687D01*
X006866Y008687D01*
X006877Y008698D01*
X006888Y008698D01*
X006899Y008709D01*
X006921Y008709D01*
X006933Y008721D01*
X006943Y008721D01*
X006954Y008732D01*
X006966Y008732D01*
X006977Y008743D01*
X006988Y008743D01*
X006999Y008754D01*
X007010Y008754D01*
X007021Y008765D01*
X007032Y008765D01*
X007043Y008776D01*
X007055Y008776D01*
X007066Y008787D01*
X007077Y008787D01*
X007088Y008798D01*
X007099Y008798D01*
X007110Y008809D01*
X007121Y008809D01*
X007144Y008832D01*
X007155Y008832D01*
X007178Y008854D01*
X007188Y008854D01*
X007199Y008865D01*
X007210Y008865D01*
X007233Y008887D01*
X007243Y008887D01*
X007254Y008898D01*
X007255Y008898D01*
X007278Y008921D01*
X007288Y008921D01*
X007322Y008954D01*
X007332Y008954D01*
X007355Y008976D01*
X007389Y009009D01*
X007399Y009009D01*
X007455Y009065D01*
X007455Y009065D01*
X007548Y009158D01*
X007555Y009165D01*
X007555Y009165D01*
X007648Y009258D01*
X007659Y009269D01*
X007670Y009280D01*
X007670Y009291D01*
X007670Y009291D01*
X007681Y009302D01*
X007681Y009302D01*
X007692Y009313D01*
X007692Y009313D01*
X007703Y009324D01*
X007703Y009325D01*
X007714Y009336D01*
X007725Y009347D01*
X007725Y009357D01*
X007748Y009380D01*
X007759Y009391D01*
X007759Y009402D01*
X007759Y009402D01*
X007770Y009413D01*
X007770Y009413D01*
X007781Y009424D01*
X007781Y009436D01*
X007792Y009447D01*
X007803Y009458D01*
X007803Y009469D01*
X007814Y009480D01*
X007825Y009491D01*
X007825Y009501D01*
X007848Y009524D01*
X007848Y009536D01*
X007859Y009547D01*
X007859Y009558D01*
X007870Y009569D01*
X007881Y009580D01*
X007881Y009591D01*
X007881Y009591D01*
X007892Y009602D01*
X007892Y009614D01*
X007903Y009624D01*
X012873Y009624D01*
X012678Y009429D02*
X007781Y009429D01*
X007781Y009436D02*
X007781Y009436D01*
X007792Y009447D02*
X007792Y009447D01*
X007803Y009469D02*
X007803Y009469D01*
X007814Y009480D02*
X007814Y009480D01*
X007848Y009536D02*
X007848Y009536D01*
X007859Y009558D02*
X007859Y009558D01*
X007870Y009569D02*
X007870Y009569D01*
X007903Y009624D02*
X007903Y009636D01*
X007914Y009647D01*
X007914Y009658D01*
X007925Y009669D01*
X007925Y009680D01*
X007936Y009691D01*
X007936Y009701D01*
X007948Y009713D01*
X007948Y009724D01*
X007948Y009736D01*
X007959Y009747D01*
X007959Y009758D01*
X007970Y009769D01*
X007970Y009780D01*
X007981Y009791D01*
X007981Y009802D01*
X007981Y009814D01*
X007992Y009824D01*
X007992Y009836D01*
X007992Y009847D01*
X008003Y009858D01*
X008003Y009880D01*
X008014Y009891D01*
X008014Y009902D01*
X008014Y009913D01*
X008014Y009913D01*
X008025Y009924D01*
X008025Y009947D01*
X008036Y009958D01*
X008036Y009969D01*
X008036Y009979D01*
X008048Y009991D01*
X008048Y010036D01*
X008059Y010047D01*
X008059Y010058D01*
X008059Y010080D01*
X008070Y010091D01*
X008070Y010102D01*
X008070Y010113D01*
X008070Y010124D01*
X008070Y010136D01*
X008081Y010147D01*
X008081Y010158D01*
X008081Y010169D01*
X008081Y010180D01*
X008081Y010191D01*
X008081Y010214D01*
X008092Y010224D01*
X008092Y010236D01*
X008092Y010247D01*
X008092Y010258D01*
X008092Y010325D01*
X008103Y010336D01*
X008103Y010347D01*
X008103Y010358D01*
X008103Y010369D01*
X008103Y010380D01*
X008103Y010391D01*
X008103Y010533D01*
X008103Y010600D01*
X008103Y010667D01*
X008103Y010711D01*
X008092Y010722D01*
X008092Y010756D01*
X008092Y010822D01*
X008081Y010833D01*
X008081Y010833D01*
X008081Y010889D01*
X008070Y010900D01*
X008070Y010911D01*
X008070Y010956D01*
X008059Y010967D01*
X008059Y010989D01*
X008059Y011000D01*
X008048Y011011D01*
X008048Y011045D01*
X008036Y011056D01*
X008036Y011067D01*
X008036Y011078D01*
X008025Y011089D01*
X008025Y011122D01*
X008014Y011133D01*
X008014Y011133D01*
X008014Y011156D01*
X008003Y011167D01*
X008003Y011189D01*
X007992Y011200D01*
X007992Y011211D01*
X007981Y011222D01*
X007981Y011245D01*
X007970Y011256D01*
X007970Y011267D01*
X007970Y011278D01*
X007959Y011289D01*
X007959Y011300D01*
X007948Y011311D01*
X007948Y011322D01*
X007936Y011334D01*
X007936Y011345D01*
X007925Y011356D01*
X007925Y011367D01*
X007914Y011378D01*
X007914Y011389D01*
X007903Y011400D01*
X007903Y011411D01*
X007892Y011422D01*
X007892Y011433D01*
X007881Y011444D01*
X007881Y011456D01*
X007870Y011467D01*
X007870Y011478D01*
X007859Y011489D01*
X007848Y011500D01*
X007848Y011511D01*
X007836Y011523D01*
X007836Y011533D01*
X007825Y011544D01*
X007825Y011545D01*
X007814Y011556D01*
X007814Y011567D01*
X007803Y011578D01*
X012314Y011578D01*
X012314Y011383D02*
X007914Y011383D01*
X007859Y011489D02*
X007859Y011489D01*
X007803Y011578D02*
X007803Y011578D01*
X007792Y011589D01*
X007792Y011600D01*
X007781Y011611D01*
X007781Y011611D01*
X007770Y011622D01*
X007770Y011633D01*
X007759Y011644D01*
X007759Y011645D01*
X007748Y011656D01*
X007736Y011668D01*
X007736Y011678D01*
X007725Y011689D01*
X007714Y011700D01*
X007703Y011711D01*
X007703Y011711D01*
X007692Y011722D01*
X007692Y011733D01*
X007681Y011744D01*
X007681Y011745D01*
X007670Y011756D01*
X007659Y011767D01*
X007648Y011778D01*
X007592Y011834D01*
X007592Y011845D01*
X007581Y011856D01*
X007570Y011867D01*
X007477Y011960D01*
X007466Y011960D01*
X007455Y011971D01*
X007366Y012060D01*
X007355Y012060D01*
X007310Y012104D01*
X007300Y012104D01*
X007277Y012126D01*
X007267Y012126D01*
X007255Y012137D01*
X007255Y012137D01*
X007232Y012160D01*
X007222Y012160D01*
X007199Y012182D01*
X007189Y012182D01*
X007166Y012204D01*
X007154Y012204D01*
X007143Y012215D01*
X007132Y012215D01*
X007121Y012226D01*
X007111Y012226D01*
X007088Y012248D01*
X007077Y012248D01*
X007066Y012260D01*
X007054Y012260D01*
X007043Y012271D01*
X007032Y012271D01*
X007021Y012282D01*
X007010Y012282D01*
X006999Y012293D01*
X006988Y012293D01*
X006977Y012304D01*
X006966Y012304D01*
X006955Y012315D01*
X006932Y012315D01*
X006921Y012326D01*
X006911Y012326D01*
X006899Y012337D01*
X006888Y012337D01*
X006877Y012348D01*
X006854Y012348D01*
X006843Y012360D01*
X006821Y012360D01*
X011583Y012360D01*
X011778Y012164D02*
X007217Y012164D01*
X007455Y011971D02*
X007455Y011971D01*
X007457Y011969D02*
X011973Y011969D01*
X012314Y011773D02*
X007652Y011773D01*
X007648Y011778D02*
X007648Y011778D01*
X007659Y011767D02*
X007659Y011767D01*
X007670Y011756D02*
X007670Y011756D01*
X007714Y011700D02*
X007714Y011700D01*
X007725Y011689D02*
X007725Y011689D01*
X007748Y011656D02*
X007748Y011656D01*
X007581Y011856D02*
X007581Y011856D01*
X007570Y011867D02*
X007570Y011867D01*
X006821Y012360D02*
X006810Y012371D01*
X006788Y012371D01*
X006777Y012382D01*
X006754Y012382D01*
X006743Y012393D01*
X006721Y012393D01*
X006710Y012404D01*
X006677Y012404D01*
X006666Y012415D01*
X006632Y012415D01*
X006621Y012426D01*
X006578Y012426D01*
X006566Y012437D01*
X006521Y012437D01*
X006510Y012448D01*
X006432Y012448D01*
X006421Y012460D01*
X006277Y012460D01*
X006266Y012471D01*
X006046Y012471D01*
X006035Y012460D01*
X005890Y012460D01*
X005879Y012448D01*
X005801Y012448D01*
X005790Y012437D01*
X005746Y012437D01*
X005735Y012426D01*
X005690Y012426D01*
X005679Y012415D01*
X005646Y012415D01*
X005635Y012404D01*
X005601Y012404D01*
X005590Y012393D01*
X005568Y012393D01*
X005557Y012382D01*
X005535Y012382D01*
X005524Y012371D01*
X005501Y012371D01*
X005490Y012360D01*
X000850Y012360D01*
X000850Y012555D02*
X008533Y012555D01*
X008337Y012750D02*
X004284Y012750D01*
X004479Y012946D02*
X006666Y012946D01*
X005490Y012360D02*
X005468Y012360D01*
X005457Y012348D01*
X005435Y012348D01*
X005424Y012337D01*
X005412Y012337D01*
X005401Y012326D01*
X005390Y012326D01*
X005379Y012315D01*
X005357Y012315D01*
X005346Y012304D01*
X005335Y012304D01*
X005324Y012293D01*
X005312Y012293D01*
X005301Y012282D01*
X005290Y012282D01*
X005279Y012271D01*
X005268Y012271D01*
X005257Y012260D01*
X005246Y012260D01*
X005235Y012248D01*
X005224Y012248D01*
X005213Y012237D01*
X005212Y012237D01*
X005201Y012226D01*
X005190Y012226D01*
X005179Y012215D01*
X005168Y012215D01*
X005157Y012204D01*
X005146Y012204D01*
X005124Y012182D01*
X005112Y012182D01*
X005090Y012160D01*
X005079Y012160D01*
X005046Y012126D01*
X005035Y012126D01*
X005013Y012104D01*
X005001Y012104D01*
X004957Y012060D01*
X004946Y012060D01*
X004913Y012026D01*
X004912Y012026D01*
X004846Y011960D01*
X004835Y011960D01*
X004813Y011937D01*
X004812Y011937D01*
X004719Y011845D01*
X004719Y011844D01*
X004708Y011833D01*
X004708Y011822D01*
X004619Y011733D01*
X004619Y011722D01*
X004608Y011711D01*
X004597Y011700D01*
X004586Y011689D01*
X004586Y011689D01*
X004575Y011678D01*
X004575Y011667D01*
X004575Y011667D01*
X004564Y011656D01*
X004564Y011656D01*
X004553Y011645D01*
X004553Y011644D01*
X004542Y011633D01*
X004542Y011623D01*
X004519Y011600D01*
X004519Y011589D01*
X004508Y011578D01*
X004508Y011578D01*
X004497Y011567D01*
X004497Y011556D01*
X004486Y011545D01*
X004486Y011544D01*
X004475Y011533D01*
X004475Y011522D01*
X004464Y011511D01*
X004464Y011500D01*
X004453Y011489D01*
X004453Y011489D01*
X004442Y011478D01*
X004442Y011467D01*
X004442Y011467D01*
X004442Y011467D01*
X004431Y011456D01*
X004431Y011445D01*
X004419Y011433D01*
X004419Y011422D01*
X004408Y011411D01*
X004408Y011400D01*
X004397Y011389D01*
X004397Y011378D01*
X004397Y011378D01*
X004397Y011378D01*
X004386Y011367D01*
X004386Y011356D01*
X004375Y011345D01*
X004375Y011333D01*
X004364Y011322D01*
X004364Y011311D01*
X004353Y011300D01*
X004353Y011289D01*
X004342Y011278D01*
X004342Y011267D01*
X004342Y011256D01*
X004331Y011245D01*
X004331Y011223D01*
X004319Y011211D01*
X004319Y011200D01*
X004308Y011189D01*
X004308Y011167D01*
X004297Y011156D01*
X004297Y011133D01*
X004286Y011122D01*
X004286Y011089D01*
X004275Y011078D01*
X004275Y011067D01*
X004275Y011056D01*
X004264Y011045D01*
X004264Y011011D01*
X004253Y011000D01*
X004253Y010978D01*
X004253Y010967D01*
X004242Y010956D01*
X004242Y010900D01*
X004231Y010889D01*
X004231Y010834D01*
X004219Y010822D01*
X004219Y010745D01*
X004219Y010722D01*
X004208Y010711D01*
X004208Y010667D01*
X004208Y010524D01*
X004208Y010522D01*
X004208Y010380D01*
X004208Y010369D01*
X004208Y010358D01*
X004208Y010347D01*
X004208Y010336D01*
X004219Y010325D01*
X004219Y010247D01*
X004219Y010236D01*
X004219Y010224D01*
X004231Y010213D01*
X004231Y010180D01*
X004231Y010169D01*
X004231Y010158D01*
X004231Y010147D01*
X004242Y010136D01*
X004242Y010113D01*
X004242Y010102D01*
X004242Y010091D01*
X004253Y010080D01*
X004253Y010047D01*
X004264Y010036D01*
X004264Y010036D01*
X004264Y010024D01*
X004264Y010013D01*
X004264Y010002D01*
X004264Y009991D01*
X004275Y009980D01*
X004275Y009969D01*
X004275Y009958D01*
X004286Y009947D01*
X004286Y009936D01*
X004286Y009924D01*
X004297Y009913D01*
X004297Y009902D01*
X004297Y009891D01*
X004308Y009880D01*
X004308Y009869D01*
X004308Y009858D01*
X004319Y009847D01*
X004319Y009847D01*
X004319Y009836D01*
X004319Y009824D01*
X004331Y009813D01*
X004331Y009791D01*
X004342Y009780D01*
X004342Y009769D01*
X004353Y009758D01*
X004353Y009758D01*
X004353Y009747D01*
X004364Y009736D01*
X004364Y009724D01*
X004364Y009713D01*
X004375Y009702D01*
X004375Y009702D01*
X004375Y009702D01*
X004375Y009691D01*
X004386Y009680D01*
X004386Y009669D01*
X004397Y009658D01*
X004397Y009658D01*
X004397Y009658D01*
X004397Y009647D01*
X004408Y009636D01*
X004408Y009636D01*
X004408Y009624D01*
X004419Y009613D01*
X004419Y009602D01*
X004431Y009590D01*
X004431Y009580D01*
X004442Y009569D01*
X004453Y009558D01*
X004453Y009558D01*
X004453Y009547D01*
X004464Y009536D01*
X004464Y009524D01*
X004475Y009513D01*
X004486Y009502D01*
X004486Y009491D01*
X004497Y009480D01*
X004508Y009469D01*
X004508Y009458D01*
X004519Y009447D01*
X004519Y009447D01*
X004531Y009435D01*
X004531Y009424D01*
X004542Y009413D01*
X004553Y009402D01*
X004553Y009402D01*
X004553Y009402D01*
X004553Y009391D01*
X004564Y009380D01*
X004575Y009369D01*
X004586Y009358D01*
X004586Y009358D01*
X004586Y009358D01*
X004586Y009347D01*
X004597Y009336D01*
X004597Y009336D01*
X004608Y009325D01*
X004608Y009324D01*
X004619Y009313D01*
X004642Y009290D01*
X004642Y009280D01*
X004653Y009269D01*
X004664Y009258D01*
X004664Y009258D01*
X004675Y009247D01*
X004675Y009247D01*
X004686Y009236D01*
X004686Y009236D01*
X004697Y009225D01*
X004697Y009224D01*
X004708Y009214D01*
X004708Y009213D01*
X004719Y009202D01*
X004812Y009109D01*
X004812Y009109D01*
X004819Y009102D01*
X004912Y009009D01*
X004924Y009009D01*
X004979Y008954D01*
X004990Y008954D01*
X005012Y008932D01*
X005013Y008932D01*
X005024Y008921D01*
X005035Y008921D01*
X005068Y008887D01*
X005079Y008887D01*
X005101Y008865D01*
X005113Y008865D01*
X005124Y008854D01*
X005135Y008854D01*
X005157Y008832D01*
X005168Y008832D01*
X005190Y008809D01*
X005201Y008809D01*
X005212Y008798D01*
X005224Y008798D01*
X005235Y008787D01*
X005246Y008787D01*
X005257Y008776D01*
X005268Y008776D01*
X005279Y008765D01*
X005290Y008765D01*
X005301Y008754D01*
X005313Y008754D01*
X005324Y008743D01*
X005335Y008743D01*
X005346Y008732D01*
X005357Y008732D01*
X005368Y008721D01*
X005379Y008721D01*
X005390Y008709D01*
X005413Y008709D01*
X005424Y008698D01*
X005435Y008698D01*
X005446Y008687D01*
X005468Y008687D01*
X005479Y008676D01*
X005501Y008676D01*
X005512Y008665D01*
X005535Y008665D01*
X005546Y008654D01*
X005568Y008654D01*
X005579Y008643D01*
X005613Y008643D01*
X005624Y008632D01*
X005646Y008632D01*
X005657Y008621D01*
X005701Y008621D01*
X005712Y008609D01*
X005757Y008609D01*
X005768Y008598D01*
X005824Y008598D01*
X005835Y008587D01*
X005913Y008587D01*
X005924Y008576D01*
X006388Y008576D01*
X006399Y008587D01*
X006477Y008587D01*
X006488Y008598D01*
X006543Y008598D01*
X006737Y008647D02*
X011896Y008647D01*
X012092Y008843D02*
X007166Y008843D01*
X007355Y008976D02*
X007355Y008976D01*
X007428Y009038D02*
X012287Y009038D01*
X012482Y009233D02*
X007624Y009233D01*
X007648Y009258D02*
X007648Y009258D01*
X007659Y009269D02*
X007659Y009269D01*
X007714Y009336D02*
X007714Y009336D01*
X007748Y009380D02*
X007748Y009380D01*
X007903Y009636D02*
X007903Y009636D01*
X007914Y009658D02*
X007914Y009658D01*
X007948Y009736D02*
X007948Y009736D01*
X007959Y009758D02*
X007959Y009758D01*
X007970Y009780D02*
X007970Y009780D01*
X007987Y009820D02*
X013069Y009820D01*
X012974Y008843D02*
X014776Y008843D01*
X014505Y008256D02*
X014092Y008256D01*
X014229Y008061D02*
X014369Y008061D01*
X014340Y007866D02*
X014257Y007866D01*
X014199Y007670D02*
X014398Y007670D01*
X014578Y007295D02*
X014578Y006843D01*
X014223Y006889D02*
X011905Y006889D01*
X011905Y006693D02*
X014223Y006693D01*
X014215Y006498D02*
X011905Y006498D01*
X011798Y006302D02*
X014183Y006302D01*
X014183Y006107D02*
X009954Y006107D01*
X010257Y006302D02*
X011378Y006302D01*
X011588Y006302D02*
X011588Y006302D01*
X011588Y006498D02*
X011588Y006498D01*
X011588Y006693D02*
X011588Y006693D01*
X011588Y006889D02*
X011588Y006889D01*
X011588Y007084D02*
X011588Y007084D01*
X011905Y007084D02*
X014223Y007084D01*
X013398Y007670D02*
X013199Y007670D01*
X013257Y007866D02*
X013340Y007866D01*
X013369Y008061D02*
X013229Y008061D01*
X013092Y008256D02*
X013505Y008256D01*
X012779Y008647D02*
X019035Y008647D01*
X018840Y008843D02*
X016153Y008843D01*
X016539Y008290D02*
X016708Y008360D01*
X016890Y008360D01*
X017058Y008290D01*
X017187Y008161D01*
X017257Y007993D01*
X017257Y007811D01*
X017187Y007642D01*
X017058Y007513D01*
X016890Y007443D01*
X016708Y007443D01*
X016539Y007513D01*
X016410Y007642D01*
X016340Y007811D01*
X016340Y007993D01*
X016410Y008161D01*
X016539Y008290D01*
X016505Y008256D02*
X016092Y008256D01*
X016229Y008061D02*
X016369Y008061D01*
X016340Y007866D02*
X016257Y007866D01*
X016324Y007670D02*
X016398Y007670D01*
X016414Y007475D02*
X016631Y007475D01*
X016706Y007279D02*
X016706Y007279D01*
X016706Y007084D02*
X016706Y007084D01*
X016706Y006889D02*
X016706Y006889D01*
X016707Y006882D02*
X016707Y006882D01*
X016706Y006693D02*
X016706Y006693D01*
X016706Y006498D02*
X016706Y006498D01*
X016966Y007475D02*
X017631Y007475D01*
X017708Y007443D02*
X017539Y007513D01*
X017410Y007642D01*
X017340Y007811D01*
X017340Y007993D01*
X017410Y008161D01*
X017539Y008290D01*
X017708Y008360D01*
X017890Y008360D01*
X018058Y008290D01*
X018187Y008161D01*
X018257Y007993D01*
X018257Y007811D01*
X018187Y007642D01*
X018058Y007513D01*
X017890Y007443D01*
X017708Y007443D01*
X017966Y007475D02*
X018631Y007475D01*
X018398Y007670D02*
X018199Y007670D01*
X018257Y007866D02*
X018340Y007866D01*
X018369Y008061D02*
X018229Y008061D01*
X018092Y008256D02*
X018505Y008256D01*
X019229Y008061D02*
X019369Y008061D01*
X019340Y007866D02*
X019257Y007866D01*
X019199Y007670D02*
X019398Y007670D01*
X019631Y007475D02*
X018966Y007475D01*
X017398Y007670D02*
X017199Y007670D01*
X017257Y007866D02*
X017340Y007866D01*
X017369Y008061D02*
X017229Y008061D01*
X017092Y008256D02*
X017505Y008256D01*
X015505Y008256D02*
X015092Y008256D01*
X015229Y008061D02*
X015369Y008061D01*
X015340Y007866D02*
X015257Y007866D01*
X015324Y007670D02*
X015398Y007670D01*
X016678Y009820D02*
X017286Y009820D01*
X017091Y010015D02*
X016118Y010015D01*
X015479Y010015D02*
X015449Y010015D01*
X014810Y010015D02*
X008048Y010015D01*
X007992Y009847D02*
X007992Y009847D01*
X008081Y010210D02*
X016895Y010210D01*
X016700Y010406D02*
X008103Y010406D01*
X008103Y010601D02*
X016505Y010601D01*
X017462Y011187D02*
X017923Y011187D01*
X017658Y010992D02*
X018387Y010992D01*
X018387Y011187D02*
X018446Y011187D01*
X018446Y011383D02*
X018387Y011383D01*
X017956Y011383D02*
X017267Y011383D01*
X017071Y011578D02*
X020827Y011578D01*
X020827Y011773D02*
X016876Y011773D01*
X015859Y011969D02*
X020838Y011969D01*
X020827Y012164D02*
X015859Y012164D01*
X015859Y012360D02*
X020840Y012360D01*
X020827Y012555D02*
X020100Y012555D01*
X020058Y012513D02*
X020187Y012642D01*
X020257Y012811D01*
X020257Y012993D01*
X020187Y013161D01*
X020058Y013290D01*
X019890Y013360D01*
X019708Y013360D01*
X019539Y013290D01*
X019410Y013161D01*
X019340Y012993D01*
X019340Y012811D01*
X019410Y012642D01*
X019539Y012513D01*
X019708Y012443D01*
X019890Y012443D01*
X020058Y012513D01*
X020232Y012750D02*
X020827Y012750D01*
X020768Y012946D02*
X020257Y012946D01*
X020196Y013141D02*
X020768Y013141D01*
X020768Y013337D02*
X019947Y013337D01*
X019890Y013443D02*
X019708Y013443D01*
X019539Y013513D01*
X019410Y013642D01*
X019340Y013811D01*
X019340Y013993D01*
X019410Y014161D01*
X019539Y014290D01*
X019708Y014360D01*
X019890Y014360D01*
X020058Y014290D01*
X020187Y014161D01*
X020257Y013993D01*
X020257Y013811D01*
X020187Y013642D01*
X020058Y013513D01*
X019890Y013443D01*
X020077Y013532D02*
X020768Y013532D01*
X020815Y013727D02*
X020223Y013727D01*
X020257Y013923D02*
X021004Y013923D01*
X021206Y014118D02*
X020205Y014118D01*
X020002Y014314D02*
X021401Y014314D01*
X022229Y014509D02*
X001623Y014509D01*
X001194Y014314D02*
X006441Y014314D01*
X006398Y014271D02*
X006398Y014271D01*
X007165Y014314D02*
X007595Y014314D01*
X008002Y014314D02*
X008595Y014314D01*
X009002Y014314D02*
X009595Y014314D01*
X009392Y014118D02*
X009205Y014118D01*
X009257Y013923D02*
X009340Y013923D01*
X009375Y013727D02*
X009223Y013727D01*
X008375Y013727D02*
X008223Y013727D01*
X008257Y013923D02*
X008340Y013923D01*
X008392Y014118D02*
X008205Y014118D01*
X007392Y014118D02*
X007360Y014118D01*
X010002Y014314D02*
X010595Y014314D01*
X011002Y014314D02*
X011595Y014314D01*
X012002Y014314D02*
X012595Y014314D01*
X012392Y014118D02*
X012205Y014118D01*
X012257Y013923D02*
X012340Y013923D01*
X012375Y013727D02*
X012223Y013727D01*
X012965Y013337D02*
X019651Y013337D01*
X019402Y013141D02*
X015804Y013141D01*
X015859Y012946D02*
X019340Y012946D01*
X019365Y012750D02*
X015859Y012750D01*
X015859Y012555D02*
X019497Y012555D01*
X019058Y013513D02*
X018890Y013443D01*
X018708Y013443D01*
X018539Y013513D01*
X018410Y013642D01*
X018340Y013811D01*
X018340Y013993D01*
X018410Y014161D01*
X018539Y014290D01*
X018708Y014360D01*
X018890Y014360D01*
X019058Y014290D01*
X019187Y014161D01*
X019257Y013993D01*
X019257Y013811D01*
X019187Y013642D01*
X019058Y013513D01*
X019077Y013532D02*
X019520Y013532D01*
X019375Y013727D02*
X019223Y013727D01*
X019257Y013923D02*
X019340Y013923D01*
X019392Y014118D02*
X019205Y014118D01*
X019002Y014314D02*
X019595Y014314D01*
X018595Y014314D02*
X018002Y014314D01*
X018058Y014290D02*
X017890Y014360D01*
X017708Y014360D01*
X017539Y014290D01*
X017410Y014161D01*
X017340Y013993D01*
X017340Y013811D01*
X017410Y013642D01*
X017539Y013513D01*
X017708Y013443D01*
X017890Y013443D01*
X018058Y013513D01*
X018187Y013642D01*
X018257Y013811D01*
X018257Y013993D01*
X018187Y014161D01*
X018058Y014290D01*
X018205Y014118D02*
X018392Y014118D01*
X018340Y013923D02*
X018257Y013923D01*
X018223Y013727D02*
X018375Y013727D01*
X018520Y013532D02*
X018077Y013532D01*
X017520Y013532D02*
X017077Y013532D01*
X017058Y013513D02*
X017187Y013642D01*
X017257Y013811D01*
X017257Y013993D01*
X017187Y014161D01*
X017058Y014290D01*
X016890Y014360D01*
X016708Y014360D01*
X016539Y014290D01*
X016410Y014161D01*
X016340Y013993D01*
X016340Y013811D01*
X016410Y013642D01*
X016539Y013513D01*
X016708Y013443D01*
X016890Y013443D01*
X017058Y013513D01*
X017223Y013727D02*
X017375Y013727D01*
X017340Y013923D02*
X017257Y013923D01*
X017205Y014118D02*
X017392Y014118D01*
X017595Y014314D02*
X017002Y014314D01*
X016595Y014314D02*
X016002Y014314D01*
X016058Y014290D02*
X015890Y014360D01*
X015708Y014360D01*
X015539Y014290D01*
X015410Y014161D01*
X015340Y013993D01*
X015340Y013811D01*
X015410Y013642D01*
X015539Y013513D01*
X015708Y013443D01*
X015890Y013443D01*
X016058Y013513D01*
X016187Y013642D01*
X016257Y013811D01*
X016257Y013993D01*
X016187Y014161D01*
X016058Y014290D01*
X016205Y014118D02*
X016392Y014118D01*
X016340Y013923D02*
X016257Y013923D01*
X016223Y013727D02*
X016375Y013727D01*
X016520Y013532D02*
X016077Y013532D01*
X015520Y013532D02*
X015077Y013532D01*
X015058Y013513D02*
X014890Y013443D01*
X014708Y013443D01*
X014539Y013513D01*
X014410Y013642D01*
X014340Y013811D01*
X014340Y013993D01*
X014410Y014161D01*
X014539Y014290D01*
X014708Y014360D01*
X014890Y014360D01*
X015058Y014290D01*
X015187Y014161D01*
X015257Y013993D01*
X015257Y013811D01*
X015187Y013642D01*
X015058Y013513D01*
X015223Y013727D02*
X015375Y013727D01*
X015340Y013923D02*
X015257Y013923D01*
X015205Y014118D02*
X015392Y014118D01*
X015595Y014314D02*
X015002Y014314D01*
X014595Y014314D02*
X014002Y014314D01*
X014058Y014290D02*
X013890Y014360D01*
X013708Y014360D01*
X013539Y014290D01*
X013410Y014161D01*
X013340Y013993D01*
X013340Y013811D01*
X013410Y013642D01*
X013539Y013513D01*
X013708Y013443D01*
X013890Y013443D01*
X014058Y013513D01*
X014187Y013642D01*
X014257Y013811D01*
X014257Y013993D01*
X014187Y014161D01*
X014058Y014290D01*
X014205Y014118D02*
X014392Y014118D01*
X014340Y013923D02*
X014257Y013923D01*
X014223Y013727D02*
X014375Y013727D01*
X014520Y013532D02*
X014077Y013532D01*
X013520Y013532D02*
X013077Y013532D01*
X013223Y013727D02*
X013375Y013727D01*
X013340Y013923D02*
X013257Y013923D01*
X013205Y014118D02*
X013392Y014118D01*
X013595Y014314D02*
X013002Y014314D01*
X011392Y014118D02*
X011205Y014118D01*
X011257Y013923D02*
X011340Y013923D01*
X011375Y013727D02*
X011223Y013727D01*
X010375Y013727D02*
X010223Y013727D01*
X010257Y013923D02*
X010340Y013923D01*
X010392Y014118D02*
X010205Y014118D01*
X005095Y012164D02*
X000850Y012164D01*
X000850Y011969D02*
X004855Y011969D01*
X004659Y011773D02*
X000850Y011773D01*
X000850Y011578D02*
X004509Y011578D01*
X004464Y011500D02*
X004464Y011500D01*
X004464Y011500D01*
X004408Y011400D02*
X004408Y011400D01*
X004397Y011383D02*
X000850Y011383D01*
X000850Y011187D02*
X004308Y011187D01*
X004319Y011200D02*
X004319Y011200D01*
X004297Y011133D02*
X004297Y011133D01*
X004342Y011267D02*
X004342Y011267D01*
X004375Y011333D02*
X004375Y011333D01*
X004253Y010992D02*
X000850Y010992D01*
X000850Y010796D02*
X004219Y010796D01*
X004242Y010900D02*
X004242Y010900D01*
X004208Y010601D02*
X000850Y010601D01*
X000850Y010406D02*
X004208Y010406D01*
X004231Y010210D02*
X000850Y010210D01*
X000850Y010015D02*
X004264Y010015D01*
X004297Y009913D02*
X004297Y009913D01*
X004324Y009820D02*
X000850Y009820D01*
X000850Y009624D02*
X004409Y009624D01*
X004419Y009613D02*
X004419Y009613D01*
X004442Y009569D02*
X004442Y009569D01*
X004464Y009536D02*
X004464Y009536D01*
X004475Y009513D02*
X004475Y009513D01*
X004486Y009502D02*
X004486Y009502D01*
X004497Y009480D02*
X004497Y009480D01*
X004508Y009469D02*
X004508Y009469D01*
X004531Y009429D02*
X000850Y009429D01*
X000850Y009233D02*
X004689Y009233D01*
X004719Y009202D02*
X004719Y009202D01*
X004653Y009269D02*
X004653Y009269D01*
X004619Y009313D02*
X004619Y009313D01*
X004575Y009369D02*
X004575Y009369D01*
X004564Y009380D02*
X004564Y009380D01*
X004542Y009413D02*
X004542Y009413D01*
X004386Y009680D02*
X004386Y009680D01*
X004364Y009724D02*
X004364Y009724D01*
X004342Y009780D02*
X004342Y009780D01*
X004819Y009102D02*
X004819Y009102D01*
X004884Y009038D02*
X000850Y009038D01*
X000850Y008843D02*
X005146Y008843D01*
X005575Y008647D02*
X000850Y008647D01*
X000850Y007279D02*
X008127Y007279D01*
X008323Y007084D02*
X000850Y007084D01*
X000850Y006889D02*
X008741Y006889D01*
X008741Y006693D02*
X006097Y006693D01*
X006163Y006675D02*
X005741Y006788D01*
X005305Y006788D01*
X004883Y006675D01*
X004505Y006457D01*
X004196Y006148D01*
X003978Y005770D01*
X003865Y005348D01*
X003865Y004912D01*
X003978Y004490D01*
X004196Y004112D01*
X004505Y003803D01*
X004883Y003585D01*
X005305Y003472D01*
X005741Y003472D01*
X006163Y003585D01*
X006541Y003803D01*
X006850Y004112D01*
X007069Y004490D01*
X007182Y004912D01*
X007182Y005348D01*
X007069Y005770D01*
X006850Y006148D01*
X006541Y006457D01*
X006163Y006675D01*
X006471Y006498D02*
X008901Y006498D01*
X009163Y006302D02*
X006696Y006302D01*
X006874Y006107D02*
X009163Y006107D01*
X008979Y005912D02*
X006987Y005912D01*
X007083Y005716D02*
X008784Y005716D01*
X008870Y005802D02*
X008870Y005802D01*
X008588Y005521D02*
X007135Y005521D01*
X007182Y005325D02*
X008393Y005325D01*
X008198Y005130D02*
X007182Y005130D01*
X007182Y004935D02*
X008002Y004935D01*
X007885Y004739D02*
X007135Y004739D01*
X007083Y004544D02*
X007885Y004544D01*
X007885Y004349D02*
X006987Y004349D01*
X006874Y004153D02*
X007885Y004153D01*
X007885Y003958D02*
X006696Y003958D01*
X006471Y003762D02*
X007885Y003762D01*
X007885Y003567D02*
X006097Y003567D01*
X004949Y003567D02*
X003095Y003567D01*
X003099Y003574D02*
X003122Y003643D01*
X003133Y003716D01*
X003133Y003752D01*
X002669Y003752D01*
X002669Y003752D01*
X003133Y003752D01*
X003133Y003789D01*
X003122Y003861D01*
X003099Y003930D01*
X003066Y003995D01*
X003023Y004054D01*
X002971Y004106D01*
X002912Y004149D01*
X002847Y004182D01*
X002778Y004205D01*
X002705Y004216D01*
X002669Y004216D01*
X002669Y003753D01*
X002669Y003753D01*
X002669Y004216D01*
X002632Y004216D01*
X002560Y004205D01*
X002491Y004182D01*
X002426Y004149D01*
X002366Y004106D01*
X002315Y004054D01*
X002272Y003995D01*
X002239Y003930D01*
X002216Y003861D01*
X002205Y003789D01*
X002205Y003752D01*
X002205Y003716D01*
X002216Y003643D01*
X002239Y003574D01*
X002272Y003509D01*
X002315Y003450D01*
X002366Y003398D01*
X002426Y003355D01*
X002491Y003322D01*
X002560Y003299D01*
X002632Y003288D01*
X002669Y003288D01*
X002705Y003288D01*
X002778Y003299D01*
X002847Y003322D01*
X002912Y003355D01*
X002971Y003398D01*
X003023Y003450D01*
X003066Y003509D01*
X003099Y003574D01*
X003133Y003762D02*
X004575Y003762D01*
X004350Y003958D02*
X003085Y003958D01*
X002904Y004153D02*
X004172Y004153D01*
X004059Y004349D02*
X000850Y004349D01*
X000850Y004544D02*
X003963Y004544D01*
X003911Y004739D02*
X000850Y004739D01*
X000850Y004935D02*
X003865Y004935D01*
X003865Y005130D02*
X000850Y005130D01*
X000850Y005325D02*
X003865Y005325D01*
X003911Y005521D02*
X000850Y005521D01*
X000850Y005716D02*
X003963Y005716D01*
X004059Y005912D02*
X000850Y005912D01*
X000850Y006107D02*
X004172Y006107D01*
X004350Y006302D02*
X000850Y006302D01*
X000850Y006498D02*
X004575Y006498D01*
X004949Y006693D02*
X000850Y006693D01*
X000850Y004153D02*
X001330Y004153D01*
X001353Y004176D02*
X001260Y004083D01*
X001260Y003421D01*
X001353Y003328D01*
X002016Y003328D01*
X002109Y003421D01*
X002109Y004083D01*
X002016Y004176D01*
X001353Y004176D01*
X001260Y003958D02*
X000850Y003958D01*
X000850Y003762D02*
X001260Y003762D01*
X001260Y003567D02*
X000850Y003567D01*
X000850Y003372D02*
X001310Y003372D01*
X000850Y003176D02*
X007885Y003176D01*
X007885Y002981D02*
X000850Y002981D01*
X000850Y002785D02*
X007885Y002785D01*
X007885Y002590D02*
X000850Y002590D01*
X000850Y002395D02*
X007885Y002395D01*
X007885Y002199D02*
X000850Y002199D01*
X000850Y002004D02*
X007885Y002004D01*
X007885Y003372D02*
X002935Y003372D01*
X002669Y003372D02*
X002669Y003372D01*
X002669Y003288D02*
X002669Y003752D01*
X002669Y003752D01*
X002669Y003288D01*
X002403Y003372D02*
X002059Y003372D01*
X002109Y003567D02*
X002242Y003567D01*
X002205Y003752D02*
X002668Y003752D01*
X002668Y003752D01*
X002205Y003752D01*
X002205Y003762D02*
X002109Y003762D01*
X002109Y003958D02*
X002253Y003958D01*
X002669Y003958D02*
X002669Y003958D01*
X002669Y003762D02*
X002669Y003762D01*
X002669Y003567D02*
X002669Y003567D01*
X002669Y004153D02*
X002669Y004153D01*
X002433Y004153D02*
X002039Y004153D01*
X007252Y007475D02*
X007631Y007475D01*
X007398Y007670D02*
X007297Y007670D01*
X007297Y007866D02*
X007340Y007866D01*
X007369Y008061D02*
X007297Y008061D01*
X007290Y008256D02*
X007505Y008256D01*
X008092Y008256D02*
X008505Y008256D01*
X008369Y008061D02*
X008229Y008061D01*
X008257Y007866D02*
X008340Y007866D01*
X008324Y007670D02*
X008398Y007670D01*
X008519Y007475D02*
X008631Y007475D01*
X009324Y007670D02*
X009398Y007670D01*
X009340Y007866D02*
X009257Y007866D01*
X009229Y008061D02*
X009369Y008061D01*
X009505Y008256D02*
X009092Y008256D01*
X010092Y008256D02*
X010505Y008256D01*
X010369Y008061D02*
X010229Y008061D01*
X010257Y007866D02*
X010340Y007866D01*
X010398Y007670D02*
X010199Y007670D01*
X007548Y009158D02*
X007548Y009158D01*
X008092Y010796D02*
X012314Y010796D01*
X012314Y010992D02*
X008059Y010992D01*
X008003Y011187D02*
X012314Y011187D01*
X007992Y011200D02*
X007992Y011200D01*
X004608Y011711D02*
X004608Y011711D01*
X004597Y011700D02*
X004597Y011700D01*
X001152Y012750D02*
X000850Y012750D01*
X000850Y012946D02*
X001083Y012946D01*
X001083Y013141D02*
X000850Y013141D01*
X000850Y013337D02*
X001083Y013337D01*
X001083Y013532D02*
X000850Y013532D01*
X000861Y013727D02*
X001083Y013727D01*
X001083Y013923D02*
X000914Y013923D01*
X001017Y014118D02*
X001127Y014118D01*
X010088Y004971D02*
X010385Y005268D01*
X012216Y005268D01*
X011588Y004658D02*
X011647Y004599D01*
X012216Y004599D01*
X012314Y004500D01*
X012314Y003752D01*
X014480Y003752D02*
X014480Y004244D01*
X014578Y004343D01*
X014578Y004599D01*
X015110Y004599D01*
X015169Y004540D01*
X015169Y004719D01*
X015206Y004756D01*
X014578Y005268D02*
X016409Y005268D01*
X016706Y004971D01*
X016706Y004756D01*
X017433Y004030D01*
X017433Y003752D01*
X018712Y003762D02*
X019575Y003762D01*
X019350Y003958D02*
X018712Y003958D01*
X018712Y004153D02*
X019172Y004153D01*
X018712Y003567D02*
X019949Y003567D01*
X021097Y003567D02*
X022059Y003567D01*
X022059Y003762D02*
X021471Y003762D01*
X021696Y003958D02*
X022059Y003958D01*
X022059Y004153D02*
X021874Y004153D01*
X021987Y004349D02*
X022059Y004349D01*
X022452Y004349D02*
X025944Y004349D01*
X025944Y004544D02*
X022452Y004544D01*
X022452Y004739D02*
X025944Y004739D01*
X025944Y004935D02*
X022452Y004935D01*
X022452Y005130D02*
X025944Y005130D01*
X025944Y005325D02*
X022452Y005325D01*
X022452Y005521D02*
X025944Y005521D01*
X025944Y005716D02*
X022452Y005716D01*
X022452Y004153D02*
X024084Y004153D01*
X024140Y004176D02*
X023984Y004112D01*
X023864Y003992D01*
X023800Y003836D01*
X023800Y003668D01*
X023864Y003512D01*
X023984Y003393D01*
X024140Y003328D01*
X024308Y003328D01*
X024464Y003393D01*
X024584Y003512D01*
X024648Y003668D01*
X024648Y003836D01*
X024584Y003992D01*
X024464Y004112D01*
X024308Y004176D01*
X024140Y004176D01*
X024364Y004153D02*
X025068Y004153D01*
X025124Y004176D02*
X024968Y004112D01*
X024849Y003992D01*
X024784Y003836D01*
X024784Y003668D01*
X024849Y003512D01*
X024968Y003393D01*
X025124Y003328D01*
X025293Y003328D01*
X025448Y003393D01*
X025568Y003512D01*
X025632Y003668D01*
X025632Y003836D01*
X025568Y003992D01*
X025448Y004112D01*
X025293Y004176D01*
X025124Y004176D01*
X025348Y004153D02*
X025944Y004153D01*
X025944Y003958D02*
X025582Y003958D01*
X025632Y003762D02*
X025944Y003762D01*
X025944Y003567D02*
X025591Y003567D01*
X025398Y003372D02*
X025944Y003372D01*
X025944Y003176D02*
X022452Y003176D01*
X022452Y002981D02*
X025944Y002981D01*
X025944Y002785D02*
X022452Y002785D01*
X022452Y002590D02*
X025944Y002590D01*
X025944Y002395D02*
X022452Y002395D01*
X022452Y002199D02*
X025944Y002199D01*
X025019Y003372D02*
X024414Y003372D01*
X024034Y003372D02*
X022452Y003372D01*
X022452Y003567D02*
X023841Y003567D01*
X023800Y003762D02*
X022452Y003762D01*
X022452Y003958D02*
X023850Y003958D01*
X024598Y003958D02*
X024834Y003958D01*
X024784Y003762D02*
X024648Y003762D01*
X024606Y003567D02*
X024826Y003567D01*
X022059Y003372D02*
X018712Y003372D01*
X018712Y003176D02*
X022059Y003176D01*
X022059Y002981D02*
X018712Y002981D01*
X018712Y002785D02*
X022059Y002785D01*
X022059Y002590D02*
X018712Y002590D01*
X018712Y002395D02*
X022059Y002395D01*
X022059Y002199D02*
X018712Y002199D01*
X018712Y002004D02*
X022059Y002004D01*
X025234Y008061D02*
X025321Y008061D01*
X024144Y010406D02*
X023966Y010406D01*
X023841Y010601D02*
X024199Y010601D01*
X023788Y011387D02*
X023046Y011387D01*
X022953Y011480D01*
X022953Y011847D01*
X023046Y011940D01*
X023788Y011940D01*
X023880Y011847D01*
X023880Y011480D01*
X023788Y011387D01*
X023880Y011578D02*
X025944Y011578D01*
X025944Y011383D02*
X021862Y011383D01*
X021862Y011578D02*
X022953Y011578D01*
X022953Y011773D02*
X021862Y011773D01*
X021862Y011969D02*
X025944Y011969D01*
X025944Y011773D02*
X023880Y011773D01*
X024186Y012401D02*
X024093Y012494D01*
X024093Y012906D01*
X024092Y012907D01*
X023807Y012907D01*
X023788Y012887D01*
X023046Y012887D01*
X022953Y012980D01*
X022953Y013347D01*
X023046Y013440D01*
X023788Y013440D01*
X023807Y013420D01*
X024249Y013420D01*
X024344Y013381D01*
X024416Y013309D01*
X024496Y013229D01*
X024908Y013229D01*
X025000Y013137D01*
X025000Y012494D01*
X024908Y012401D01*
X024186Y012401D01*
X024093Y012555D02*
X022085Y012555D01*
X022280Y012750D02*
X024093Y012750D01*
X024198Y013164D02*
X024547Y012815D01*
X025000Y012750D02*
X025944Y012750D01*
X025944Y012555D02*
X025000Y012555D01*
X025000Y012946D02*
X025944Y012946D01*
X025944Y013141D02*
X024996Y013141D01*
X024388Y013337D02*
X025944Y013337D01*
X025944Y013532D02*
X023043Y013532D01*
X023043Y013727D02*
X025933Y013727D01*
X025881Y013923D02*
X023043Y013923D01*
X023043Y014118D02*
X025777Y014118D01*
X025600Y014314D02*
X023043Y014314D01*
X023043Y014509D02*
X025172Y014509D01*
X022953Y013337D02*
X022866Y013337D01*
X022953Y013141D02*
X022671Y013141D01*
X022476Y012946D02*
X022987Y012946D01*
X023417Y013164D02*
X024198Y013164D01*
X025944Y012360D02*
X021889Y012360D01*
X021862Y012164D02*
X025944Y012164D01*
X022157Y012217D02*
X021344Y012217D01*
X021291Y012164D01*
X021291Y012664D01*
X021408Y011383D02*
X019931Y011383D01*
X019800Y011383D02*
X019797Y011383D01*
X019666Y011383D02*
X018877Y011383D01*
X019106Y011187D02*
X019106Y011187D01*
X019106Y010992D02*
X019106Y010992D01*
X019797Y010992D02*
X019800Y010992D01*
X019797Y011187D02*
X019800Y011187D01*
X020207Y011187D02*
X021408Y011187D01*
X020996Y010992D02*
X020995Y010992D01*
X020403Y010992D02*
X020289Y010992D01*
X020287Y010796D02*
X020403Y010796D01*
X017923Y010796D02*
X017853Y010796D01*
X010088Y004971D02*
X010088Y004658D01*
X009362Y003931D01*
X009362Y003752D01*
D256*
X012118Y006016D03*
X014578Y007295D03*
X012905Y008477D03*
X013200Y008772D03*
X012118Y009264D03*
X012413Y009559D03*
X012708Y011134D03*
X012708Y011528D03*
X012708Y012315D03*
X012708Y012709D03*
X015464Y012709D03*
X015464Y012315D03*
X015464Y011528D03*
X015464Y011134D03*
X021271Y013791D03*
X023633Y013693D03*
X023633Y014087D03*
X023633Y010937D03*
X025602Y010248D03*
X025602Y009756D03*
X024027Y009461D03*
X009066Y006803D03*
X003555Y008083D03*
X002767Y008083D03*
X003161Y008477D03*
X003555Y008870D03*
X002767Y008870D03*
X003161Y009264D03*
X002964Y010051D03*
X002964Y010445D03*
X005031Y012906D03*
X005622Y012906D03*
X008082Y012807D03*
X008082Y012315D03*
X002177Y013693D03*
X001488Y013693D03*
X001783Y013201D03*
D257*
X012511Y013004D02*
X012511Y012020D01*
X015661Y012020D01*
X015661Y013004D01*
X012511Y013004D01*
X012511Y012936D02*
X015661Y012936D01*
X015661Y012858D02*
X012511Y012858D01*
X012511Y012781D02*
X015661Y012781D01*
X015661Y012704D02*
X012511Y012704D01*
X012511Y012627D02*
X015661Y012627D01*
X015661Y012549D02*
X012511Y012549D01*
X012511Y012472D02*
X015661Y012472D01*
X015661Y012395D02*
X012511Y012395D01*
X012511Y012317D02*
X015661Y012317D01*
X015661Y012240D02*
X012511Y012240D01*
X012511Y012163D02*
X015661Y012163D01*
X015661Y012086D02*
X012511Y012086D01*
X012511Y011725D02*
X015661Y011725D01*
X015661Y010839D01*
X012511Y010839D01*
X012511Y011725D01*
X012511Y011699D02*
X015661Y011699D01*
X015661Y011622D02*
X012511Y011622D01*
X012511Y011545D02*
X015661Y011545D01*
X015661Y011467D02*
X012511Y011467D01*
X012511Y011390D02*
X015661Y011390D01*
X015661Y011313D02*
X012511Y011313D01*
X012511Y011235D02*
X015661Y011235D01*
X015661Y011158D02*
X012511Y011158D01*
X012511Y011081D02*
X015661Y011081D01*
X015661Y011004D02*
X012511Y011004D01*
X012511Y010926D02*
X015661Y010926D01*
X015661Y010849D02*
X012511Y010849D01*
X015267Y010849D02*
X017521Y010849D01*
X017598Y010772D02*
X016614Y010772D01*
X016547Y010839D02*
X015267Y010839D01*
X015267Y011725D01*
X016645Y011725D01*
X018023Y010347D01*
X018712Y010347D01*
X018712Y009756D01*
X017629Y009756D01*
X016547Y010839D01*
X016691Y010694D02*
X017675Y010694D01*
X017753Y010617D02*
X016768Y010617D01*
X016846Y010540D02*
X017830Y010540D01*
X017907Y010463D02*
X016923Y010463D01*
X017000Y010385D02*
X017984Y010385D01*
X018122Y010347D02*
X020090Y010347D01*
X020287Y010543D01*
X021271Y010543D01*
X021271Y010248D01*
X020582Y010248D01*
X019992Y009658D01*
X019598Y009658D01*
X019500Y009756D01*
X018220Y009756D01*
X018122Y009854D01*
X018122Y010347D01*
X018122Y010308D02*
X021271Y010308D01*
X021271Y010385D02*
X020129Y010385D01*
X020206Y010463D02*
X021271Y010463D01*
X021271Y010540D02*
X020283Y010540D01*
X020090Y010740D02*
X019992Y010642D01*
X018023Y010642D01*
X018023Y011528D01*
X019303Y011528D01*
X019696Y011134D01*
X021370Y011134D01*
X021370Y010740D01*
X020090Y010740D01*
X020044Y010694D02*
X018023Y010694D01*
X018023Y010772D02*
X021370Y010772D01*
X021370Y010849D02*
X018023Y010849D01*
X018023Y010926D02*
X021370Y010926D01*
X021370Y011004D02*
X018023Y011004D01*
X018023Y011081D02*
X021370Y011081D01*
X020565Y010231D02*
X018122Y010231D01*
X018122Y010154D02*
X020488Y010154D01*
X020410Y010076D02*
X018122Y010076D01*
X018122Y009999D02*
X020333Y009999D01*
X020256Y009922D02*
X018122Y009922D01*
X018132Y009844D02*
X020178Y009844D01*
X020101Y009767D02*
X018209Y009767D01*
X018712Y009767D02*
X017618Y009767D01*
X017541Y009844D02*
X018712Y009844D01*
X018712Y009922D02*
X017464Y009922D01*
X017387Y009999D02*
X018712Y009999D01*
X018712Y010076D02*
X017309Y010076D01*
X017232Y010154D02*
X018712Y010154D01*
X018712Y010231D02*
X017155Y010231D01*
X017077Y010308D02*
X018712Y010308D01*
X019566Y009690D02*
X020024Y009690D01*
X019672Y011158D02*
X018023Y011158D01*
X018023Y011235D02*
X019595Y011235D01*
X019518Y011313D02*
X018023Y011313D01*
X018023Y011390D02*
X019440Y011390D01*
X019363Y011467D02*
X018023Y011467D01*
X017443Y010926D02*
X015267Y010926D01*
X015267Y011004D02*
X017366Y011004D01*
X017289Y011081D02*
X015267Y011081D01*
X015267Y011158D02*
X017212Y011158D01*
X017134Y011235D02*
X015267Y011235D01*
X015267Y011313D02*
X017057Y011313D01*
X016980Y011390D02*
X015267Y011390D01*
X015267Y011467D02*
X016902Y011467D01*
X016825Y011545D02*
X015267Y011545D01*
X015267Y011622D02*
X016748Y011622D01*
X016671Y011699D02*
X015267Y011699D01*
X015267Y007099D02*
X015070Y007099D01*
X014992Y007020D01*
X014421Y007020D01*
X014440Y007000D01*
X014480Y007000D01*
X014421Y006941D01*
X014421Y006666D01*
X014480Y006606D01*
X015267Y006606D01*
X015267Y007099D01*
X015267Y007062D02*
X015034Y007062D01*
X015267Y006985D02*
X014465Y006985D01*
X014421Y006908D02*
X015267Y006908D01*
X015267Y006830D02*
X014421Y006830D01*
X014421Y006753D02*
X015267Y006753D01*
X015267Y006676D02*
X014421Y006676D01*
D258*
X015405Y007295D02*
X014799Y007902D01*
X015405Y007295D02*
X015563Y007295D01*
X015706Y007152D01*
X015706Y006882D01*
X016206Y006882D02*
X016206Y007494D01*
X016181Y007520D01*
X015799Y007902D01*
X015799Y009126D02*
X015818Y009126D01*
X015858Y009166D01*
X018811Y009166D01*
X019539Y008437D01*
X020051Y008437D01*
X020385Y008772D01*
X020385Y009166D01*
X020582Y009362D01*
X020996Y009362D01*
X020590Y009862D02*
X020189Y009461D01*
X016744Y009461D01*
X016507Y009697D01*
X015799Y009697D01*
X015129Y009697D02*
X013240Y009697D01*
X011921Y008378D01*
X011275Y008378D01*
X010799Y007902D01*
X010838Y007394D02*
X009307Y007394D01*
X008799Y007902D01*
X008484Y007217D02*
X007799Y007902D01*
X008484Y007217D02*
X010366Y007217D01*
X010588Y006994D01*
X010588Y006784D01*
X010169Y006779D02*
X008948Y006779D01*
X008948Y006744D02*
X008948Y006862D01*
X009144Y007058D01*
X010169Y007058D01*
X010169Y006508D01*
X009972Y006508D01*
X009814Y006666D01*
X009027Y006666D01*
X008948Y006744D01*
X009011Y006682D02*
X010169Y006682D01*
X010169Y006585D02*
X009895Y006585D01*
X010169Y006876D02*
X008961Y006876D01*
X009058Y006972D02*
X010169Y006972D01*
X010838Y007394D02*
X011088Y007144D01*
X011088Y006784D01*
X011799Y007902D02*
X011822Y007925D01*
X011822Y007984D01*
X012964Y009126D01*
X015129Y009126D01*
X013003Y012020D02*
X012216Y012020D01*
X011626Y012610D01*
X008771Y012610D01*
X008377Y013004D01*
X008236Y013004D01*
X008223Y013018D01*
X008132Y013055D01*
X008033Y013055D01*
X007942Y013018D01*
X007928Y013004D01*
X006901Y013004D01*
X006704Y013201D01*
X006704Y013791D01*
X007000Y013791D01*
X007000Y013693D01*
X007295Y013398D01*
X012610Y013398D01*
X013003Y013004D01*
X013003Y012020D01*
X013003Y012112D02*
X012124Y012112D01*
X012027Y012209D02*
X013003Y012209D01*
X013003Y012306D02*
X011930Y012306D01*
X011833Y012403D02*
X013003Y012403D01*
X013003Y012500D02*
X011736Y012500D01*
X011639Y012597D02*
X013003Y012597D01*
X013003Y012694D02*
X008688Y012694D01*
X008591Y012791D02*
X013003Y012791D01*
X013003Y012888D02*
X008494Y012888D01*
X008397Y012985D02*
X013003Y012985D01*
X012926Y013081D02*
X006824Y013081D01*
X006727Y013178D02*
X012829Y013178D01*
X012732Y013275D02*
X006704Y013275D01*
X006704Y013372D02*
X012635Y013372D01*
X007223Y013469D02*
X006704Y013469D01*
X006704Y013566D02*
X007126Y013566D01*
X007196Y013566D02*
X001291Y013566D01*
X001291Y013469D02*
X007170Y013469D01*
X007196Y013496D02*
X006901Y013201D01*
X004440Y013201D01*
X004145Y012906D01*
X001291Y012906D01*
X001291Y013988D01*
X006409Y013988D01*
X006606Y014185D01*
X007000Y014185D01*
X007196Y013988D01*
X007196Y013496D01*
X007196Y013663D02*
X001291Y013663D01*
X001291Y013760D02*
X007196Y013760D01*
X007196Y013857D02*
X001291Y013857D01*
X001291Y013954D02*
X007196Y013954D01*
X007134Y014051D02*
X006472Y014051D01*
X006569Y014148D02*
X007037Y014148D01*
X007000Y013760D02*
X006704Y013760D01*
X006704Y013663D02*
X007029Y013663D01*
X007073Y013372D02*
X001291Y013372D01*
X001291Y013275D02*
X006976Y013275D01*
X004418Y013178D02*
X001291Y013178D01*
X001291Y013081D02*
X004321Y013081D01*
X004224Y012985D02*
X001291Y012985D01*
X010588Y004658D02*
X010588Y003994D01*
X010346Y003752D01*
X011088Y003994D02*
X011330Y003752D01*
X011088Y003994D02*
X011088Y004658D01*
X015464Y003752D02*
X015706Y003994D01*
X015706Y004756D01*
X016206Y004756D02*
X016206Y003994D01*
X016448Y003752D01*
X024027Y009461D02*
X024126Y009362D01*
X024696Y009362D01*
X024051Y009484D02*
X024027Y009461D01*
X024216Y009862D02*
X023633Y010445D01*
X023633Y010937D01*
X024216Y009862D02*
X024696Y009862D01*
X020996Y009862D02*
X020590Y009862D01*
X021739Y013004D02*
X021745Y013026D01*
X021745Y013154D01*
X021301Y013154D01*
X021301Y013173D01*
X021745Y013173D01*
X021745Y013301D01*
X021735Y013339D01*
X021715Y013373D01*
X021688Y013401D01*
X021654Y013421D01*
X021616Y013431D01*
X021301Y013431D01*
X021301Y013174D01*
X021281Y013174D01*
X021281Y013431D01*
X020976Y013431D01*
X020976Y013595D01*
X021566Y014185D01*
X021673Y014185D01*
X021673Y013939D01*
X022029Y013939D01*
X022029Y013841D01*
X021673Y013841D01*
X021673Y013575D01*
X021683Y013537D01*
X021703Y013503D01*
X021731Y013475D01*
X021765Y013456D01*
X021803Y013445D01*
X022029Y013445D01*
X022029Y013841D01*
X022127Y013841D01*
X022127Y013445D01*
X022205Y013445D01*
X021763Y013004D01*
X021739Y013004D01*
X021745Y013081D02*
X021841Y013081D01*
X021745Y013178D02*
X021938Y013178D01*
X022035Y013275D02*
X021745Y013275D01*
X021716Y013372D02*
X022132Y013372D01*
X022127Y013469D02*
X022029Y013469D01*
X022029Y013566D02*
X022127Y013566D01*
X022127Y013663D02*
X022029Y013663D01*
X022029Y013760D02*
X022127Y013760D01*
X022029Y013857D02*
X021239Y013857D01*
X021335Y013954D02*
X021673Y013954D01*
X021673Y014051D02*
X021432Y014051D01*
X021529Y014148D02*
X021673Y014148D01*
X021673Y013760D02*
X021142Y013760D01*
X021045Y013663D02*
X021673Y013663D01*
X021675Y013566D02*
X020976Y013566D01*
X020976Y013469D02*
X021741Y013469D01*
X021301Y013372D02*
X021281Y013372D01*
X021281Y013275D02*
X021301Y013275D01*
X021301Y013178D02*
X021281Y013178D01*
M02*
