G75*
G70*
%OFA0B0*%
%FSLAX24Y24*%
%IPPOS*%
%LPD*%
%AMOC8*
5,1,8,0,0,1.08239X$1,22.5*
%
%ADD10C,0.0059*%
%ADD11C,0.0118*%
D10*
X009938Y006114D02*
X009940Y006135D01*
X009946Y006155D01*
X009955Y006173D01*
X009967Y006190D01*
X009983Y006204D01*
X010001Y006215D01*
X010020Y006223D01*
X010041Y006227D01*
X010061Y006227D01*
X010082Y006223D01*
X010101Y006215D01*
X010119Y006204D01*
X010135Y006190D01*
X010147Y006173D01*
X010156Y006155D01*
X010162Y006135D01*
X010164Y006114D01*
X010162Y006093D01*
X010156Y006073D01*
X010147Y006055D01*
X010135Y006038D01*
X010119Y006024D01*
X010101Y006013D01*
X010082Y006005D01*
X010061Y006001D01*
X010041Y006001D01*
X010020Y006005D01*
X010001Y006013D01*
X009983Y006024D01*
X009967Y006038D01*
X009955Y006055D01*
X009946Y006073D01*
X009940Y006093D01*
X009938Y006114D01*
X015056Y006213D02*
X015058Y006234D01*
X015064Y006254D01*
X015073Y006272D01*
X015085Y006289D01*
X015101Y006303D01*
X015119Y006314D01*
X015138Y006322D01*
X015159Y006326D01*
X015179Y006326D01*
X015200Y006322D01*
X015219Y006314D01*
X015237Y006303D01*
X015253Y006289D01*
X015265Y006272D01*
X015274Y006254D01*
X015280Y006234D01*
X015282Y006213D01*
X015280Y006192D01*
X015274Y006172D01*
X015265Y006154D01*
X015253Y006137D01*
X015237Y006123D01*
X015219Y006112D01*
X015200Y006104D01*
X015179Y006100D01*
X015159Y006100D01*
X015138Y006104D01*
X015119Y006112D01*
X015101Y006123D01*
X015085Y006137D01*
X015073Y006154D01*
X015064Y006172D01*
X015058Y006192D01*
X015056Y006213D01*
X022635Y013201D02*
X022637Y013222D01*
X022643Y013242D01*
X022652Y013260D01*
X022664Y013277D01*
X022680Y013291D01*
X022698Y013302D01*
X022717Y013310D01*
X022738Y013314D01*
X022758Y013314D01*
X022779Y013310D01*
X022798Y013302D01*
X022816Y013291D01*
X022832Y013277D01*
X022844Y013260D01*
X022853Y013242D01*
X022859Y013222D01*
X022861Y013201D01*
X022859Y013180D01*
X022853Y013160D01*
X022844Y013142D01*
X022832Y013125D01*
X022816Y013111D01*
X022798Y013100D01*
X022779Y013092D01*
X022758Y013088D01*
X022738Y013088D01*
X022717Y013092D01*
X022698Y013100D01*
X022680Y013111D01*
X022664Y013125D01*
X022652Y013142D01*
X022643Y013160D01*
X022637Y013180D01*
X022635Y013201D01*
D11*
X021665Y007473D02*
X021667Y007494D01*
X021673Y007514D01*
X021682Y007534D01*
X021694Y007551D01*
X021709Y007565D01*
X021727Y007577D01*
X021747Y007585D01*
X021767Y007590D01*
X021788Y007591D01*
X021809Y007588D01*
X021829Y007582D01*
X021848Y007571D01*
X021865Y007558D01*
X021878Y007542D01*
X021889Y007524D01*
X021897Y007504D01*
X021901Y007484D01*
X021901Y007462D01*
X021897Y007442D01*
X021889Y007422D01*
X021878Y007404D01*
X021865Y007388D01*
X021848Y007375D01*
X021829Y007364D01*
X021809Y007358D01*
X021788Y007355D01*
X021767Y007356D01*
X021747Y007361D01*
X021727Y007369D01*
X021709Y007381D01*
X021694Y007395D01*
X021682Y007412D01*
X021673Y007432D01*
X021667Y007452D01*
X021665Y007473D01*
M02*
