G75*
G70*
%OFA0B0*%
%FSLAX24Y24*%
%IPPOS*%
%LPD*%
%AMOC8*
5,1,8,0,0,1.08239X$1,22.5*
%
%ADD10R,0.0680X0.0680*%
%ADD11C,0.0680*%
%ADD12R,0.0474X0.0513*%
%ADD13R,0.0671X0.0592*%
%ADD14R,0.0611X0.0611*%
%ADD15C,0.0611*%
%ADD16R,0.0316X0.0690*%
%ADD17R,0.0867X0.0316*%
%ADD18R,0.0690X0.0316*%
%ADD19R,0.0592X0.0671*%
%ADD20R,0.0333X0.0011*%
%ADD21R,0.0511X0.0011*%
%ADD22R,0.0644X0.0011*%
%ADD23R,0.0756X0.0011*%
%ADD24R,0.0867X0.0011*%
%ADD25R,0.0933X0.0011*%
%ADD26R,0.1022X0.0011*%
%ADD27R,0.1089X0.0011*%
%ADD28R,0.0478X0.0011*%
%ADD29R,0.0389X0.0011*%
%ADD30R,0.0389X0.0011*%
%ADD31R,0.0356X0.0011*%
%ADD32R,0.0355X0.0011*%
%ADD33R,0.0311X0.0011*%
%ADD34R,0.0300X0.0011*%
%ADD35R,0.0277X0.0011*%
%ADD36R,0.0278X0.0011*%
%ADD37R,0.0267X0.0011*%
%ADD38R,0.0266X0.0011*%
%ADD39R,0.0245X0.0011*%
%ADD40R,0.0244X0.0011*%
%ADD41R,0.0233X0.0011*%
%ADD42R,0.0234X0.0011*%
%ADD43R,0.0178X0.0011*%
%ADD44R,0.0177X0.0011*%
%ADD45R,0.0233X0.0011*%
%ADD46R,0.0223X0.0011*%
%ADD47R,0.0144X0.0011*%
%ADD48R,0.0145X0.0011*%
%ADD49R,0.0222X0.0011*%
%ADD50R,0.0211X0.0011*%
%ADD51R,0.0134X0.0011*%
%ADD52R,0.0133X0.0011*%
%ADD53R,0.0111X0.0011*%
%ADD54R,0.0111X0.0011*%
%ADD55R,0.0212X0.0011*%
%ADD56R,0.0211X0.0011*%
%ADD57R,0.0100X0.0011*%
%ADD58R,0.0211X0.0011*%
%ADD59R,0.0200X0.0011*%
%ADD60R,0.0100X0.0011*%
%ADD61R,0.0189X0.0011*%
%ADD62R,0.0189X0.0011*%
%ADD63R,0.0089X0.0011*%
%ADD64R,0.0089X0.0011*%
%ADD65R,0.0178X0.0011*%
%ADD66R,0.0188X0.0011*%
%ADD67R,0.0078X0.0011*%
%ADD68R,0.0077X0.0011*%
%ADD69R,0.0078X0.0011*%
%ADD70R,0.0167X0.0011*%
%ADD71R,0.0067X0.0011*%
%ADD72R,0.0167X0.0011*%
%ADD73R,0.0067X0.0011*%
%ADD74R,0.0066X0.0011*%
%ADD75R,0.0166X0.0011*%
%ADD76R,0.0167X0.0011*%
%ADD77R,0.0067X0.0011*%
%ADD78R,0.0166X0.0011*%
%ADD79R,0.0066X0.0011*%
%ADD80R,0.0155X0.0011*%
%ADD81R,0.0156X0.0011*%
%ADD82R,0.0056X0.0011*%
%ADD83R,0.0055X0.0011*%
%ADD84R,0.0066X0.0011*%
%ADD85R,0.0156X0.0011*%
%ADD86R,0.0056X0.0011*%
%ADD87R,0.0144X0.0011*%
%ADD88R,0.0156X0.0011*%
%ADD89R,0.0055X0.0011*%
%ADD90R,0.0056X0.0011*%
%ADD91R,0.0045X0.0011*%
%ADD92R,0.0044X0.0011*%
%ADD93R,0.0134X0.0011*%
%ADD94R,0.0044X0.0011*%
%ADD95R,0.0133X0.0011*%
%ADD96R,0.0133X0.0011*%
%ADD97R,0.0134X0.0011*%
%ADD98R,0.0122X0.0011*%
%ADD99R,0.0122X0.0011*%
%ADD100R,0.0045X0.0011*%
%ADD101R,0.0044X0.0011*%
%ADD102R,0.0123X0.0011*%
%ADD103R,0.0122X0.0011*%
%ADD104R,0.0033X0.0011*%
%ADD105R,0.0034X0.0011*%
%ADD106R,0.0034X0.0011*%
%ADD107R,0.0111X0.0011*%
%ADD108R,0.0044X0.0011*%
%ADD109R,0.0033X0.0011*%
%ADD110R,0.0112X0.0011*%
%ADD111R,0.0111X0.0011*%
%ADD112R,0.0378X0.0011*%
%ADD113R,0.0178X0.0011*%
%ADD114R,0.0112X0.0011*%
%ADD115R,0.0466X0.0011*%
%ADD116R,0.0222X0.0011*%
%ADD117R,0.0534X0.0011*%
%ADD118R,0.0255X0.0011*%
%ADD119R,0.0589X0.0011*%
%ADD120R,0.0289X0.0011*%
%ADD121R,0.0633X0.0011*%
%ADD122R,0.0311X0.0011*%
%ADD123R,0.0677X0.0011*%
%ADD124R,0.0345X0.0011*%
%ADD125R,0.0723X0.0011*%
%ADD126R,0.0367X0.0011*%
%ADD127R,0.0756X0.0011*%
%ADD128R,0.0789X0.0011*%
%ADD129R,0.0411X0.0011*%
%ADD130R,0.0822X0.0011*%
%ADD131R,0.0433X0.0011*%
%ADD132R,0.0855X0.0011*%
%ADD133R,0.0433X0.0011*%
%ADD134R,0.0877X0.0011*%
%ADD135R,0.0455X0.0011*%
%ADD136R,0.0900X0.0011*%
%ADD137R,0.0934X0.0011*%
%ADD138R,0.0489X0.0011*%
%ADD139R,0.0956X0.0011*%
%ADD140R,0.0511X0.0011*%
%ADD141R,0.0978X0.0011*%
%ADD142R,0.0989X0.0011*%
%ADD143R,0.0523X0.0011*%
%ADD144R,0.1011X0.0011*%
%ADD145R,0.0534X0.0011*%
%ADD146R,0.0033X0.0011*%
%ADD147R,0.1033X0.0011*%
%ADD148R,0.0523X0.0011*%
%ADD149R,0.0034X0.0011*%
%ADD150R,0.1044X0.0011*%
%ADD151R,0.0500X0.0011*%
%ADD152R,0.0567X0.0011*%
%ADD153R,0.0378X0.0011*%
%ADD154R,0.0478X0.0011*%
%ADD155R,0.0334X0.0011*%
%ADD156R,0.0456X0.0011*%
%ADD157R,0.0489X0.0011*%
%ADD158R,0.0444X0.0011*%
%ADD159R,0.0722X0.0011*%
%ADD160R,0.0689X0.0011*%
%ADD161R,0.0656X0.0011*%
%ADD162R,0.0433X0.0011*%
%ADD163R,0.0622X0.0011*%
%ADD164R,0.0034X0.0011*%
%ADD165R,0.0411X0.0011*%
%ADD166R,0.0589X0.0011*%
%ADD167R,0.0022X0.0011*%
%ADD168R,0.0400X0.0011*%
%ADD169R,0.0567X0.0011*%
%ADD170R,0.0545X0.0011*%
%ADD171R,0.0477X0.0011*%
%ADD172R,0.0466X0.0011*%
%ADD173R,0.0088X0.0011*%
%ADD174R,0.0367X0.0011*%
%ADD175R,0.0033X0.0011*%
%ADD176R,0.0422X0.0011*%
%ADD177R,0.0411X0.0011*%
%ADD178R,0.0022X0.0011*%
%ADD179R,0.0023X0.0011*%
%ADD180R,0.0356X0.0011*%
%ADD181R,0.0356X0.0011*%
%ADD182R,0.0344X0.0011*%
%ADD183R,0.0344X0.0011*%
%ADD184R,0.0333X0.0011*%
%ADD185R,0.0089X0.0011*%
%ADD186R,0.0355X0.0011*%
%ADD187R,0.0333X0.0011*%
%ADD188R,0.0088X0.0011*%
%ADD189R,0.0366X0.0011*%
%ADD190R,0.0366X0.0011*%
%ADD191R,0.0022X0.0011*%
%ADD192R,0.0089X0.0011*%
%ADD193R,0.0412X0.0011*%
%ADD194R,0.0422X0.0011*%
%ADD195R,0.0444X0.0011*%
%ADD196R,0.0456X0.0011*%
%ADD197R,0.0467X0.0011*%
%ADD198R,0.0544X0.0011*%
%ADD199R,0.0556X0.0011*%
%ADD200R,0.0589X0.0011*%
%ADD201R,0.0623X0.0011*%
%ADD202R,0.1111X0.0011*%
%ADD203R,0.1056X0.0011*%
%ADD204R,0.1033X0.0011*%
%ADD205R,0.1000X0.0011*%
%ADD206R,0.0967X0.0011*%
%ADD207R,0.0933X0.0011*%
%ADD208R,0.0900X0.0011*%
%ADD209R,0.0867X0.0011*%
%ADD210R,0.0822X0.0011*%
%ADD211R,0.0778X0.0011*%
%ADD212R,0.0678X0.0011*%
%ADD213R,0.0444X0.0011*%
%ADD214R,0.0023X0.0011*%
%ADD215R,0.0166X0.0011*%
%ADD216R,0.0223X0.0011*%
%ADD217R,0.0345X0.0011*%
%ADD218R,0.0234X0.0011*%
%ADD219R,0.0244X0.0011*%
%ADD220R,0.0289X0.0011*%
%ADD221R,0.0311X0.0011*%
%ADD222R,0.0500X0.0011*%
%ADD223R,0.0578X0.0011*%
%ADD224R,0.1100X0.0011*%
%ADD225R,0.1078X0.0011*%
%ADD226R,0.1056X0.0011*%
%ADD227R,0.1045X0.0011*%
%ADD228R,0.1033X0.0011*%
%ADD229R,0.1011X0.0011*%
%ADD230R,0.1000X0.0011*%
%ADD231R,0.0934X0.0011*%
%ADD232R,0.0911X0.0011*%
%ADD233R,0.0889X0.0011*%
%ADD234R,0.0856X0.0011*%
%ADD235R,0.0823X0.0011*%
%ADD236R,0.0777X0.0011*%
%ADD237R,0.0689X0.0011*%
%ADD238R,0.0566X0.0011*%
%ADD239R,0.0377X0.0011*%
%ADD240R,0.0123X0.0011*%
%ADD241R,0.0145X0.0011*%
%ADD242R,0.0056X0.0011*%
%ADD243R,0.0144X0.0011*%
%ADD244R,0.0167X0.0011*%
%ADD245R,0.0078X0.0011*%
%ADD246R,0.0200X0.0011*%
%ADD247R,0.0256X0.0011*%
%ADD248R,0.0312X0.0011*%
%ADD249R,0.0344X0.0011*%
%ADD250R,0.0434X0.0011*%
%ADD251R,0.0800X0.0011*%
%ADD252R,0.0689X0.0011*%
%ADD253C,0.3080*%
D10*
X006799Y007902D03*
D11*
X007799Y007902D03*
X008799Y007902D03*
X009799Y007902D03*
X010799Y007902D03*
X011799Y007902D03*
X012799Y007902D03*
X013799Y007902D03*
X014799Y007902D03*
X015799Y007902D03*
X016799Y007902D03*
X017799Y007902D03*
X018799Y007902D03*
X019799Y007902D03*
X019799Y008902D03*
X019799Y009902D03*
X019799Y010902D03*
X019799Y012902D03*
X019799Y013902D03*
X018799Y013902D03*
X017799Y013902D03*
X016799Y013902D03*
X015799Y013902D03*
X014799Y013902D03*
X013799Y013902D03*
X012799Y013902D03*
X011799Y013902D03*
X010799Y013902D03*
X009799Y013902D03*
X008799Y013902D03*
X007799Y013902D03*
X006799Y013902D03*
D12*
X015129Y009697D03*
X015799Y009697D03*
X015799Y009126D03*
X015129Y009126D03*
X014578Y006843D03*
X014578Y006173D03*
X014578Y005268D03*
X014578Y004599D03*
X012216Y004599D03*
X012216Y005268D03*
X009559Y006173D03*
X009559Y006843D03*
X019106Y010209D03*
X019106Y010878D03*
X025602Y008417D03*
X025602Y007748D03*
D13*
X018417Y010268D03*
X018417Y011016D03*
X024547Y012067D03*
X024547Y012815D03*
D14*
X001685Y003752D03*
X009362Y003752D03*
X014480Y003752D03*
X023240Y003752D03*
D15*
X024224Y003752D03*
X025208Y003752D03*
X017433Y003752D03*
X016448Y003752D03*
X015464Y003752D03*
X012314Y003752D03*
X011330Y003752D03*
X010346Y003752D03*
X002669Y003752D03*
D16*
X010088Y004658D03*
X010588Y004658D03*
X011088Y004658D03*
X011588Y004658D03*
X011588Y006784D03*
X011088Y006784D03*
X010588Y006784D03*
X010088Y006784D03*
X015206Y006882D03*
X015706Y006882D03*
X016206Y006882D03*
X016706Y006882D03*
X016706Y004756D03*
X016206Y004756D03*
X015706Y004756D03*
X015206Y004756D03*
D17*
X020996Y007362D03*
X020996Y007862D03*
X020996Y008362D03*
X020996Y008862D03*
X020996Y009362D03*
X020996Y009862D03*
X020996Y010362D03*
X020996Y010862D03*
X024696Y010862D03*
X024696Y010362D03*
X024696Y009862D03*
X024696Y009362D03*
X024696Y008862D03*
X024696Y008362D03*
X024696Y007862D03*
X024696Y007362D03*
D18*
X023417Y011664D03*
X023417Y012164D03*
X023417Y012664D03*
X023417Y013164D03*
X021291Y013164D03*
X021291Y012664D03*
X021291Y012164D03*
X021291Y011664D03*
D19*
X022078Y013890D03*
X022826Y013890D03*
D20*
X006156Y008896D03*
X006156Y008740D03*
D21*
X006156Y008751D03*
X006156Y008907D03*
X006689Y009907D03*
X006511Y010529D03*
X005789Y010762D03*
D22*
X006156Y008918D03*
X006156Y008762D03*
D23*
X006156Y008773D03*
D24*
X006156Y008785D03*
D25*
X006156Y008796D03*
D26*
X006156Y008807D03*
D27*
X006156Y008818D03*
X006078Y010607D03*
X006189Y011307D03*
D28*
X006562Y010507D03*
X005517Y009807D03*
X005817Y008829D03*
X006495Y008829D03*
D29*
X006572Y008840D03*
X005517Y009751D03*
X005717Y010107D03*
X005717Y010118D03*
X006717Y010396D03*
X006795Y010029D03*
X006795Y010018D03*
X005772Y011196D03*
D30*
X006728Y010385D03*
X005739Y008840D03*
D31*
X006623Y008851D03*
X006823Y010140D03*
X006823Y010151D03*
X006823Y010162D03*
X006823Y010185D03*
X006823Y010196D03*
X005723Y011085D03*
X005723Y011096D03*
D32*
X006778Y010318D03*
X006789Y010296D03*
X006800Y010262D03*
X005689Y008851D03*
D33*
X005645Y008862D03*
X006667Y008862D03*
D34*
X006706Y008873D03*
X005606Y008873D03*
D35*
X006739Y008885D03*
D36*
X005573Y008885D03*
X006451Y009662D03*
X006617Y011240D03*
X006606Y011251D03*
X006751Y012151D03*
X006717Y012162D03*
X005595Y012162D03*
X005562Y012151D03*
D37*
X006767Y008896D03*
D38*
X005545Y008896D03*
X006623Y011218D03*
X006623Y011229D03*
D39*
X005500Y012129D03*
X006800Y008907D03*
D40*
X005512Y008907D03*
X006656Y011140D03*
X006656Y011151D03*
X006812Y012129D03*
D41*
X006839Y012118D03*
X005450Y012107D03*
X006850Y008929D03*
X006828Y008918D03*
D42*
X005484Y008918D03*
D43*
X006434Y008929D03*
X005234Y011996D03*
D44*
X007078Y011996D03*
X007089Y009051D03*
X005878Y008929D03*
D45*
X005461Y008929D03*
X006661Y011118D03*
X006661Y011129D03*
X006861Y012107D03*
D46*
X006889Y012096D03*
X006378Y012118D03*
X006678Y011085D03*
X006878Y008940D03*
D47*
X006495Y008940D03*
X007273Y009185D03*
X007295Y009207D03*
X005073Y009162D03*
X004973Y011796D03*
X005795Y012096D03*
X007273Y011851D03*
D48*
X007339Y011796D03*
X007350Y011785D03*
X006517Y012096D03*
X005050Y011862D03*
X005039Y011851D03*
X005028Y011840D03*
X005017Y009207D03*
X005028Y009196D03*
X005039Y009185D03*
X005817Y008940D03*
X007228Y009151D03*
X007239Y009162D03*
D49*
X005434Y008940D03*
X005934Y012118D03*
D50*
X005406Y008951D03*
X006906Y008951D03*
X006928Y008962D03*
D51*
X006545Y008951D03*
X007323Y009229D03*
X007345Y009251D03*
X007423Y009329D03*
X007445Y009351D03*
X004923Y009296D03*
X007323Y011807D03*
D52*
X007300Y011829D03*
X005000Y011818D03*
X004989Y011807D03*
X004867Y009351D03*
X004878Y009340D03*
X004889Y009329D03*
X004900Y009318D03*
X004967Y009251D03*
X004978Y009240D03*
X004989Y009229D03*
X005767Y008951D03*
X007378Y009285D03*
X007389Y009296D03*
X007400Y009307D03*
D53*
X007511Y009429D03*
X007556Y009485D03*
X007578Y009518D03*
X007589Y009529D03*
X007589Y009540D03*
X007611Y009562D03*
X007656Y009640D03*
X007689Y009696D03*
X007711Y009740D03*
X006589Y008962D03*
X004756Y009485D03*
X004711Y009551D03*
X004689Y009585D03*
X004678Y009596D03*
X004678Y009607D03*
X004656Y009640D03*
X004611Y009718D03*
X004589Y009762D03*
X004578Y009785D03*
X006678Y011007D03*
X007578Y011518D03*
X007589Y011507D03*
X007556Y011551D03*
X007656Y011407D03*
X007678Y011362D03*
X007689Y011340D03*
X007756Y011207D03*
X004789Y011596D03*
X004778Y011585D03*
X004756Y011551D03*
X004711Y011496D03*
X004711Y011485D03*
X004689Y011462D03*
X004689Y011451D03*
X004678Y011440D03*
X004656Y011407D03*
X004611Y011318D03*
X004556Y011207D03*
D54*
X004567Y011229D03*
X004622Y011340D03*
X004645Y011385D03*
X004667Y011418D03*
X004722Y011507D03*
X004745Y011540D03*
X007522Y011596D03*
X007567Y011540D03*
X007600Y011496D03*
X007600Y011485D03*
X007622Y011462D03*
X007622Y011451D03*
X007645Y011418D03*
X007667Y011385D03*
X007700Y011318D03*
X007745Y011229D03*
X007722Y009762D03*
X007700Y009718D03*
X007667Y009662D03*
X007667Y009651D03*
X007645Y009618D03*
X007622Y009585D03*
X007600Y009551D03*
X007567Y009507D03*
X005722Y008962D03*
X004800Y009429D03*
X004745Y009507D03*
X004722Y009529D03*
X004722Y009540D03*
X004700Y009562D03*
X004667Y009618D03*
X004645Y009651D03*
X004645Y009662D03*
X004622Y009696D03*
X004600Y009740D03*
D55*
X005384Y008962D03*
X006684Y011062D03*
D56*
X006950Y008973D03*
D57*
X006628Y008973D03*
X005684Y008973D03*
X004584Y009773D03*
X004540Y009873D03*
X004506Y009973D03*
X004473Y010073D03*
X004451Y010173D03*
X004417Y010473D03*
X004417Y010573D03*
X004451Y010873D03*
X004473Y010973D03*
X004506Y011073D03*
X004540Y011173D03*
X004584Y011273D03*
X004640Y011373D03*
X007673Y011373D03*
X007728Y011273D03*
X007773Y011173D03*
X007806Y011073D03*
X007840Y010973D03*
X007862Y010873D03*
X007895Y010573D03*
X007895Y010473D03*
X007862Y010173D03*
X007840Y010073D03*
X007806Y009973D03*
X007773Y009873D03*
X007728Y009773D03*
D58*
X005361Y008973D03*
D59*
X005345Y008985D03*
X006967Y008985D03*
X006678Y011051D03*
X007001Y012040D03*
X006978Y012051D03*
X006956Y012062D03*
X005356Y012062D03*
X005334Y012051D03*
X005312Y012040D03*
D60*
X005606Y012040D03*
X005640Y012051D03*
X005673Y012062D03*
X006640Y012062D03*
X006673Y012051D03*
X006706Y012040D03*
X007640Y011429D03*
X007662Y011396D03*
X007684Y011351D03*
X007695Y011329D03*
X007706Y011307D03*
X007717Y011296D03*
X007717Y011285D03*
X007728Y011262D03*
X007740Y011251D03*
X007740Y011240D03*
X007751Y011218D03*
X007762Y011196D03*
X007762Y011185D03*
X007773Y011162D03*
X007773Y011151D03*
X007784Y011140D03*
X007784Y011129D03*
X007795Y011118D03*
X007795Y011107D03*
X007795Y011096D03*
X007806Y011085D03*
X007806Y011062D03*
X007817Y011051D03*
X007817Y011040D03*
X007817Y011029D03*
X007828Y011007D03*
X007828Y010996D03*
X007840Y010962D03*
X007840Y010951D03*
X007851Y010929D03*
X007851Y010918D03*
X007851Y010907D03*
X007862Y010885D03*
X007862Y010862D03*
X007873Y010818D03*
X007873Y010807D03*
X007873Y010796D03*
X007884Y010751D03*
X007884Y010740D03*
X007884Y010729D03*
X007884Y010718D03*
X007895Y010640D03*
X007895Y010629D03*
X007895Y010618D03*
X007895Y010607D03*
X007895Y010596D03*
X007895Y010585D03*
X007895Y010562D03*
X007895Y010551D03*
X007895Y010540D03*
X007895Y010529D03*
X007895Y010518D03*
X007895Y010507D03*
X007895Y010496D03*
X007895Y010485D03*
X007895Y010462D03*
X007895Y010451D03*
X007895Y010440D03*
X007895Y010429D03*
X007895Y010418D03*
X007895Y010407D03*
X007884Y010318D03*
X007884Y010307D03*
X007884Y010296D03*
X007873Y010240D03*
X007873Y010229D03*
X007873Y010218D03*
X007862Y010185D03*
X007862Y010162D03*
X007851Y010129D03*
X007851Y010118D03*
X007840Y010085D03*
X007840Y010062D03*
X007828Y010040D03*
X007828Y010029D03*
X007817Y010007D03*
X007817Y009996D03*
X007806Y009962D03*
X007795Y009940D03*
X007795Y009929D03*
X007784Y009907D03*
X007784Y009896D03*
X007773Y009885D03*
X007773Y009862D03*
X007762Y009851D03*
X007762Y009840D03*
X007751Y009829D03*
X007751Y009818D03*
X007740Y009807D03*
X007740Y009796D03*
X007717Y009751D03*
X007706Y009729D03*
X007695Y009707D03*
X007684Y009685D03*
X007651Y009629D03*
X006695Y008996D03*
X006662Y008985D03*
X005651Y008985D03*
X005617Y008996D03*
X004662Y009629D03*
X004628Y009685D03*
X004617Y009707D03*
X004606Y009729D03*
X004595Y009751D03*
X004573Y009796D03*
X004573Y009807D03*
X004562Y009818D03*
X004562Y009829D03*
X004551Y009840D03*
X004551Y009851D03*
X004540Y009862D03*
X004540Y009885D03*
X004528Y009896D03*
X004528Y009907D03*
X004517Y009929D03*
X004517Y009940D03*
X004506Y009962D03*
X004495Y009996D03*
X004495Y010007D03*
X004484Y010029D03*
X004484Y010040D03*
X004473Y010062D03*
X004473Y010085D03*
X004462Y010118D03*
X004462Y010129D03*
X004451Y010162D03*
X004451Y010185D03*
X004440Y010218D03*
X004440Y010229D03*
X004440Y010240D03*
X004428Y010296D03*
X004428Y010307D03*
X004428Y010318D03*
X004417Y010407D03*
X004417Y010418D03*
X004417Y010429D03*
X004417Y010440D03*
X004417Y010451D03*
X004417Y010462D03*
X004417Y010485D03*
X004417Y010496D03*
X004417Y010507D03*
X004417Y010518D03*
X004417Y010529D03*
X004417Y010540D03*
X004417Y010551D03*
X004417Y010562D03*
X004417Y010585D03*
X004417Y010596D03*
X004417Y010607D03*
X004417Y010618D03*
X004417Y010629D03*
X004417Y010640D03*
X004428Y010718D03*
X004428Y010729D03*
X004428Y010740D03*
X004428Y010751D03*
X004440Y010796D03*
X004440Y010807D03*
X004440Y010818D03*
X004451Y010862D03*
X004451Y010885D03*
X004462Y010907D03*
X004462Y010918D03*
X004462Y010929D03*
X004473Y010951D03*
X004473Y010962D03*
X004484Y010996D03*
X004484Y011007D03*
X004495Y011029D03*
X004495Y011040D03*
X004495Y011051D03*
X004506Y011062D03*
X004506Y011085D03*
X004517Y011096D03*
X004517Y011107D03*
X004517Y011118D03*
X004528Y011129D03*
X004528Y011140D03*
X004540Y011151D03*
X004540Y011162D03*
X004551Y011185D03*
X004551Y011196D03*
X004562Y011218D03*
X004573Y011240D03*
X004573Y011251D03*
X004584Y011262D03*
X004595Y011285D03*
X004595Y011296D03*
X004606Y011307D03*
X004617Y011329D03*
X004628Y011351D03*
X004651Y011396D03*
X004673Y011429D03*
D61*
X005272Y012018D03*
X005295Y012029D03*
X007017Y012029D03*
X007050Y009029D03*
X006995Y008996D03*
X005317Y008996D03*
D62*
X005261Y009029D03*
X007006Y009007D03*
X007028Y009018D03*
X007039Y012018D03*
D63*
X005545Y012018D03*
X004467Y010940D03*
X004445Y010851D03*
X004445Y010840D03*
X004445Y010829D03*
X004422Y010707D03*
X004422Y010696D03*
X004422Y010685D03*
X004422Y010662D03*
X004422Y010651D03*
X004422Y010396D03*
X004422Y010385D03*
X004422Y010362D03*
X004422Y010351D03*
X004422Y010340D03*
X004422Y010329D03*
X004445Y010207D03*
X004445Y010196D03*
X004467Y010107D03*
X004467Y010096D03*
X004500Y009985D03*
X004522Y009918D03*
X006722Y009007D03*
X007800Y009951D03*
X007822Y010018D03*
X007845Y010096D03*
X007845Y010107D03*
X007867Y010196D03*
X007867Y010207D03*
X007867Y010829D03*
X007867Y010840D03*
X007867Y010851D03*
X007845Y010940D03*
X007822Y011018D03*
D64*
X007856Y010896D03*
X007878Y010785D03*
X007878Y010762D03*
X007889Y010707D03*
X007889Y010696D03*
X007889Y010685D03*
X007889Y010662D03*
X007889Y010651D03*
X007889Y010396D03*
X007889Y010385D03*
X007889Y010362D03*
X007889Y010351D03*
X007889Y010340D03*
X007889Y010329D03*
X007878Y010285D03*
X007878Y010262D03*
X007878Y010251D03*
X007856Y010151D03*
X007856Y010140D03*
X007811Y009985D03*
X007789Y009918D03*
X006756Y009018D03*
X005589Y009007D03*
X005556Y009018D03*
X004511Y009951D03*
X004489Y010018D03*
X004478Y010051D03*
X004456Y010140D03*
X004456Y010151D03*
X004456Y010896D03*
X004478Y010985D03*
X004489Y011018D03*
X005578Y012029D03*
X006156Y012307D03*
D65*
X005856Y012107D03*
X005256Y012007D03*
X007056Y012007D03*
X007067Y009040D03*
X005301Y009007D03*
X005245Y009040D03*
X005223Y009051D03*
D66*
X005284Y009018D03*
X006684Y011040D03*
D67*
X006784Y009029D03*
X005484Y009051D03*
D68*
X005528Y009029D03*
X006828Y009051D03*
X006839Y011985D03*
D69*
X006817Y011996D03*
X006795Y012007D03*
X006762Y012018D03*
X005517Y012007D03*
X005495Y011996D03*
X005473Y011985D03*
X005506Y009040D03*
X006806Y009040D03*
D70*
X007106Y009062D03*
X005206Y009062D03*
X005161Y009096D03*
X007161Y011940D03*
X006461Y012107D03*
D71*
X006911Y011951D03*
X005411Y009085D03*
X005456Y009062D03*
X006856Y009062D03*
D72*
X007117Y009073D03*
D73*
X006878Y009073D03*
D74*
X005434Y009073D03*
D75*
X005195Y009073D03*
D76*
X007139Y009085D03*
X007150Y009096D03*
X007139Y011951D03*
X007128Y011962D03*
X005217Y011985D03*
X005150Y011940D03*
D77*
X005289Y011885D03*
X005400Y011951D03*
X006889Y011962D03*
X006967Y011918D03*
X006989Y011907D03*
X006978Y009129D03*
X006900Y009085D03*
X005389Y009096D03*
X005367Y009107D03*
X005278Y009162D03*
D78*
X005173Y009085D03*
X005173Y011951D03*
X007095Y011985D03*
D79*
X007023Y011885D03*
X005423Y011962D03*
X005345Y011918D03*
X005323Y011907D03*
X006923Y009096D03*
X006945Y009107D03*
D80*
X007167Y009107D03*
X007189Y009118D03*
X007200Y009129D03*
X005100Y009140D03*
X005078Y011885D03*
X005089Y011896D03*
X007178Y011929D03*
X007189Y011918D03*
X007200Y011907D03*
D81*
X007223Y011896D03*
X005123Y011918D03*
X005123Y009118D03*
X005145Y009107D03*
D82*
X005184Y009229D03*
X006962Y009118D03*
X007084Y009196D03*
X007284Y009362D03*
X007162Y011785D03*
X007106Y011829D03*
X007062Y011862D03*
X007006Y011896D03*
X005384Y011940D03*
X005362Y011929D03*
X005306Y011896D03*
X005206Y011829D03*
X005162Y011796D03*
X005084Y011729D03*
D83*
X005150Y011785D03*
X005239Y011851D03*
X005250Y011862D03*
X006928Y011940D03*
X006950Y011929D03*
X007117Y011818D03*
X007150Y011796D03*
X007217Y011740D03*
X007228Y011729D03*
X007128Y009229D03*
X007117Y009218D03*
X007017Y009151D03*
X005350Y009118D03*
X005317Y009140D03*
X005228Y009196D03*
X005217Y009207D03*
X005139Y009262D03*
X005039Y009351D03*
X005028Y009362D03*
D84*
X005334Y009129D03*
X007034Y009162D03*
D85*
X007212Y009140D03*
X005112Y009129D03*
X005112Y011907D03*
X005134Y011929D03*
X006156Y012151D03*
X007234Y011885D03*
D86*
X007073Y011851D03*
X005195Y011818D03*
X005095Y011740D03*
X007273Y009351D03*
X007173Y009262D03*
X007095Y009207D03*
X006995Y009140D03*
X005295Y009151D03*
X005195Y009218D03*
D87*
X005084Y009151D03*
X005006Y009218D03*
X007284Y009196D03*
X007306Y009218D03*
X006684Y011018D03*
X007284Y011840D03*
X007262Y011862D03*
X004962Y011785D03*
D88*
X005056Y009173D03*
X007256Y009173D03*
D89*
X007050Y009173D03*
X005128Y009273D03*
X007039Y011873D03*
D90*
X007184Y009273D03*
X005262Y009173D03*
D91*
X005167Y009240D03*
X005100Y009296D03*
X005089Y009307D03*
X005078Y009318D03*
X005067Y009329D03*
X005000Y009385D03*
X004978Y009418D03*
X004967Y009429D03*
X004889Y009518D03*
X004878Y009529D03*
X004867Y009540D03*
X004800Y009640D03*
X004689Y009840D03*
X004678Y009862D03*
X004667Y011151D03*
X004789Y011385D03*
X004867Y011496D03*
X004878Y011507D03*
X004900Y011540D03*
X004967Y011618D03*
X004978Y011629D03*
X004989Y011640D03*
X005000Y011651D03*
X005067Y011718D03*
X005178Y011807D03*
X007089Y011840D03*
X007189Y011762D03*
X007200Y011751D03*
X007267Y011696D03*
X007278Y011685D03*
X007300Y011662D03*
X007389Y011562D03*
X007400Y011551D03*
X007467Y011462D03*
X007478Y011451D03*
X007500Y011418D03*
X007667Y011096D03*
X007578Y009751D03*
X007567Y009729D03*
X007489Y009607D03*
X007400Y009485D03*
X007378Y009462D03*
X007367Y009451D03*
X007200Y009285D03*
X007067Y009185D03*
D92*
X007145Y009240D03*
X007223Y009307D03*
X007245Y009329D03*
X007345Y009429D03*
X007423Y009518D03*
X007445Y009540D03*
X007623Y009840D03*
X007645Y011151D03*
X007523Y011385D03*
X007445Y011496D03*
X007345Y011618D03*
X007323Y011640D03*
X007245Y011718D03*
X005223Y011840D03*
X005123Y011762D03*
X005045Y011696D03*
X004923Y011562D03*
X004845Y011462D03*
X004645Y011096D03*
X004745Y009729D03*
X004823Y009607D03*
X004945Y009451D03*
X005245Y009185D03*
D93*
X004934Y009285D03*
X007334Y009240D03*
X007434Y009340D03*
X004934Y011762D03*
D94*
X005034Y011685D03*
X005056Y011707D03*
X005012Y011662D03*
X004956Y011607D03*
X004912Y011551D03*
X004856Y011485D03*
X004834Y011451D03*
X004812Y011418D03*
X004756Y011329D03*
X005112Y011751D03*
X007134Y011807D03*
X007256Y011707D03*
X007312Y011651D03*
X007334Y011629D03*
X007356Y011607D03*
X007412Y011540D03*
X007434Y011507D03*
X007456Y011485D03*
X007556Y011329D03*
X007634Y009862D03*
X007512Y009640D03*
X007456Y009562D03*
X007434Y009529D03*
X007356Y009440D03*
X007334Y009418D03*
X007312Y009385D03*
X007256Y009340D03*
X007234Y009318D03*
X007212Y009296D03*
X007156Y009251D03*
X005156Y009251D03*
X005112Y009285D03*
X005056Y009340D03*
X004956Y009440D03*
X004934Y009462D03*
X004912Y009485D03*
X004856Y009562D03*
X004734Y009751D03*
D95*
X005511Y009662D03*
X004956Y009262D03*
X004911Y009307D03*
X007356Y009262D03*
X007411Y009318D03*
X007311Y011818D03*
X005011Y011829D03*
D96*
X007367Y011773D03*
X007367Y009273D03*
D97*
X004945Y009273D03*
D98*
X004862Y009362D03*
X004817Y009407D03*
X004806Y009418D03*
X004795Y009440D03*
X004773Y009462D03*
X004751Y009496D03*
X007451Y009362D03*
X007473Y009385D03*
X007495Y009407D03*
X007506Y009418D03*
X007517Y009440D03*
X007562Y009496D03*
X007573Y011529D03*
X007551Y011562D03*
X007517Y011607D03*
X007506Y011618D03*
X007495Y011629D03*
X007473Y011651D03*
X007473Y011662D03*
X007451Y011685D03*
X007417Y011718D03*
X007406Y011729D03*
X007395Y011740D03*
X007373Y011762D03*
X006562Y012085D03*
X005751Y012085D03*
X004917Y011740D03*
X004906Y011729D03*
X004895Y011718D03*
X004873Y011696D03*
X004862Y011685D03*
X004817Y011629D03*
X004806Y011618D03*
X004795Y011607D03*
X004762Y011562D03*
D99*
X004773Y011573D03*
X004851Y011673D03*
X007462Y011673D03*
X007462Y009373D03*
X004851Y009373D03*
D100*
X004778Y009673D03*
X007300Y009373D03*
X007389Y009473D03*
X007467Y009573D03*
X007589Y009773D03*
X007378Y011573D03*
X007289Y011673D03*
X007178Y011773D03*
D101*
X005134Y011773D03*
X004934Y011573D03*
X007534Y009673D03*
X005012Y009373D03*
D102*
X004839Y009385D03*
X004828Y009396D03*
X007528Y009451D03*
X007539Y009462D03*
X004839Y011651D03*
X004839Y011662D03*
X004828Y011640D03*
X004739Y011529D03*
X004928Y011751D03*
X007428Y011707D03*
X007439Y011696D03*
D103*
X007484Y011640D03*
X007384Y011751D03*
X004884Y011707D03*
X004784Y009451D03*
X007484Y009396D03*
D104*
X007417Y009507D03*
X007450Y009551D03*
X007517Y009651D03*
X007528Y009662D03*
X007539Y009685D03*
X007550Y009696D03*
X007550Y009707D03*
X007617Y009818D03*
X007617Y009829D03*
X007628Y009851D03*
X007639Y009885D03*
X007650Y009896D03*
X007650Y009907D03*
X007717Y010085D03*
X007717Y010096D03*
X007717Y010107D03*
X007728Y010129D03*
X007728Y010140D03*
X007728Y010151D03*
X007728Y010162D03*
X007739Y010185D03*
X007739Y010196D03*
X007739Y010207D03*
X007750Y010229D03*
X007750Y010240D03*
X007750Y010251D03*
X007750Y010262D03*
X007750Y010785D03*
X007750Y010796D03*
X007750Y010807D03*
X007739Y010829D03*
X007739Y010840D03*
X007739Y010851D03*
X007739Y010862D03*
X007728Y010885D03*
X007728Y010896D03*
X007728Y010907D03*
X007728Y010918D03*
X007717Y010929D03*
X007717Y010940D03*
X007717Y010951D03*
X007650Y011129D03*
X007650Y011140D03*
X007639Y011162D03*
X007628Y011185D03*
X007628Y011196D03*
X007617Y011207D03*
X007617Y011218D03*
X007550Y011340D03*
X007539Y011351D03*
X007539Y011362D03*
X007517Y011396D03*
X007428Y011518D03*
X007417Y011529D03*
X004950Y011596D03*
X004939Y011585D03*
X004828Y011440D03*
X004817Y011429D03*
X004750Y011318D03*
X004739Y011307D03*
X004739Y011296D03*
X004728Y011285D03*
X004717Y011262D03*
X004717Y011251D03*
X004650Y011118D03*
X004650Y011107D03*
X004639Y011085D03*
X004628Y011062D03*
X004628Y011051D03*
X004628Y011040D03*
X004617Y011029D03*
X004617Y011018D03*
X004617Y011007D03*
X004550Y010740D03*
X004550Y010729D03*
X004550Y010718D03*
X004550Y010707D03*
X004550Y010696D03*
X004550Y010685D03*
X004539Y010640D03*
X004539Y010629D03*
X004539Y010618D03*
X004539Y010607D03*
X004539Y010596D03*
X004539Y010585D03*
X004539Y010562D03*
X004539Y010551D03*
X004539Y010540D03*
X004539Y010529D03*
X004539Y010518D03*
X004539Y010507D03*
X004539Y010496D03*
X004539Y010485D03*
X004539Y010462D03*
X004539Y010451D03*
X004539Y010440D03*
X004539Y010429D03*
X004539Y010418D03*
X004539Y010407D03*
X004539Y010396D03*
X004550Y010362D03*
X004550Y010351D03*
X004550Y010340D03*
X004550Y010329D03*
X004550Y010318D03*
X004550Y010307D03*
X004550Y010296D03*
X004617Y010029D03*
X004617Y010018D03*
X004617Y010007D03*
X004628Y009996D03*
X004628Y009985D03*
X004639Y009962D03*
X004639Y009951D03*
X004650Y009940D03*
X004650Y009929D03*
X004650Y009918D03*
X004717Y009785D03*
X004728Y009762D03*
X004739Y009740D03*
X004750Y009718D03*
X004817Y009618D03*
X004828Y009596D03*
X004839Y009585D03*
X007317Y009396D03*
X007328Y009407D03*
D105*
X007473Y009585D03*
X007495Y009618D03*
X007573Y009740D03*
X007595Y009785D03*
X007673Y009951D03*
X007673Y009962D03*
X007695Y010007D03*
X007695Y010018D03*
X007695Y010029D03*
X007773Y010396D03*
X007773Y010407D03*
X007773Y010418D03*
X007773Y010429D03*
X007773Y010440D03*
X007773Y010451D03*
X007773Y010462D03*
X007773Y010485D03*
X007773Y010496D03*
X007773Y010507D03*
X007773Y010518D03*
X007773Y010529D03*
X007773Y010540D03*
X007773Y010551D03*
X007773Y010562D03*
X007773Y010585D03*
X007773Y010596D03*
X007773Y010607D03*
X007773Y010618D03*
X007773Y010629D03*
X007773Y010640D03*
X007695Y011007D03*
X007695Y011018D03*
X007695Y011029D03*
X007673Y011085D03*
X007595Y011251D03*
X007595Y011262D03*
X007573Y011296D03*
X007573Y011307D03*
X007495Y011429D03*
X007373Y011585D03*
X004895Y011529D03*
X004795Y011396D03*
X004773Y011362D03*
X004773Y011351D03*
X004695Y011218D03*
X004695Y011207D03*
X004673Y011162D03*
X004595Y010951D03*
X004595Y010940D03*
X004595Y010929D03*
X004573Y010862D03*
X004573Y010851D03*
X004573Y010840D03*
X004573Y010829D03*
X004573Y010207D03*
X004573Y010196D03*
X004573Y010185D03*
X004595Y010107D03*
X004595Y010096D03*
X004595Y010085D03*
X004673Y009885D03*
X004695Y009829D03*
X004695Y009818D03*
X004773Y009685D03*
X004795Y009651D03*
X004895Y009507D03*
X004995Y009396D03*
D106*
X004984Y009407D03*
X004784Y009662D03*
X004684Y009851D03*
X004584Y010129D03*
X004584Y010140D03*
X004584Y010151D03*
X004584Y010162D03*
X004584Y010885D03*
X004584Y010896D03*
X004584Y010907D03*
X004584Y010918D03*
X004684Y011185D03*
X004684Y011196D03*
X004884Y011518D03*
X007484Y011440D03*
X007584Y011285D03*
X007684Y011062D03*
X007684Y011051D03*
X007684Y011040D03*
X007684Y009996D03*
X007684Y009985D03*
X007584Y009762D03*
X007484Y009596D03*
D107*
X007545Y009473D03*
X004767Y009473D03*
X004700Y009573D03*
X004700Y011473D03*
X006600Y012073D03*
D108*
X005023Y011673D03*
X004723Y009773D03*
X004845Y009573D03*
X004923Y009473D03*
D109*
X004906Y009496D03*
X004861Y009551D03*
X004806Y009629D03*
X004761Y009696D03*
X004761Y009707D03*
X004706Y009796D03*
X004706Y009807D03*
X004661Y009896D03*
X004661Y009907D03*
X004606Y010040D03*
X004606Y010051D03*
X004606Y010062D03*
X004561Y010229D03*
X004561Y010240D03*
X004561Y010251D03*
X004561Y010262D03*
X004561Y010785D03*
X004561Y010796D03*
X004561Y010807D03*
X004606Y010985D03*
X004606Y010996D03*
X004661Y011129D03*
X004661Y011140D03*
X004706Y011229D03*
X004706Y011240D03*
X004761Y011340D03*
X004806Y011407D03*
X007361Y011596D03*
X007506Y011407D03*
X007561Y011318D03*
X007606Y011240D03*
X007606Y011229D03*
X007661Y011118D03*
X007661Y011107D03*
X007706Y010996D03*
X007706Y010985D03*
X007761Y010740D03*
X007761Y010729D03*
X007761Y010718D03*
X007761Y010707D03*
X007761Y010696D03*
X007761Y010685D03*
X007761Y010362D03*
X007761Y010351D03*
X007761Y010340D03*
X007761Y010329D03*
X007761Y010318D03*
X007761Y010307D03*
X007761Y010296D03*
X007706Y010062D03*
X007706Y010051D03*
X007706Y010040D03*
X007661Y009940D03*
X007661Y009929D03*
X007661Y009918D03*
X007606Y009807D03*
X007606Y009796D03*
X007561Y009718D03*
X007506Y009629D03*
X007406Y009496D03*
D110*
X007634Y009596D03*
X007634Y009607D03*
X007734Y009785D03*
X007634Y011440D03*
X007534Y011585D03*
X004734Y011518D03*
X004634Y011362D03*
X004734Y009518D03*
D111*
X007611Y009573D03*
X007678Y009673D03*
X007611Y011473D03*
X005711Y012073D03*
D112*
X005756Y011173D03*
X006745Y010373D03*
X006812Y010073D03*
X006445Y009673D03*
D113*
X005512Y009673D03*
D114*
X004634Y009673D03*
D115*
X006445Y009685D03*
X005845Y011262D03*
D116*
X005423Y012096D03*
X005401Y012085D03*
X006912Y012085D03*
X005512Y009685D03*
D117*
X006445Y009696D03*
D118*
X005517Y009696D03*
X006650Y011162D03*
X006639Y011185D03*
X006639Y011196D03*
X006628Y011207D03*
X005528Y012140D03*
D119*
X006439Y009707D03*
D120*
X005511Y009707D03*
D121*
X006439Y009718D03*
D122*
X006011Y009918D03*
X005511Y009718D03*
D123*
X006439Y009729D03*
X006328Y010585D03*
D124*
X005717Y011051D03*
X005717Y011062D03*
X005728Y011107D03*
X006639Y012185D03*
X005517Y009729D03*
D125*
X006439Y009740D03*
D126*
X006817Y010085D03*
X006817Y010096D03*
X006817Y010107D03*
X006817Y010118D03*
X006817Y010129D03*
X006750Y010362D03*
X005750Y011151D03*
X005750Y011162D03*
X005739Y011140D03*
X006550Y011285D03*
X005717Y012196D03*
X005517Y009740D03*
D127*
X006434Y009751D03*
D128*
X006428Y009762D03*
D129*
X006672Y010440D03*
X005517Y009762D03*
D130*
X006434Y009773D03*
D131*
X005517Y009773D03*
D132*
X006428Y009785D03*
D133*
X006750Y009951D03*
X006639Y010462D03*
X005728Y010062D03*
X005517Y009785D03*
X005817Y011240D03*
X006528Y012207D03*
D134*
X006428Y009796D03*
D135*
X006728Y009929D03*
X006739Y009940D03*
X005517Y009796D03*
X005828Y011251D03*
D136*
X006428Y009807D03*
D137*
X006423Y009818D03*
D138*
X005522Y009818D03*
D139*
X006423Y009829D03*
X006223Y011396D03*
D140*
X005745Y010007D03*
X005522Y009840D03*
X005522Y009829D03*
D141*
X006423Y009840D03*
X006223Y011385D03*
X006156Y012240D03*
D142*
X006417Y009851D03*
D143*
X005528Y009851D03*
D144*
X006417Y009862D03*
D145*
X005534Y009862D03*
D146*
X004539Y010473D03*
X004539Y010573D03*
X004550Y010673D03*
X004639Y011073D03*
X004728Y011273D03*
X004850Y011473D03*
X007528Y011373D03*
X007639Y011173D03*
X007750Y010773D03*
X007750Y010273D03*
X007739Y010173D03*
X007639Y009873D03*
D147*
X006417Y009873D03*
D148*
X005539Y009873D03*
D149*
X004673Y009873D03*
X004573Y010173D03*
X004673Y011173D03*
X007673Y011073D03*
X007773Y010573D03*
X007773Y010473D03*
D150*
X006412Y009885D03*
X006156Y012229D03*
D151*
X006540Y010518D03*
X005740Y010018D03*
X005562Y009885D03*
D152*
X006661Y009896D03*
D153*
X006801Y010040D03*
X006812Y010062D03*
X006756Y010351D03*
X006067Y009896D03*
X005712Y010129D03*
X005712Y010140D03*
X005723Y010785D03*
X005767Y011185D03*
D154*
X005584Y009896D03*
D155*
X006034Y009907D03*
D156*
X005595Y009907D03*
D157*
X006711Y009918D03*
D158*
X005734Y010051D03*
X005612Y009918D03*
D159*
X005773Y009929D03*
X005895Y010718D03*
D160*
X005767Y009940D03*
D161*
X005762Y009951D03*
D162*
X006761Y009962D03*
D163*
X005756Y009962D03*
X005845Y010740D03*
D164*
X004784Y011373D03*
X007584Y011273D03*
X007684Y009973D03*
D165*
X006772Y009973D03*
D166*
X005750Y009973D03*
D167*
X004634Y009973D03*
X007734Y010873D03*
D168*
X006712Y010407D03*
X006701Y010418D03*
X006790Y010007D03*
X006778Y009996D03*
X006778Y009985D03*
X005723Y010096D03*
X005778Y011207D03*
X005790Y011218D03*
X006156Y012140D03*
X006156Y012296D03*
D169*
X005817Y010751D03*
X005750Y009985D03*
D170*
X005750Y009996D03*
D171*
X005739Y010029D03*
D172*
X005734Y010040D03*
D173*
X004434Y010251D03*
X004434Y010262D03*
X004434Y010285D03*
X004434Y010762D03*
X004434Y010785D03*
X006734Y012029D03*
X007834Y010985D03*
X007834Y010051D03*
D174*
X006806Y010051D03*
X006761Y010340D03*
D175*
X007706Y010073D03*
X007761Y010673D03*
X007706Y010973D03*
X007461Y011473D03*
X004606Y010973D03*
X004561Y010773D03*
X004561Y010273D03*
X004606Y010073D03*
D176*
X005723Y010073D03*
D177*
X005728Y010085D03*
D178*
X004567Y010218D03*
X004556Y010285D03*
X004545Y010385D03*
X004545Y010651D03*
X004545Y010662D03*
X004556Y010751D03*
X004556Y010762D03*
X004567Y010818D03*
X004601Y010962D03*
X007712Y010962D03*
X007745Y010818D03*
X007756Y010762D03*
X007756Y010751D03*
X007767Y010662D03*
X007767Y010651D03*
X007767Y010385D03*
X007756Y010285D03*
X007745Y010218D03*
X007723Y010118D03*
D179*
X004589Y010118D03*
D180*
X005712Y010151D03*
X005712Y010162D03*
X005712Y010585D03*
X005734Y011118D03*
X005734Y011129D03*
X006812Y010251D03*
X006812Y010240D03*
X006812Y010229D03*
X006812Y010218D03*
X006812Y010207D03*
D181*
X006823Y010173D03*
D182*
X005706Y010173D03*
D183*
X005706Y010185D03*
X005706Y010196D03*
X005706Y010207D03*
X005706Y010996D03*
X005706Y011007D03*
X005706Y011018D03*
X005706Y011029D03*
X005706Y011040D03*
D184*
X005700Y010985D03*
X005700Y010962D03*
X005700Y010951D03*
X005700Y010940D03*
X005700Y010929D03*
X005700Y010918D03*
X005700Y010907D03*
X005700Y010896D03*
X005700Y010885D03*
X005700Y010862D03*
X005700Y010851D03*
X005700Y010840D03*
X005700Y010829D03*
X005700Y010818D03*
X005700Y010807D03*
X005700Y010796D03*
X005700Y010562D03*
X005700Y010551D03*
X005700Y010540D03*
X005700Y010529D03*
X005700Y010518D03*
X005700Y010507D03*
X005700Y010496D03*
X005700Y010485D03*
X005700Y010462D03*
X005700Y010451D03*
X005700Y010440D03*
X005700Y010429D03*
X005700Y010418D03*
X005700Y010407D03*
X005700Y010396D03*
X005700Y010385D03*
X005700Y010362D03*
X005700Y010351D03*
X005700Y010340D03*
X005700Y010329D03*
X005700Y010318D03*
X005700Y010307D03*
X005700Y010296D03*
X005700Y010285D03*
X005700Y010262D03*
X005700Y010251D03*
X005700Y010240D03*
X005700Y010229D03*
X005700Y010218D03*
D185*
X007878Y010273D03*
X007889Y010373D03*
X007889Y010673D03*
X007878Y010773D03*
D186*
X006800Y010273D03*
D187*
X005700Y010273D03*
X005700Y010373D03*
X005700Y010473D03*
X005700Y010573D03*
X005700Y010873D03*
X005700Y010973D03*
D188*
X004434Y010773D03*
X004434Y010273D03*
D189*
X006773Y010329D03*
X006795Y010285D03*
X006595Y012196D03*
D190*
X006784Y010307D03*
D191*
X007767Y010373D03*
X004545Y010373D03*
D192*
X004422Y010373D03*
X004422Y010673D03*
D193*
X006684Y010429D03*
D194*
X006656Y010451D03*
X005801Y011229D03*
D195*
X006623Y010473D03*
D196*
X006606Y010485D03*
D197*
X006578Y010496D03*
D198*
X006484Y010540D03*
D199*
X006456Y010551D03*
X006156Y012129D03*
D200*
X006417Y010562D03*
D201*
X006378Y010573D03*
D202*
X006089Y010596D03*
X006156Y012218D03*
D203*
X006062Y010618D03*
D204*
X006050Y010629D03*
D205*
X006034Y010640D03*
D206*
X006017Y010651D03*
D207*
X006000Y010662D03*
D208*
X005984Y010673D03*
D209*
X005967Y010685D03*
D210*
X005945Y010696D03*
D211*
X005923Y010707D03*
D212*
X005873Y010729D03*
D213*
X005756Y010773D03*
D214*
X004578Y010873D03*
D215*
X005184Y011962D03*
X006684Y011029D03*
D216*
X006678Y011073D03*
D217*
X005717Y011073D03*
D218*
X006673Y011096D03*
X006673Y011107D03*
X005473Y012118D03*
D219*
X006645Y011173D03*
D220*
X006600Y011262D03*
D221*
X006589Y011273D03*
X006678Y012173D03*
D222*
X005873Y011273D03*
D223*
X005912Y011285D03*
X006156Y012285D03*
D224*
X006184Y011296D03*
D225*
X006195Y011318D03*
D226*
X006195Y011329D03*
D227*
X006200Y011340D03*
D228*
X006206Y011351D03*
D229*
X006206Y011362D03*
D230*
X006212Y011373D03*
D231*
X006234Y011407D03*
D232*
X006245Y011418D03*
D233*
X006256Y011429D03*
X006156Y012251D03*
D234*
X006262Y011440D03*
D235*
X006278Y011451D03*
D236*
X006289Y011462D03*
D237*
X006300Y011473D03*
D238*
X006295Y011485D03*
D239*
X006278Y011496D03*
D240*
X007539Y011573D03*
D241*
X007250Y011873D03*
X004950Y011773D03*
D242*
X005273Y011873D03*
D243*
X005062Y011873D03*
D244*
X005206Y011973D03*
X007106Y011973D03*
D245*
X006862Y011973D03*
X005451Y011973D03*
D246*
X005378Y012073D03*
X006934Y012073D03*
D247*
X006784Y012140D03*
D248*
X005634Y012173D03*
D249*
X005673Y012185D03*
D250*
X005784Y012207D03*
D251*
X006156Y012262D03*
D252*
X006156Y012273D03*
D253*
X005523Y005130D03*
X020523Y005130D03*
M02*
