%
M48
M72
T01C0.0138
T02C0.0354
T03C0.0400
T04C0.1440
%
T01
X12118Y6016
X14578Y7295
X12905Y8477
X13200Y8772
X12118Y9264
X12413Y9559
X12708Y11134
X12708Y11528
X12708Y12315
X12708Y12709
X15464Y12709
X15464Y12315
X15464Y11528
X15464Y11134
X21271Y13791
X23633Y13693
X23633Y14087
X23633Y10937
X25602Y10248
X25602Y9756
X24027Y9461
X9066Y6803
X3555Y8083
X2767Y8083
X3161Y8477
X3555Y8870
X2767Y8870
X3161Y9264
X2964Y10051
X2964Y10445
X5031Y12906
X5622Y12906
X8082Y12807
X8082Y12315
X2177Y13693
X1488Y13693
X1783Y13201
T02
X1685Y3752
X2669Y3752
X9362Y3752
X10346Y3752
X11330Y3752
X12314Y3752
X14480Y3752
X15464Y3752
X16448Y3752
X17433Y3752
X23240Y3752
X24224Y3752
X25208Y3752
T03
X19799Y7902
X18799Y7902
X17799Y7902
X16799Y7902
X15799Y7902
X14799Y7902
X13799Y7902
X12799Y7902
X11799Y7902
X10799Y7902
X9799Y7902
X8799Y7902
X7799Y7902
X6799Y7902
X6799Y13902
X7799Y13902
X8799Y13902
X9799Y13902
X10799Y13902
X11799Y13902
X12799Y13902
X13799Y13902
X14799Y13902
X15799Y13902
X16799Y13902
X17799Y13902
X18799Y13902
X19799Y13902
X19799Y12902
X19799Y10902
X19799Y9902
X19799Y8902
T04
X20523Y5130
X5523Y5130
M30
